<?xml version="1.0" encoding="UTF-8" standalone="no"?>
<svg
   viewBox="0 0 32 32"
   version="1.1"
   id="svg1"
   xmlns="http://www.w3.org/2000/svg"
   xmlns:svg="http://www.w3.org/2000/svg">
  <defs
     id="defs1">
    <style
       id="style1"><![CDATA[.background { fill:#404244; }
.fill-foreground-color { fill:#f5f5f5; }
.fill-accent-color { fill:#0b52ac; }
.stop-foreground-color { stop-color:#f5f5f5; }
.stop-accent-color { stop-color: #0b52ac; }
]]></style>
  </defs>
  <rect
     class="background"
     x="0"
     y="0"
     width="32"
     height="32"
     id="rect1" />
  <path
     class="fill-foreground-color"
     d="M 2,2 H 8 V 4 H 4 V 8 H 2 Z"
     id="path4" />
  <path
     class="fill-foreground-color"
     d="M 2,30 H 8 V 28 H 4 V 24 H 2 Z"
     id="path5" />
  <path
     class="fill-foreground-color"
     d="m 2,12 h 2 v 8 H 2 Z"
     id="path6" />
  <path
     class="fill-foreground-color"
     d="M 20,2 V 4 H 12 V 2 Z"
     id="path7" />
  <path
     class="fill-foreground-color"
     d="M 30,2 V 8 H 28 V 4 H 24 V 2 Z"
     id="path8" />
  <path
     class="fill-foreground-color"
     d="m 30,20 h -2 v -8 h 2 z"
     id="path9" />
  <path
     class="fill-foreground-color"
     d="m 30,30 h -6 v -2 h 4 v -4 h 2 z"
     id="path10" />
  <path
     class="fill-foreground-color"
     d="m 12,30 v -2 h 8 v 2 z"
     id="path11" />
  <path
     class="fill-foreground-color"
     d="M 24,14 V 6 L 21,9 C 18,6 8,5 8,16 h 2 c 0,-7 6,-8 9,-5 l -3,3 z"
     id="path2" />
  <path
     class="fill-foreground-color"
     d="m 8,18 v 8 l 3,-3 c 3,3 13,4 13,-7 h -2 c 0,7 -6,8 -9,5 l 3,-3 z"
     id="path3" />
</svg>
