<?xml version="1.0" encoding="UTF-8" standalone="no"?>
<svg
   viewBox="0 0 32 32"
   version="1.1"
   id="svg1"
   xmlns="http://www.w3.org/2000/svg"
   xmlns:svg="http://www.w3.org/2000/svg">
  <defs
     id="defs1">
    <style
       id="style1"><![CDATA[.background { fill:#404244; }
.fill-foreground-color { fill:#f5f5f5; }
.fill-accent-color { fill:#0b52ac; }
.stop-foreground-color { stop-color:#f5f5f5; }
.stop-accent-color { stop-color: #0b52ac; }
]]></style>
  </defs>
  <rect
     class="background"
     x="0"
     y="0"
     width="32"
     height="32"
     id="rect1" />
  <path
     class="fill-foreground-color"
     d="m 24.297272,21.56516 c 0.02496,-3.377246 4.417236,-2.880506 4.094643,-9.95974 3.188062,4.099068 5.101404,10.512022 1.661371,12.796539 -2.397314,1.592051 -5.780974,0.540446 -5.756014,-2.836799 z"
     id="path1" />
  <path
     class="fill-foreground-color"
     d="M 5.2460937,0.9921875 C 4.6428264,0.96539704 4.0339993,1.0845833 3.484375,1.4160156 2.5928598,1.9536138 1.9721091,2.9022318 1.8125,3.8613281 1.6528909,4.8204245 1.8390531,5.7457329 2.1640625,6.6660156 2.8140812,8.5065812 4.0845699,10.42679 5.5976562,12.404297 6.1012612,13.062533 6.947369,13.043788 7.605293,12.539776 8.2635289,12.036171 8.4844812,11.238002 7.9804687,10.580078 6.5578487,8.7208046 5.4360202,6.9247068 4.9921875,5.6679687 4.7702711,5.0395997 4.7353113,4.5708806 4.7714844,4.3535156 4.8076574,4.1361507 4.8000186,4.1261668 5.0351562,3.984375 c 0.027404,-0.016525 0.1064574,-0.091916 0.6582032,0.1699219 0.5517457,0.2618378 1.3689994,0.8702176 2.265625,1.7695312 1.7932512,1.7986272 3.9388236,4.7155629 5.9921876,8.1445309 0.425139,0.710664 1.393695,0.942348 2.104579,0.517579 0.711146,-0.425861 0.894128,-1.347797 0.467686,-2.058594 C 14.385585,8.9572856 12.168336,5.8972411 10.083984,3.8066406 9.0418085,2.7613404 8.0414148,1.9477715 6.9785156,1.4433594 6.4470661,1.1911533 5.8493611,1.018978 5.2460937,0.9921875 Z"
     id="path2" />
  <path
     class="fill-foreground-color"
     d="m 13.007692,-5.7753155 c -0.828393,8.28e-5 -1.672761,0.6703749 -1.672844,1.4987677 l 0.06762,20.7881918 c 8.3e-5,0.828393 0.883295,1.647686 1.711688,1.647769 l 15.300969,-0.121462 c 0.828393,-8.3e-5 1.620147,-0.750528 1.62023,-1.578921 l -0.02754,-20.8144987 c -8.3e-5,-0.8283928 -0.591454,-1.5525311 -1.419847,-1.552614 z m 1.446154,3.0926904 12.553966,-0.1728437 -0.04008,17.9735728 -12.512657,-0.02631 z"
     id="path3"
     transform="rotate(33.281601)" />
</svg>
