<?xml version="1.0" encoding="UTF-8" standalone="no"?>
<svg
   viewBox="0 0 32 32"
   version="1.1"
   id="svg1"
   xmlns="http://www.w3.org/2000/svg"
   xmlns:svg="http://www.w3.org/2000/svg">
  <defs
     id="defs1">
    <style
       id="style1"><![CDATA[.background { fill:#404244; }
.fill-foreground-color { fill:#f5f5f5; }
.fill-accent-color { fill:#0b52ac; }
.stop-foreground-color { stop-color:#f5f5f5; }
.stop-accent-color { stop-color: #0b52ac; }
]]></style>
  </defs>
  <rect
     class="background"
     x="0"
     y="0"
     width="32"
     height="32"
     id="rect1" />
  <path
     id="path1"
     class="fill-foreground-color"
     d="M 2.1324664,2.5432584 C 0.15859685,2.5598614 -0.26366851,5.5860218 1.6431371,5.8608848 7.5755094,6.7160269 14.778624,8.5613912 18.585566,12.973916 c 3.200013,3.470934 5.520633,9.937124 7.560501,17.544188 0.74293,2.134185 3.408203,1.213912 3.068871,-1.010869 C 27.734861,19.803326 25.331262,13.308616 22.510635,10.085947 18.737686,5.5413784 9.6302227,2.4012955 2.1324664,2.5432584 Z" />
  <path
     class="fill-foreground-color"
     d="m 18.88814,2.061396 c 4.26661,2.1093356 8.245584,6.0403698 9.108494,9.875525 l -0.04794,-9.875525 z"
     id="path2" />
  <path
     class="fill-foreground-color"
     d="M 19.19997,19.868725 C 14.943531,17.738941 10.983465,13.78886 10.138968,9.949608 l 5.53e-4,9.875641 z"
     id="path3" />
</svg>
