<?xml version="1.0" encoding="UTF-8" standalone="no"?>
<svg
   viewBox="0 0 32 32"
   version="1.1"
   id="svg1"
   xmlns="http://www.w3.org/2000/svg"
   xmlns:svg="http://www.w3.org/2000/svg">
  <defs
     id="defs1">
    <style
       id="style1"><![CDATA[.background { fill:#404244; }
.fill-foreground-color { fill:#f5f5f5; }
.fill-accent-color { fill:#0b52ac; }
.stop-foreground-color { stop-color:#f5f5f5; }
.stop-accent-color { stop-color: #0b52ac; }
]]></style>
  </defs>
  <rect
     class="background"
     x="0"
     y="0"
     width="32"
     height="32"
     id="rect1" />
  <path
     class="fill-foreground-color"
     d="M 29.906499,7.5469899 31.202704,5.2888664 C 32.999066,2.159417 26.193224,-1.6824207 24.364102,1.066424 L 23.169276,2.8854338 Z M 11.070066,22.67955 9.8862478,31.89409 17.740512,27.417568 Z m 7.877597,2.966279 9.981304,-16.18728 -6.91928,-4.8233437 -10.026211,16.1786437 z"
     id="path1" />
  <path
     class="fill-foreground-color"
     d="M 8.5683594,1.8092227 C 7.7771689,2.0546493 7.3347126,2.8949664 7.5800781,3.6861758 8.2783295,5.9385999 8.3505585,7.4086291 8.15625,8.4140625 7.9619415,9.4194959 7.5227015,10.08247 6.7988281,10.880859 c -1.4477467,1.59678 -4.1221891,3.505459 -5.4492187,7.751953 -1.09330204,3.498566 0.3721123,6.632553 1.9570312,8.707032 1.5849189,2.074479 3.3821173,3.311176 3.3821173,3.311176 0.6812672,0.470473 1.8013284,0.215263 2.2723783,-0.465606 0.470473,-0.681267 0.1305171,-1.54709 -0.550351,-2.01814 0,0 -1.4548676,-0.994594 -2.719379,-2.649696 C 4.4268949,23.862476 3.4963504,21.820272 4.2128906,19.527344 5.2828307,16.103536 7.2093521,14.89516 9.0214844,12.896484 9.9275505,11.897147 10.782476,10.643617 11.103516,8.9824219 11.424556,7.3212263 11.233182,5.3918201 10.445313,2.8503046 10.200722,2.0583285 9.360144,1.5640127 8.5683594,1.8092227 Z"
     id="path2" />
</svg>
