<?xml version="1.0" encoding="UTF-8" standalone="no"?>
<svg
   width="12cm"
   height="3.5cm"
   viewBox="0 0 1200 350"
   version="1.1"
   id="svg6044"
   xmlns="http://www.w3.org/2000/svg"
   xmlns:svg="http://www.w3.org/2000/svg">
  <defs
     id="defs6048" />
  <desc
     id="desc6010">Example linecap - demonstrates three stroke-linecap values</desc>
  <rect
     x="1"
     y="1"
     width="1198"
     height="348"
     fill="none"
     stroke="blue"
     id="rect6012" />
  <g
     transform="translate(200,75)"
     id="g6022">
    <path
       style="stroke:black; stroke-width:70"
       d="M -125,150 L 0,0 L 125,150"
       fill="none"
       stroke-linejoin="miter"
       id="path6014" />
    <path
       style="stroke:#ffcccc; stroke-width:5"
       d="M -125,150 L 0,0 L 125,150"
       fill="none"
       id="path6016" />
    <circle
       style="fill:#ffcccc; stroke:none"
       cx="0"
       cy="0"
       r="8"
       id="circle6018" />
    <g
       aria-label="'miter' join"
       id="text6020"
       style="font-size:50px;font-family:Verdana;text-anchor:middle">
      <path
         d="m -125.84229,192.01172 -1.0498,14.13574 h -3.32031 l -1.04981,-14.13574 z"
         id="path6167" />
      <path
         d="m -77.526855,230 h -4.589844 v -15.52734 q 0,-1.75782 -0.170899,-3.39356 -0.146484,-1.63574 -0.659179,-2.6123 -0.561524,-1.04981 -1.611328,-1.58692 -1.049805,-0.53711 -3.027344,-0.53711 -1.928711,0 -3.857422,0.97657 -1.928711,0.95214 -3.857422,2.4414 0.07324,0.56153 0.12207,1.31836 0.04883,0.73242 0.04883,1.46485 V 230 h -4.589843 v -15.52734 q 0,-1.80664 -0.170899,-3.41797 -0.146483,-1.63574 -0.659183,-2.61231 -0.56152,-1.0498 -1.61132,-1.5625 -1.04981,-0.53711 -3.02735,-0.53711 -1.87988,0 -3.78418,0.92774 -1.87988,0.92773 -3.75976,2.36816 V 230 h -4.58985 v -27.27051 h 4.58985 v 3.02735 q 2.14843,-1.78223 4.27246,-2.78321 2.14843,-1.00097 4.56543,-1.00097 2.7832,0 4.711911,1.17187 1.953125,1.17188 2.905274,3.24707 2.783203,-2.34375 5.078125,-3.36914 2.294921,-1.0498 4.907226,-1.0498 4.492188,0 6.616211,2.73437 2.148438,2.70996 2.148438,7.59277 z"
         id="path6169" />
      <path
         d="m -63.757324,198.16406 h -5.175781 v -4.76074 h 5.175781 z M -64.050293,230 h -4.589844 v -27.27051 h 4.589844 z"
         id="path6171" />
      <path
         d="m -40.808105,229.75586 q -1.293946,0.3418 -2.832032,0.56152 -1.513672,0.21973 -2.709961,0.21973 -4.174804,0 -6.347656,-2.24609 -2.172851,-2.2461 -2.172851,-7.20215 v -14.50196 h -3.100586 v -3.85742 h 3.100586 v -7.83691 h 4.589843 v 7.83691 h 9.472657 v 3.85742 h -9.472657 v 12.42676 q 0,2.14844 0.09766,3.36914 0.09766,1.19629 0.683593,2.2461 0.53711,0.97656 1.464844,1.44043 0.952148,0.43945 2.880859,0.43945 1.123047,0 2.34375,-0.31738 1.220704,-0.3418 1.757813,-0.56153 h 0.244141 z"
         id="path6173" />
      <path
         d="m -12.438965,216.84082 h -20.092773 q 0,2.51465 0.756836,4.39453 0.756836,1.85547 2.075195,3.05176 1.269531,1.17187 3.00293,1.75781 1.757812,0.58594 3.857422,0.58594 2.783203,0 5.59082,-1.09863 2.832031,-1.12305 4.02832,-2.19727 h 0.244141 v 5.00488 q -2.319336,0.97657 -4.736328,1.63575 -2.416993,0.65918 -5.078125,0.65918 -6.78711,0 -10.595703,-3.66211 -3.808594,-3.68653 -3.808594,-10.44922 0,-6.68946 3.637695,-10.62012 3.662109,-3.93066 9.619141,-3.93066 5.517578,0 8.496093,3.22265 3.00293,3.22266 3.00293,9.15528 z m -4.467773,-3.51562 q -0.02441,-3.61329 -1.831055,-5.59083 -1.782227,-1.97753 -5.444336,-1.97753 -3.686523,0 -5.883789,2.17285 -2.172852,2.17285 -2.46582,5.39551 z"
         id="path6175" />
      <path
         d="m 11.535645,207.73437 h -0.244141 q -1.025391,-0.24414 -2.0019532,-0.34179 -0.9521485,-0.12207 -2.2705078,-0.12207 -2.1240235,0 -4.1015625,0.95215 -1.97753909,0.92773 -3.80859378,2.41699 V 230 H -5.480957 v -27.27051 h 4.58984372 v 4.02832 q 2.73437498,-2.19726 4.80957028,-3.10058 2.0996094,-0.92774 4.272461,-0.92774 1.196289,0 1.7333984,0.0732 0.5371096,0.0488 1.6113286,0.21973 z"
         id="path6177" />
      <path
         d="m 20.76416,192.01172 -1.049805,14.13574 h -3.320312 l -1.049805,-14.13574 z"
         id="path6179" />
      <path
         d="m 55.358887,198.16406 h -5.175782 v -4.76074 h 5.175782 z m -0.292969,32.49512 q 0,4.78516 -2.441406,7.22656 -2.441407,2.44141 -6.542969,2.44141 -0.976563,0 -2.587891,-0.19531 -1.586914,-0.19532 -2.661132,-0.48829 v -4.37011 h 0.24414 q 0.683594,0.26855 1.831055,0.61035 1.171875,0.3418 2.270508,0.3418 1.757812,0 2.832031,-0.48829 1.074219,-0.48828 1.611328,-1.46484 0.537109,-0.97656 0.683594,-2.36816 0.170898,-1.36719 0.170898,-3.34473 v -21.97266 h -5.688476 v -3.85742 h 10.27832 z"
         id="path6181" />
      <path
         d="m 87.316895,216.37695 q 0,6.66504 -3.417969,10.52246 -3.417969,3.85743 -9.155274,3.85743 -5.786132,0 -9.204101,-3.85743 -3.393555,-3.85742 -3.393555,-10.52246 0,-6.66504 3.393555,-10.52246 3.417969,-3.88183 9.204101,-3.88183 5.737305,0 9.155274,3.88183 3.417969,3.85742 3.417969,10.52246 z m -4.736329,0 q 0,-5.29785 -2.075195,-7.86133 -2.075195,-2.58789 -5.761719,-2.58789 -3.735351,0 -5.810547,2.58789 -2.050781,2.56348 -2.050781,7.86133 0,5.12696 2.075196,7.78809 2.075195,2.63672 5.786132,2.63672 3.66211,0 5.737305,-2.61231 2.099609,-2.63672 2.099609,-7.8125 z"
         id="path6183" />
      <path
         d="m 99.353027,198.16406 h -5.175781 v -4.76074 h 5.175781 z M 99.060059,230 h -4.589844 v -27.27051 h 4.589844 z"
         id="path6185" />
      <path
         d="m 130.94482,230 h -4.58984 v -15.52734 q 0,-1.87989 -0.21973,-3.51563 -0.21972,-1.66016 -0.80566,-2.58789 -0.61035,-1.02539 -1.75781,-1.51367 -1.14746,-0.5127 -2.97852,-0.5127 -1.87988,0 -3.93066,0.92774 -2.05078,0.92773 -3.93067,2.36816 V 230 h -4.58984 v -27.27051 h 4.58984 v 3.02735 q 2.14844,-1.78223 4.44336,-2.78321 2.29492,-1.00097 4.71192,-1.00097 4.41894,0 6.73828,2.66113 2.31933,2.66113 2.31933,7.66601 z"
         id="path6187" />
    </g>
  </g>
  <g
     transform="translate(600,75)"
     id="g6032">
    <path
       style="stroke:black; stroke-width:70"
       d="M -125,150 L 0,0 L 125,150"
       fill="none"
       stroke-linejoin="round"
       id="path6024" />
    <path
       style="stroke:#ffcccc; stroke-width:5"
       d="M -125,150 L 0,0 L 125,150"
       fill="none"
       id="path6026" />
    <circle
       style="fill:#ffcccc; stroke:none"
       cx="0"
       cy="0"
       r="8"
       id="circle6028" />
    <g
       aria-label="'round' join"
       id="text6030"
       style="font-size:50px;font-family:Verdana;text-anchor:middle">
      <path
         d="m -132.31201,192.01172 -1.04981,14.13574 h -3.32031 l -1.0498,-14.13574 z"
         id="path6190" />
      <path
         d="m -106.7749,207.73437 h -0.24414 q -1.02539,-0.24414 -2.00196,-0.34179 -0.95214,-0.12207 -2.2705,-0.12207 -2.12403,0 -4.10157,0.95215 -1.97754,0.92773 -3.80859,2.41699 V 230 h -4.58984 v -27.27051 h 4.58984 v 4.02832 q 2.73437,-2.19726 4.80957,-3.10058 2.09961,-0.92774 4.27246,-0.92774 1.19629,0 1.7334,0.0732 0.53711,0.0488 1.61133,0.21973 z"
         id="path6192" />
      <path
         d="m -79.211426,216.37695 q 0,6.66504 -3.417969,10.52246 -3.417968,3.85743 -9.155273,3.85743 -5.786133,0 -9.204102,-3.85743 -3.39355,-3.85742 -3.39355,-10.52246 0,-6.66504 3.39355,-10.52246 3.417969,-3.88183 9.204102,-3.88183 5.737305,0 9.155273,3.88183 3.417969,3.85742 3.417969,10.52246 z m -4.736328,0 q 0,-5.29785 -2.075195,-7.86133 -2.075196,-2.58789 -5.761719,-2.58789 -3.735352,0 -5.810547,2.58789 -2.050781,2.56348 -2.050781,7.86133 0,5.12696 2.075195,7.78809 2.075196,2.63672 5.786133,2.63672 3.662109,0 5.737305,-2.61231 2.099609,-2.63672 2.099609,-7.8125 z"
         id="path6194" />
      <path
         d="m -49.499512,230 h -4.589843 v -3.02734 q -2.319336,1.83105 -4.44336,2.80761 -2.124023,0.97657 -4.6875,0.97657 -4.296875,0 -6.689453,-2.61231 -2.392578,-2.63672 -2.392578,-7.71484 v -17.7002 h 4.589844 v 15.52735 q 0,2.07519 0.195312,3.56445 0.195313,1.46484 0.830078,2.51465 0.65918,1.07422 1.708985,1.5625 1.049804,0.48828 3.051757,0.48828 1.782227,0 3.881836,-0.92774 2.124024,-0.92773 3.955079,-2.36816 v -20.36133 h 4.589843 z"
         id="path6196" />
      <path
         d="m -17.663574,230 h -4.589844 v -15.52734 q 0,-1.87989 -0.219727,-3.51563 -0.219726,-1.66016 -0.805664,-2.58789 -0.610351,-1.02539 -1.757812,-1.51367 -1.147461,-0.5127 -2.978516,-0.5127 -1.879883,0 -3.930664,0.92774 -2.050781,0.92773 -3.930664,2.36816 V 230 h -4.589844 v -27.27051 h 4.589844 v 3.02735 q 2.148438,-1.78223 4.44336,-2.78321 2.294921,-1.00097 4.711914,-1.00097 4.418945,0 6.738281,2.66113 2.319336,2.66113 2.319336,7.66601 z"
         id="path6198" />
      <path
         d="M 13.293457,230 H 8.7036133 v -2.85645 q -1.9775391,1.70899 -4.1259766,2.66114 -2.1484375,0.95215 -4.66308592,0.95215 -4.88281248,0 -7.76367188,-3.75977 -2.8564449,-3.75977 -2.8564449,-10.4248 0,-3.4668 0.9765621,-6.17676 1.0009766,-2.70996 2.6855469,-4.61426 1.6601562,-1.85547 3.8574218,-2.83203 2.22167973,-0.97656 4.5898438,-0.97656 2.1484375,0 3.8085937,0.46386 1.6601563,0.43946 3.491211,1.3916 v -11.8164 h 4.5898437 z m -4.5898437,-6.71387 v -15.64941 q -1.8554688,-0.83008 -3.3203125,-1.14746 -1.4648438,-0.31739 -3.1982422,-0.31739 -3.8574219,0 -6.0058594,2.68555 -2.1484375,2.68555 -2.1484375,7.61719 0,4.8584 1.6601563,7.39746 1.6601562,2.51465 5.3222656,2.51465 1.953125,0 3.9550781,-0.85449 2.0019531,-0.87891 3.7353516,-2.2461 z"
         id="path6200" />
      <path
         d="m 27.233887,192.01172 -1.049805,14.13574 H 22.86377 l -1.049805,-14.13574 z"
         id="path6202" />
      <path
         d="m 61.828613,198.16406 h -5.175781 v -4.76074 h 5.175781 z m -0.292968,32.49512 q 0,4.78516 -2.441407,7.22656 -2.441406,2.44141 -6.542968,2.44141 -0.976563,0 -2.587891,-0.19531 -1.586914,-0.19532 -2.661133,-0.48829 v -4.37011 h 0.244141 q 0.683593,0.26855 1.831054,0.61035 1.171875,0.3418 2.270508,0.3418 1.757813,0 2.832031,-0.48829 1.074219,-0.48828 1.611329,-1.46484 0.537109,-0.97656 0.683593,-2.36816 0.170899,-1.36719 0.170899,-3.34473 v -21.97266 h -5.688477 v -3.85742 h 10.278321 z"
         id="path6204" />
      <path
         d="m 93.786621,216.37695 q 0,6.66504 -3.417969,10.52246 -3.417968,3.85743 -9.155273,3.85743 -5.786133,0 -9.204102,-3.85743 -3.393554,-3.85742 -3.393554,-10.52246 0,-6.66504 3.393554,-10.52246 3.417969,-3.88183 9.204102,-3.88183 5.737305,0 9.155273,3.88183 3.417969,3.85742 3.417969,10.52246 z m -4.736328,0 q 0,-5.29785 -2.075195,-7.86133 -2.075196,-2.58789 -5.761719,-2.58789 -3.735352,0 -5.810547,2.58789 -2.050781,2.56348 -2.050781,7.86133 0,5.12696 2.075195,7.78809 2.075195,2.63672 5.786133,2.63672 3.662109,0 5.737305,-2.61231 2.099609,-2.63672 2.099609,-7.8125 z"
         id="path6206" />
      <path
         d="m 105.82275,198.16406 h -5.17578 v -4.76074 h 5.17578 z M 105.52979,230 h -4.58985 v -27.27051 h 4.58985 z"
         id="path6208" />
      <path
         d="m 137.41455,230 h -4.58984 v -15.52734 q 0,-1.87989 -0.21973,-3.51563 -0.21973,-1.66016 -0.80566,-2.58789 -0.61036,-1.02539 -1.75782,-1.51367 -1.14746,-0.5127 -2.97851,-0.5127 -1.87988,0 -3.93067,0.92774 -2.05078,0.92773 -3.93066,2.36816 V 230 h -4.58984 v -27.27051 h 4.58984 v 3.02735 q 2.14844,-1.78223 4.44336,-2.78321 2.29492,-1.00097 4.71191,-1.00097 4.41895,0 6.73828,2.66113 2.31934,2.66113 2.31934,7.66601 z"
         id="path6210" />
    </g>
  </g>
  <g
     transform="translate(1000,75)"
     id="g6042">
    <path
       style="stroke:black; stroke-width:70"
       d="M -125,150 L 0,0 L 125,150"
       fill="none"
       stroke-linejoin="bevel"
       id="path6034" />
    <path
       style="stroke:#ffcccc; stroke-width:5"
       d="M -125,150 L 0,0 L 125,150"
       fill="none"
       id="path6036" />
    <circle
       style="fill:#ffcccc; stroke:none"
       cx="0"
       cy="0"
       r="8"
       id="circle6038" />
    <g
       aria-label="'bevel' join"
       id="text6040"
       style="font-size:50px;font-family:Verdana;text-anchor:middle">
      <path
         d="m -126.0498,192.01172 -1.04981,14.13574 h -3.32031 l -1.04981,-14.13574 z"
         id="path6213" />
      <path
         d="m -93.530273,216.15723 q 0,3.41797 -0.976563,6.15234 -0.952148,2.73438 -2.587891,4.58984 -1.733398,1.92871 -3.808593,2.90528 -2.0752,0.95215 -4.56543,0.95215 -2.31934,0 -4.05273,-0.56153 -1.7334,-0.53711 -3.41797,-1.46484 L -113.23242,230 h -4.29688 v -37.98828 h 4.58985 v 13.57422 q 1.92871,-1.58692 4.10156,-2.58789 2.17285,-1.02539 4.88281,-1.02539 4.833986,0 7.617189,3.71093 2.807618,3.71094 2.807618,10.47364 z m -4.736329,0.12207 q 0,-4.88282 -1.611328,-7.39746 -1.61133,-2.53907 -5.2002,-2.53907 -2.00195,0 -4.05273,0.87891 -2.05078,0.85449 -3.80859,2.22168 v 15.625 q 1.95312,0.87891 3.34472,1.2207 1.41602,0.3418 3.19825,0.3418 3.80859,0 5.95703,-2.49024 2.172848,-2.51464 2.172848,-7.86132 z"
         id="path6215" />
      <path
         d="m -63.549805,216.84082 h -20.092773 q 0,2.51465 0.756836,4.39453 0.756836,1.85547 2.075195,3.05176 1.269531,1.17187 3.00293,1.75781 1.757812,0.58594 3.857422,0.58594 2.783203,0 5.59082,-1.09863 2.832031,-1.12305 4.02832,-2.19727 h 0.244141 v 5.00488 q -2.319336,0.97657 -4.736328,1.63575 -2.416992,0.65918 -5.078125,0.65918 -6.78711,0 -10.595703,-3.66211 -3.808594,-3.68653 -3.808594,-10.44922 0,-6.68946 3.637695,-10.62012 3.66211,-3.93066 9.619141,-3.93066 5.517578,0 8.496094,3.22265 3.002929,3.22266 3.002929,9.15528 z m -4.467773,-3.51562 q -0.02441,-3.61329 -1.831055,-5.59083 -1.782226,-1.97753 -5.444336,-1.97753 -3.686523,0 -5.883789,2.17285 -2.172851,2.17285 -2.46582,5.39551 z"
         id="path6217" />
      <path
         d="M -33.007812,202.72949 -44.042969,230 h -4.614258 l -10.961914,-27.27051 h 4.980469 l 8.447266,21.7041 8.374023,-21.7041 z"
         id="path6219" />
      <path
         d="M -4.6142578,216.84082 H -24.707031 q 0,2.51465 0.756836,4.39453 0.756836,1.85547 2.075195,3.05176 1.269531,1.17187 3.00293,1.75781 1.757812,0.58594 3.857422,0.58594 2.783203,0 5.5908199,-1.09863 2.8320312,-1.12305 4.0283203,-2.19727 h 0.2441406 v 5.00488 q -2.3193359,0.97657 -4.7363281,1.63575 -2.4169927,0.65918 -5.0781247,0.65918 -6.78711,0 -10.595703,-3.66211 -3.808594,-3.68653 -3.808594,-10.44922 0,-6.68946 3.637695,-10.62012 3.66211,-3.93066 9.619141,-3.93066 5.517578,0 8.4960935,3.22265 3.0029297,3.22266 3.0029297,9.15528 z m -4.4677735,-3.51562 q -0.024414,-3.61329 -1.8310547,-5.59083 -1.782227,-1.97753 -5.444336,-1.97753 -3.686523,0 -5.883789,2.17285 -2.172851,2.17285 -2.46582,5.39551 z"
         id="path6221" />
      <path
         d="M 6.9824219,230 H 2.3925781 v -37.98828 h 4.5898438 z"
         id="path6223" />
      <path
         d="m 20.97168,192.01172 -1.049805,14.13574 h -3.320313 l -1.049804,-14.13574 z"
         id="path6225" />
      <path
         d="m 55.566406,198.16406 h -5.175781 v -4.76074 h 5.175781 z m -0.292969,32.49512 q 0,4.78516 -2.441406,7.22656 -2.441406,2.44141 -6.542969,2.44141 -0.976562,0 -2.58789,-0.19531 -1.586914,-0.19532 -2.661133,-0.48829 v -4.37011 h 0.244141 q 0.683593,0.26855 1.831054,0.61035 1.171875,0.3418 2.270508,0.3418 1.757813,0 2.832031,-0.48829 1.074219,-0.48828 1.611329,-1.46484 0.537109,-0.97656 0.683593,-2.36816 0.170899,-1.36719 0.170899,-3.34473 v -21.97266 h -5.688477 v -3.85742 h 10.27832 z"
         id="path6227" />
      <path
         d="m 87.524414,216.37695 q 0,6.66504 -3.417969,10.52246 -3.417968,3.85743 -9.155273,3.85743 -5.786133,0 -9.204102,-3.85743 -3.393554,-3.85742 -3.393554,-10.52246 0,-6.66504 3.393554,-10.52246 3.417969,-3.88183 9.204102,-3.88183 5.737305,0 9.155273,3.88183 3.417969,3.85742 3.417969,10.52246 z m -4.736328,0 q 0,-5.29785 -2.075195,-7.86133 -2.075196,-2.58789 -5.761719,-2.58789 -3.735352,0 -5.810547,2.58789 -2.050781,2.56348 -2.050781,7.86133 0,5.12696 2.075195,7.78809 2.075195,2.63672 5.786133,2.63672 3.662109,0 5.737305,-2.61231 2.099609,-2.63672 2.099609,-7.8125 z"
         id="path6229" />
      <path
         d="m 99.560547,198.16406 h -5.175781 v -4.76074 h 5.175781 z M 99.267578,230 h -4.589844 v -27.27051 h 4.589844 z"
         id="path6231" />
      <path
         d="m 131.15234,230 h -4.58984 v -15.52734 q 0,-1.87989 -0.21973,-3.51563 -0.21972,-1.66016 -0.80566,-2.58789 -0.61035,-1.02539 -1.75781,-1.51367 -1.14746,-0.5127 -2.97852,-0.5127 -1.87988,0 -3.93066,0.92774 -2.05078,0.92773 -3.93067,2.36816 V 230 h -4.58984 v -27.27051 h 4.58984 v 3.02735 q 2.14844,-1.78223 4.44336,-2.78321 2.29492,-1.00097 4.71192,-1.00097 4.41894,0 6.73828,2.66113 2.31933,2.66113 2.31933,7.66601 z"
         id="path6233" />
    </g>
  </g>
</svg>
