<?xml version="1.0" encoding="UTF-8" standalone="no"?>
<svg
   width="12cm"
   height="2cm"
   viewBox="0 0 1200 200"
   version="1.1"
   id="svg5755"
   xmlns="http://www.w3.org/2000/svg"
   xmlns:svg="http://www.w3.org/2000/svg">
  <defs
     id="defs5759" />
  <desc
     id="desc5715">Example linecap - demonstrates three stroke-linecap values</desc>
  <rect
     x="1"
     y="1"
     width="1198"
     height="198"
     fill="none"
     stroke="blue"
     id="rect5717" />
  <g
     transform="translate(200,75)"
     id="g5729">
    <line
       style="stroke:black; stroke-width:70"
       x1="-125"
       x2="125"
       y1="0"
       y2="0"
       fill="none"
       stroke-linecap="butt"
       id="line5719" />
    <line
       style="stroke:#ffcccc; stroke-width:5"
       x1="-125"
       x2="125"
       y1="0"
       y2="0"
       fill="none"
       id="line5721" />
    <circle
       style="fill:#ffcccc; stroke:none"
       cx="-125"
       cy="0"
       r="8"
       id="circle5723" />
    <circle
       style="fill:#ffcccc; stroke:none"
       cx="125"
       cy="0"
       r="8"
       id="circle5725" />
    <g
       aria-label="'butt' cap"
       id="text5727"
       style="font-size:50px;font-family:Verdana;text-anchor:middle">
      <path
         d="m -107.50732,52.011719 -1.04981,14.135742 h -3.32031 l -1.04981,-14.135742 z"
         id="path5878" />
      <path
         d="m -74.987793,76.157227 q 0,3.417968 -0.976562,6.152343 -0.952149,2.734375 -2.587891,4.589844 -1.733399,1.928711 -3.808594,2.905273 -2.075195,0.952149 -4.56543,0.952149 -2.319335,0 -4.052734,-0.561524 -1.733398,-0.537109 -3.417969,-1.464843 L -94.689941,90 h -4.296875 V 52.011719 h 4.589843 v 13.574218 q 1.928711,-1.586914 4.101563,-2.58789 2.172851,-1.025391 4.882812,-1.025391 4.833985,0 7.617188,3.710938 2.807617,3.710937 2.807617,10.473633 z m -4.736328,0.12207 q 0,-4.882813 -1.611328,-7.397461 -1.611328,-2.539063 -5.200196,-2.539063 -2.001953,0 -4.052734,0.878907 -2.050781,0.854492 -3.808594,2.221679 v 15.625 q 1.953125,0.878907 3.344727,1.220703 1.416016,0.341797 3.198242,0.341797 3.808594,0 5.957031,-2.490234 2.172852,-2.514648 2.172852,-7.861328 z"
         id="path5880" />
      <path
         d="m -45.227051,90 h -4.589844 v -3.027344 q -2.319335,1.831055 -4.443359,2.807617 -2.124023,0.976563 -4.6875,0.976563 -4.296875,0 -6.689453,-2.612305 -2.392578,-2.636719 -2.392578,-7.714844 V 62.729492 h 4.589844 v 15.527344 q 0,2.075195 0.195312,3.564453 0.195313,1.464844 0.830078,2.514648 0.65918,1.074219 1.708985,1.5625 1.049804,0.488282 3.051757,0.488282 1.782227,0 3.881836,-0.927735 2.124024,-0.927734 3.955078,-2.368164 V 62.729492 h 4.589844 z"
         id="path5882" />
      <path
         d="m -22.033691,89.755859 q -1.293946,0.341797 -2.832032,0.561524 -1.513672,0.219726 -2.709961,0.219726 -4.174804,0 -6.347656,-2.246093 -2.172851,-2.246094 -2.172851,-7.202149 V 66.586914 h -3.100586 v -3.857422 h 3.100586 v -7.836914 h 4.589843 v 7.836914 h 9.472657 v 3.857422 h -9.472657 v 12.426758 q 0,2.148437 0.09766,3.36914 0.09766,1.19629 0.683593,2.246094 0.53711,0.976563 1.464844,1.44043 0.952149,0.439453 2.880859,0.439453 1.123047,0 2.34375,-0.317383 1.220704,-0.341797 1.757813,-0.561523 h 0.244141 z"
         id="path5884" />
      <path
         d="m -2.331543,89.755859 q -1.2939453,0.341797 -2.8320312,0.561524 -1.5136719,0.219726 -2.709961,0.219726 -4.1748048,0 -6.3476558,-2.246093 -2.172852,-2.246094 -2.172852,-7.202149 V 66.586914 h -3.100586 v -3.857422 h 3.100586 v -7.836914 h 4.589844 v 7.836914 h 9.472656 v 3.857422 h -9.472656 v 12.426758 q 0,2.148437 0.09766,3.36914 0.09766,1.19629 0.683594,2.246094 0.537109,0.976563 1.4648435,1.44043 0.9521485,0.439453 2.8808594,0.439453 1.1230469,0 2.34375,-0.317383 1.2207031,-0.341797 1.7578125,-0.561523 h 0.2441406 z"
         id="path5886" />
      <path
         d="M 8.1176758,52.011719 7.0678711,66.147461 H 3.7475586 L 2.6977539,52.011719 Z"
         id="path5888" />
      <path
         d="M 54.382324,88.291016 Q 52.087402,89.389648 50.012207,90 q -2.050781,0.610352 -4.370117,0.610352 -2.954102,0 -5.419922,-0.854493 -2.46582,-0.878906 -4.223633,-2.636718 -1.782226,-1.757813 -2.758789,-4.44336 -0.976562,-2.685547 -0.976562,-6.274414 0,-6.689453 3.662109,-10.498047 3.686523,-3.808593 9.716797,-3.808593 2.34375,0 4.589844,0.659179 2.270507,0.65918 4.15039,1.611328 v 5.102539 h -0.24414 q -2.09961,-1.635742 -4.345704,-2.514648 -2.221679,-0.878906 -4.345703,-0.878906 -3.90625,0 -6.176757,2.636718 -2.246094,2.612305 -2.246094,7.69043 0,4.931641 2.197265,7.592774 2.22168,2.636718 6.225586,2.636718 1.391602,0 2.832032,-0.366211 1.440429,-0.366211 2.58789,-0.952148 1.000977,-0.512695 1.879883,-1.074219 0.878906,-0.585937 1.391602,-1.000976 h 0.24414 z"
         id="path5890" />
      <path
         d="m 81.45752,90 h -4.56543 v -2.905273 q -0.610352,0.415039 -1.660156,1.171875 -1.025391,0.732421 -2.001954,1.171875 Q 72.08252,90 70.593262,90.366211 q -1.489258,0.390625 -3.491211,0.390625 -3.686524,0 -6.25,-2.441406 -2.563477,-2.441407 -2.563477,-6.225586 0,-3.100586 1.31836,-5.004883 1.342773,-1.928711 3.808593,-3.027344 2.490235,-1.098633 5.981446,-1.489258 3.491211,-0.390625 7.495117,-0.585937 v -0.708008 q 0,-1.5625 -0.561524,-2.587891 -0.537109,-1.02539 -1.5625,-1.611328 -0.976562,-0.561523 -2.34375,-0.756836 -1.367187,-0.195312 -2.856445,-0.195312 -1.806641,0 -4.02832,0.488281 -2.22168,0.463867 -4.589844,1.367188 H 60.705566 V 63.31543 q 1.342774,-0.366211 3.881836,-0.805664 2.539063,-0.439454 5.004883,-0.439454 2.88086,0 5.004883,0.488282 2.148437,0.463867 3.710937,1.611328 1.538086,1.123047 2.34375,2.905273 0.805665,1.782227 0.805665,4.418946 z m -4.56543,-6.713867 v -7.592774 q -2.09961,0.122071 -4.956055,0.366211 -2.832031,0.244141 -4.492187,0.708008 -1.977539,0.561524 -3.198243,1.757813 -1.220703,1.171875 -1.220703,3.24707 0,2.34375 1.416016,3.540039 1.416016,1.171875 4.321289,1.171875 2.416992,0 4.418945,-0.927734 2.001953,-0.952149 3.710938,-2.270508 z"
         id="path5892" />
      <path
         d="m 114.29443,76.035156 q 0,3.320313 -0.95214,6.079102 -0.95215,2.734375 -2.68555,4.638672 -1.61133,1.80664 -3.8086,2.807617 -2.17285,0.976562 -4.61425,0.976562 -2.12403,0 -3.857425,-0.463867 -1.708985,-0.463867 -3.491211,-1.44043 V 100.05859 H 90.29541 V 62.729492 h 4.589844 v 2.856445 q 1.831055,-1.538085 4.101562,-2.563476 2.294924,-1.049805 4.882814,-1.049805 4.93164,0 7.66601,3.735352 2.75879,3.710937 2.75879,10.327148 z m -4.73632,0.122071 q 0,-4.931641 -1.68457,-7.373047 -1.68458,-2.441407 -5.17579,-2.441407 -1.97754,0 -3.979488,0.854493 -2.001953,0.854492 -3.833008,2.246093 v 15.454102 q 1.953125,0.878906 3.344726,1.196289 1.416016,0.317383 3.19824,0.317383 3.83301,0 5.98145,-2.587891 2.14844,-2.58789 2.14844,-7.666015 z"
         id="path5894" />
    </g>
  </g>
  <g
     transform="translate(600,75)"
     id="g5741">
    <line
       style="stroke:black; stroke-width:70"
       x1="-125"
       x2="125"
       y1="0"
       y2="0"
       fill="none"
       stroke-linecap="round"
       id="line5731" />
    <line
       style="stroke:#ffcccc; stroke-width:5"
       x1="-125"
       x2="125"
       y1="0"
       y2="0"
       fill="none"
       id="line5733" />
    <circle
       style="fill:#ffcccc; stroke:none"
       cx="-125"
       cy="0"
       r="8"
       id="circle5735" />
    <circle
       style="fill:#ffcccc; stroke:none"
       cx="125"
       cy="0"
       r="8"
       id="circle5737" />
    <g
       aria-label="'round' cap"
       id="text5739"
       style="font-size:50px;font-family:Verdana;text-anchor:middle">
      <path
         d="m -129.46777,52.011719 -1.04981,14.135742 h -3.32031 l -1.04981,-14.135742 z"
         id="path5897" />
      <path
         d="m -103.93066,67.734375 h -0.24414 q -1.0254,-0.244141 -2.00196,-0.341797 -0.95215,-0.12207 -2.27051,-0.12207 -2.12402,0 -4.10156,0.952148 -1.97754,0.927735 -3.80859,2.416992 V 90 h -4.58985 V 62.729492 h 4.58985 v 4.02832 q 2.73437,-2.197265 4.80957,-3.100585 2.09961,-0.927735 4.27246,-0.927735 1.19629,0 1.7334,0.07324 0.53711,0.04883 1.61133,0.219727 z"
         id="path5899" />
      <path
         d="m -76.367187,76.376953 q 0,6.665039 -3.417969,10.522461 -3.417969,3.857422 -9.155274,3.857422 -5.786132,0 -9.204101,-3.857422 -3.393559,-3.857422 -3.393559,-10.522461 0,-6.665039 3.393559,-10.522461 3.417969,-3.881836 9.204101,-3.881836 5.737305,0 9.155274,3.881836 3.417969,3.857422 3.417969,10.522461 z m -4.736329,0 q 0,-5.297851 -2.075195,-7.861328 -2.075195,-2.587891 -5.761719,-2.587891 -3.735351,0 -5.810547,2.587891 -2.050781,2.563477 -2.050781,7.861328 0,5.126953 2.075196,7.788086 2.075195,2.636719 5.786132,2.636719 3.66211,0 5.737305,-2.612305 2.099609,-2.636719 2.099609,-7.8125 z"
         id="path5901" />
      <path
         d="m -46.655273,90 h -4.589844 v -3.027344 q -2.319336,1.831055 -4.44336,2.807617 -2.124023,0.976563 -4.6875,0.976563 -4.296875,0 -6.689453,-2.612305 -2.392578,-2.636719 -2.392578,-7.714844 V 62.729492 h 4.589844 v 15.527344 q 0,2.075195 0.195312,3.564453 0.195313,1.464844 0.830079,2.514648 0.659179,1.074219 1.708984,1.5625 1.049805,0.488282 3.051758,0.488282 1.782226,0 3.881836,-0.927735 2.124023,-0.927734 3.955078,-2.368164 V 62.729492 h 4.589844 z"
         id="path5903" />
      <path
         d="M -14.819336,90 H -19.40918 V 74.472656 q 0,-1.879883 -0.219726,-3.515625 -0.219727,-1.660156 -0.805664,-2.58789 -0.610352,-1.025391 -1.757813,-1.513672 -1.147461,-0.512696 -2.978515,-0.512696 -1.879883,0 -3.930664,0.927735 -2.050782,0.927734 -3.930665,2.368164 V 90 H -37.62207 V 62.729492 h 4.589843 v 3.027344 q 2.148438,-1.782227 4.44336,-2.783203 2.294922,-1.000977 4.711914,-1.000977 4.418945,0 6.738281,2.661133 2.319336,2.661133 2.319336,7.666016 z"
         id="path5905" />
      <path
         d="m 16.137695,90 h -4.589843 v -2.856445 q -1.9775395,1.708984 -4.125977,2.661132 -2.1484375,0.952149 -4.6630859,0.952149 -4.8828125,0 -7.7636719,-3.759766 -2.8564453,-3.759765 -2.8564453,-10.424804 0,-3.466797 0.9765625,-6.176758 1.0009765,-2.709961 2.6855469,-4.614258 1.6601562,-1.855469 3.85742182,-2.832031 2.22167968,-0.976563 4.58984378,-0.976563 2.1484375,0 3.8085937,0.463867 1.6601563,0.439454 3.4912114,1.391602 V 52.011719 h 4.589843 z M 11.547852,83.286133 V 67.636719 Q 9.6923828,66.806641 8.2275391,66.489258 6.7626953,66.171875 5.0292969,66.171875 q -3.8574219,0 -6.0058594,2.685547 Q -3.125,71.542969 -3.125,76.474609 q 0,4.858399 1.6601563,7.397461 1.6601562,2.514649 5.3222656,2.514649 1.953125,0 3.9550781,-0.854492 2.0019531,-0.878907 3.735352,-2.246094 z"
         id="path5907" />
      <path
         d="M 30.078125,52.011719 29.02832,66.147461 H 25.708008 L 24.658203,52.011719 Z"
         id="path5909" />
      <path
         d="M 76.342773,88.291016 Q 74.047852,89.389648 71.972656,90 q -2.050781,0.610352 -4.370117,0.610352 -2.954102,0 -5.419922,-0.854493 -2.46582,-0.878906 -4.223633,-2.636718 -1.782226,-1.757813 -2.758789,-4.44336 -0.976562,-2.685547 -0.976562,-6.274414 0,-6.689453 3.662109,-10.498047 3.686524,-3.808593 9.716797,-3.808593 2.34375,0 4.589844,0.659179 2.270508,0.65918 4.15039,1.611328 v 5.102539 h -0.24414 q -2.09961,-1.635742 -4.345703,-2.514648 -2.22168,-0.878906 -4.345703,-0.878906 -3.90625,0 -6.176758,2.636718 -2.246094,2.612305 -2.246094,7.69043 0,4.931641 2.197266,7.592774 2.221679,2.636718 6.225586,2.636718 1.391601,0 2.832031,-0.366211 1.440429,-0.366211 2.58789,-0.952148 1.000977,-0.512695 1.879883,-1.074219 0.878906,-0.585937 1.391602,-1.000976 h 0.24414 z"
         id="path5911" />
      <path
         d="m 103.41797,90 h -4.565431 v -2.905273 q -0.610352,0.415039 -1.660156,1.171875 -1.025391,0.732421 -2.001953,1.171875 Q 94.042969,90 92.553711,90.366211 q -1.489258,0.390625 -3.491211,0.390625 -3.686523,0 -6.25,-2.441406 -2.563477,-2.441407 -2.563477,-6.225586 0,-3.100586 1.31836,-5.004883 1.342773,-1.928711 3.808594,-3.027344 2.490234,-1.098633 5.981445,-1.489258 3.491211,-0.390625 7.495117,-0.585937 v -0.708008 q 0,-1.5625 -0.561523,-2.587891 -0.53711,-1.02539 -1.5625,-1.611328 -0.976563,-0.561523 -2.34375,-0.756836 -1.367188,-0.195312 -2.856446,-0.195312 -1.80664,0 -4.02832,0.488281 -2.22168,0.463867 -4.589844,1.367188 h -0.24414 V 63.31543 q 1.342773,-0.366211 3.881836,-0.805664 2.539062,-0.439454 5.004882,-0.439454 2.88086,0 5.004883,0.488282 2.148438,0.463867 3.710933,1.611328 1.53809,1.123047 2.34375,2.905273 0.80567,1.782227 0.80567,4.418946 z m -4.565431,-6.713867 v -7.592774 q -2.099609,0.122071 -4.956055,0.366211 -2.832031,0.244141 -4.492187,0.708008 -1.977539,0.561524 -3.198242,1.757813 -1.220703,1.171875 -1.220703,3.24707 0,2.34375 1.416015,3.540039 1.416016,1.171875 4.321289,1.171875 2.416992,0 4.418946,-0.927734 2.001953,-0.952149 3.710937,-2.270508 z"
         id="path5913" />
      <path
         d="m 136.25488,76.035156 q 0,3.320313 -0.95215,6.079102 -0.95214,2.734375 -2.68554,4.638672 -1.61133,1.80664 -3.8086,2.807617 -2.17285,0.976562 -4.61425,0.976562 -2.12403,0 -3.85743,-0.463867 -1.70898,-0.463867 -3.49121,-1.44043 v 11.425778 h -4.58984 V 62.729492 h 4.58984 v 2.856445 q 1.83106,-1.538085 4.10157,-2.563476 2.29492,-1.049805 4.88281,-1.049805 4.93164,0 7.66601,3.735352 2.75879,3.710937 2.75879,10.327148 z m -4.73633,0.122071 q 0,-4.931641 -1.68457,-7.373047 -1.68457,-2.441407 -5.17578,-2.441407 -1.97754,0 -3.97949,0.854493 -2.00195,0.854492 -3.83301,2.246093 v 15.454102 q 1.95313,0.878906 3.34473,1.196289 1.41602,0.317383 3.19824,0.317383 3.83301,0 5.98145,-2.587891 2.14843,-2.58789 2.14843,-7.666015 z"
         id="path5915" />
    </g>
  </g>
  <g
     transform="translate(1000,75)"
     id="g5753">
    <line
       style="stroke:black; stroke-width:70"
       x1="-125"
       x2="125"
       y1="0"
       y2="0"
       fill="none"
       stroke-linecap="square"
       id="line5743" />
    <line
       style="stroke:#ffcccc; stroke-width:5"
       x1="-125"
       x2="125"
       y1="0"
       y2="0"
       fill="none"
       id="line5745" />
    <circle
       style="fill:#ffcccc; stroke:none"
       cx="-125"
       cy="0"
       r="8"
       id="circle5747" />
    <circle
       style="fill:#ffcccc; stroke:none"
       cx="125"
       cy="0"
       r="8"
       id="circle5749" />
    <g
       aria-label="'square' cap"
       id="text5751"
       style="font-size:50px;font-family:Verdana;text-anchor:middle">
      <path
         d="m -141.40625,52.011719 -1.0498,14.135742 h -3.32032 l -1.0498,-14.135742 z"
         id="path5918" />
      <path
         d="m -113.40332,82.138672 q 0,3.735351 -3.10059,6.12793 -3.07617,2.392578 -8.42285,2.392578 -3.02734,0 -5.5664,-0.708008 -2.51465,-0.732422 -4.22364,-1.586914 v -5.151367 h 0.24414 q 2.17286,1.635742 4.83399,2.612304 2.66113,0.952149 5.10254,0.952149 3.02734,0 4.73633,-0.976563 1.70898,-0.976562 1.70898,-3.076172 0,-1.611328 -0.92773,-2.441406 -0.92774,-0.830078 -3.56446,-1.416016 -0.97656,-0.219726 -2.56347,-0.512695 -1.5625,-0.292969 -2.85645,-0.634765 -3.58887,-0.952149 -5.10254,-2.783204 -1.48926,-1.855468 -1.48926,-4.541015 0,-1.684571 0.6836,-3.173828 0.70801,-1.489258 2.12402,-2.661133 1.36719,-1.147461 3.4668,-1.806641 2.12402,-0.683594 4.73633,-0.683594 2.4414,0 4.93164,0.610352 2.51464,0.585938 4.1748,1.44043 v 4.907226 h -0.24414 q -1.75781,-1.293945 -4.27246,-2.172851 -2.51465,-0.903321 -4.93164,-0.903321 -2.51465,0 -4.24805,0.976563 -1.7334,0.952148 -1.7334,2.856445 0,1.684571 1.04981,2.539063 1.02539,0.854492 3.32031,1.391601 1.26953,0.292969 2.83203,0.585938 1.58692,0.292969 2.63672,0.537109 3.19824,0.732422 4.93164,2.514649 1.7334,1.80664 1.7334,4.785156 z"
         id="path5920" />
      <path
         d="m -84.716797,100.05859 h -4.589844 V 86.923828 q -2.124023,1.831055 -4.223632,2.734375 -2.09961,0.878906 -4.541016,0.878906 -4.858401,0 -7.763671,-3.735351 -2.88086,-3.759766 -2.88086,-10.351563 0,-3.515625 1.00098,-6.201172 1.02539,-2.709961 2.68554,-4.541015 1.61133,-1.782227 3.78418,-2.758789 2.172854,-0.976563 4.589847,-0.976563 2.197265,0 3.881836,0.488281 1.708984,0.488282 3.466796,1.44043 l 0.292969,-1.171875 h 4.296875 z M -89.306641,83.066406 V 67.636719 q -1.904296,-0.854492 -3.36914,-1.196289 -1.464844,-0.341797 -3.173828,-0.341797 -3.979493,0 -6.054691,2.709961 -2.07519,2.685547 -2.07519,7.421875 0,4.785156 1.66015,7.373047 1.68457,2.563476 5.273442,2.563476 2.001953,0 4.003906,-0.854492 2.001953,-0.878906 3.735351,-2.246094 z"
         id="path5922" />
      <path
         d="m -53.076172,90 h -4.589844 v -3.027344 q -2.319336,1.831055 -4.443359,2.807617 -2.124023,0.976563 -4.6875,0.976563 -4.296875,0 -6.689453,-2.612305 -2.392578,-2.636719 -2.392578,-7.714844 V 62.729492 h 4.589844 v 15.527344 q 0,2.075195 0.195312,3.564453 0.195313,1.464844 0.830078,2.514648 0.65918,1.074219 1.708985,1.5625 1.049804,0.488282 3.051757,0.488282 1.782227,0 3.881836,-0.927735 2.124024,-0.927734 3.955078,-2.368164 V 62.729492 h 4.589844 z"
         id="path5924" />
      <path
         d="m -22.851562,90 h -4.56543 v -2.905273 q -0.610352,0.415039 -1.660156,1.171875 -1.025391,0.732421 -2.001954,1.171875 -1.14746,0.561523 -2.636718,0.927734 -1.489258,0.390625 -3.491211,0.390625 -3.686524,0 -6.25,-2.441406 -2.563477,-2.441407 -2.563477,-6.225586 0,-3.100586 1.31836,-5.004883 1.342773,-1.928711 3.808593,-3.027344 2.490235,-1.098633 5.981446,-1.489258 3.491211,-0.390625 7.495117,-0.585937 v -0.708008 q 0,-1.5625 -0.561524,-2.587891 -0.537109,-1.02539 -1.5625,-1.611328 -0.976562,-0.561523 -2.34375,-0.756836 -1.367187,-0.195312 -2.856445,-0.195312 -1.806641,0 -4.02832,0.488281 -2.22168,0.463867 -4.589844,1.367188 h -0.244141 V 63.31543 q 1.342774,-0.366211 3.881836,-0.805664 2.539063,-0.439454 5.004883,-0.439454 2.88086,0 5.004883,0.488282 2.148437,0.463867 3.710937,1.611328 1.538086,1.123047 2.34375,2.905273 0.805665,1.782227 0.805665,4.418946 z m -4.56543,-6.713867 v -7.592774 q -2.09961,0.122071 -4.956055,0.366211 -2.832031,0.244141 -4.492187,0.708008 -1.977539,0.561524 -3.198243,1.757813 -1.220703,1.171875 -1.220703,3.24707 0,2.34375 1.416016,3.540039 1.416016,1.171875 4.321289,1.171875 2.416992,0 4.418945,-0.927734 2.001953,-0.952149 3.710938,-2.270508 z"
         id="path5926" />
      <path
         d="M 3.0029297,67.734375 H 2.7587891 q -1.0253907,-0.244141 -2.00195316,-0.341797 -0.95214844,-0.12207 -2.27050784,-0.12207 -2.1240234,0 -4.1015625,0.952148 -1.977539,0.927735 -3.8085937,2.416992 V 90 H -14.013672 V 62.729492 h 4.5898439 v 4.02832 q 2.734375,-2.197265 4.8095703,-3.100585 2.0996094,-0.927735 4.27246092,-0.927735 1.19628907,0 1.73339848,0.07324 0.5371093,0.04883 1.6113281,0.219727 z"
         id="path5928" />
      <path
         d="M 30.151367,76.84082 H 10.058594 q 0,2.514649 0.756836,4.394532 0.756836,1.855468 2.075195,3.051757 1.269531,1.171875 3.00293,1.757813 1.757812,0.585937 3.857422,0.585937 2.783203,0 5.59082,-1.098632 2.832031,-1.123047 4.02832,-2.197266 h 0.244141 v 5.004883 q -2.319336,0.976562 -4.736328,1.635742 -2.416993,0.65918 -5.078125,0.65918 -6.78711,0 -10.5957034,-3.66211 -3.8085938,-3.686523 -3.8085938,-10.449219 0,-6.689453 3.6376953,-10.620117 3.6621099,-3.930664 9.6191409,-3.930664 5.517578,0 8.496093,3.222656 3.00293,3.222657 3.00293,9.155274 z m -4.467773,-3.515625 q -0.02441,-3.613281 -1.831055,-5.59082 -1.782227,-1.977539 -5.444336,-1.977539 -3.686523,0 -5.883789,2.172851 -2.172851,2.172852 -2.46582,5.395508 z"
         id="path5930" />
      <path
         d="M 42.016602,52.011719 40.966797,66.147461 H 37.646484 L 36.59668,52.011719 Z"
         id="path5932" />
      <path
         d="M 88.28125,88.291016 Q 85.986328,89.389648 83.911133,90 q -2.050781,0.610352 -4.370117,0.610352 -2.954102,0 -5.419922,-0.854493 -2.465821,-0.878906 -4.223633,-2.636718 -1.782227,-1.757813 -2.758789,-4.44336 -0.976563,-2.685547 -0.976563,-6.274414 0,-6.689453 3.66211,-10.498047 3.686523,-3.808593 9.716797,-3.808593 2.34375,0 4.589843,0.659179 2.270508,0.65918 4.150391,1.611328 v 5.102539 h -0.244141 q -2.099609,-1.635742 -4.345703,-2.514648 -2.221679,-0.878906 -4.345703,-0.878906 -3.90625,0 -6.176758,2.636718 -2.246093,2.612305 -2.246093,7.69043 0,4.931641 2.197265,7.592774 2.22168,2.636718 6.225586,2.636718 1.391602,0 2.832031,-0.366211 1.44043,-0.366211 2.587891,-0.952148 1.000977,-0.512695 1.879883,-1.074219 0.878906,-0.585937 1.391601,-1.000976 h 0.244141 z"
         id="path5934" />
      <path
         d="m 115.35645,90 h -4.56543 v -2.905273 q -0.61036,0.415039 -1.66016,1.171875 -1.02539,0.732421 -2.00195,1.171875 -1.14746,0.561523 -2.63672,0.927734 -1.48926,0.390625 -3.49121,0.390625 -3.686527,0 -6.250003,-2.441406 -2.563477,-2.441407 -2.563477,-6.225586 0,-3.100586 1.318359,-5.004883 1.342774,-1.928711 3.808594,-3.027344 2.490234,-1.098633 5.981447,-1.489258 3.49121,-0.390625 7.49512,-0.585937 v -0.708008 q 0,-1.5625 -0.56153,-2.587891 -0.53711,-1.02539 -1.5625,-1.611328 -0.97656,-0.561523 -2.34375,-0.756836 -1.36719,-0.195312 -2.85644,-0.195312 -1.80664,0 -4.028323,0.488281 -2.22168,0.463867 -4.589844,1.367188 H 94.604492 V 63.31543 q 1.342774,-0.366211 3.881836,-0.805664 2.539062,-0.439454 5.004882,-0.439454 2.88086,0 5.00488,0.488282 2.14844,0.463867 3.71094,1.611328 1.53809,1.123047 2.34375,2.905273 0.80567,1.782227 0.80567,4.418946 z m -4.56543,-6.713867 v -7.592774 q -2.09961,0.122071 -4.95606,0.366211 -2.83203,0.244141 -4.49219,0.708008 -1.977536,0.561524 -3.198239,1.757813 -1.220703,1.171875 -1.220703,3.24707 0,2.34375 1.416016,3.540039 1.416015,1.171875 4.321286,1.171875 2.417,0 4.41895,-0.927734 2.00195,-0.952149 3.71094,-2.270508 z"
         id="path5936" />
      <path
         d="m 148.19336,76.035156 q 0,3.320313 -0.95215,6.079102 -0.95215,2.734375 -2.68555,4.638672 -1.61132,1.80664 -3.80859,2.807617 -2.17285,0.976562 -4.61426,0.976562 -2.12402,0 -3.85742,-0.463867 -1.70898,-0.463867 -3.49121,-1.44043 v 11.425778 h -4.58984 V 62.729492 h 4.58984 v 2.856445 q 1.83105,-1.538085 4.10156,-2.563476 2.29492,-1.049805 4.88281,-1.049805 4.93165,0 7.66602,3.735352 2.75879,3.710937 2.75879,10.327148 z m -4.73633,0.122071 q 0,-4.931641 -1.68457,-7.373047 -1.68457,-2.441407 -5.17578,-2.441407 -1.97754,0 -3.97949,0.854493 -2.00196,0.854492 -3.83301,2.246093 v 15.454102 q 1.95312,0.878906 3.34473,1.196289 1.41601,0.317383 3.19824,0.317383 3.83301,0 5.98144,-2.587891 2.14844,-2.58789 2.14844,-7.666015 z"
         id="path5938" />
    </g>
  </g>
</svg>
