<?xml version="1.0" encoding="UTF-8" standalone="no"?>
<svg
   width="11.975872cm"
   height="7.3617005cm"
   viewBox="0 0 1197.5872 736.17006"
   version="1.1"
   id="svg371"
   xmlns="http://www.w3.org/2000/svg"
   xmlns:svg="http://www.w3.org/2000/svg">
  <defs
     id="defs375" />
  <desc
     id="desc337">Example miterlimit - demonstrates three stroke-miterlimit values</desc>
  <g
     transform="translate(198.77139,562.31696)"
     id="g349">
    <g
       aria-label="miterlimit = 4"
       id="text347"
       style="font-size:50px;font-family:Verdana;text-anchor:middle">
      <path
         d="m -140.96782,141.31441 h -4.58984 v -15.52735 q 0,-1.75781 -0.1709,-3.39355 -0.14649,-1.63574 -0.65918,-2.61231 -0.56153,-1.0498 -1.61133,-1.58691 -1.04981,-0.53711 -3.02734,-0.53711 -1.92872,0 -3.85743,0.97656 -1.92871,0.95215 -3.85742,2.44141 0.0732,0.56152 0.12207,1.31836 0.0488,0.73242 0.0488,1.46484 v 17.45606 h -4.58984 v -15.52735 q 0,-1.80664 -0.1709,-3.41797 -0.14649,-1.63574 -0.65918,-2.6123 -0.56153,-1.0498 -1.61133,-1.5625 -1.0498,-0.53711 -3.02734,-0.53711 -1.87989,0 -3.78418,0.92774 -1.87989,0.92773 -3.75977,2.36816 v 20.36133 h -4.58984 V 114.0439 h 4.58984 v 3.02734 q 2.14844,-1.78222 4.27246,-2.7832 2.14844,-1.00098 4.56543,-1.00098 2.7832,0 4.71192,1.17188 1.95312,1.17187 2.90527,3.24707 2.7832,-2.34375 5.07812,-3.36914 2.29493,-1.04981 4.90723,-1.04981 4.49219,0 6.61621,2.73438 2.14844,2.70996 2.14844,7.59277 z"
         id="path1628" />
      <path
         d="m -127.19829,109.47847 h -5.17578 v -4.76074 h 5.17578 z m -0.29297,31.83594 h -4.58984 V 114.0439 h 4.58984 z"
         id="path1630" />
      <path
         d="m -104.24907,141.07027 q -1.29395,0.34179 -2.83203,0.56152 -1.51367,0.21973 -2.70996,0.21973 -4.17481,0 -6.34766,-2.2461 -2.17285,-2.24609 -2.17285,-7.20215 v -14.50195 h -3.10059 v -3.85742 h 3.10059 v -7.83691 h 4.58984 v 7.83691 h 9.47266 v 3.85742 h -9.47266 v 12.42676 q 0,2.14844 0.0977,3.36914 0.0977,1.19629 0.68359,2.24609 0.53711,0.97657 1.46485,1.44043 0.95214,0.43946 2.88086,0.43946 1.12304,0 2.34375,-0.31739 1.2207,-0.34179 1.75781,-0.56152 h 0.24414 z"
         id="path1632" />
      <path
         d="m -75.87993,128.15523 h -20.092774 q 0,2.51465 0.756836,4.39453 0.756836,1.85547 2.075195,3.05176 1.269532,1.17187 3.00293,1.75781 1.757813,0.58594 3.857422,0.58594 2.783203,0 5.59082,-1.09864 2.832031,-1.12304 4.028321,-2.19726 h 0.24414 v 5.00488 q -2.319336,0.97656 -4.736328,1.63574 -2.416992,0.65918 -5.078125,0.65918 -6.787109,0 -10.595703,-3.66211 -3.808594,-3.68652 -3.808594,-10.44922 0,-6.68945 3.637695,-10.62011 3.66211,-3.93067 9.619141,-3.93067 5.517578,0 8.496094,3.22266 3.00293,3.22266 3.00293,9.15527 z m -4.467774,-3.51563 q -0.02441,-3.61328 -1.831055,-5.59082 -1.782226,-1.97754 -5.444336,-1.97754 -3.686523,0 -5.883789,2.17285 -2.172851,2.17286 -2.46582,5.39551 z"
         id="path1634" />
      <path
         d="m -51.905321,119.04878 h -0.244141 q -1.02539,-0.24414 -2.001953,-0.34179 -0.952148,-0.12207 -2.270508,-0.12207 -2.124023,0 -4.101562,0.95214 -1.977539,0.92774 -3.808594,2.417 v 19.36035 h -4.589844 V 114.0439 h 4.589844 v 4.02832 q 2.734375,-2.19727 4.80957,-3.10059 2.09961,-0.92773 4.272461,-0.92773 1.196289,0 1.733399,0.0732 0.537109,0.0488 1.611328,0.21973 z"
         id="path1636" />
      <path
         d="m -42.94536,141.31441 h -4.589844 v -37.98828 h 4.589844 z"
         id="path1638" />
      <path
         d="m -28.931688,109.47847 h -5.175782 v -4.76074 h 5.175782 z m -0.292969,31.83594 h -4.589844 V 114.0439 h 4.589844 z"
         id="path1640" />
      <path
         d="m 19.652296,141.31441 h -4.589844 v -15.52735 q 0,-1.75781 -0.170898,-3.39355 -0.146484,-1.63574 -0.65918,-2.61231 -0.561523,-1.0498 -1.611328,-1.58691 -1.049805,-0.53711 -3.0273437,-0.53711 -1.9287109,0 -3.8574219,0.97656 -1.9287109,0.95215 -3.8574218,2.44141 0.073242,0.56152 0.1220703,1.31836 0.048828,0.73242 0.048828,1.46484 v 17.45606 h -4.5898437 v -15.52735 q 0,-1.80664 -0.1708985,-3.41797 -0.1464844,-1.63574 -0.6591797,-2.6123 -0.5615234,-1.0498 -1.6113281,-1.5625 -1.0498047,-0.53711 -3.0273437,-0.53711 -1.8798829,0 -3.7841793,0.92774 -1.879883,0.92773 -3.759766,2.36816 v 20.36133 h -4.589844 V 114.0439 h 4.589844 v 3.02734 q 2.148437,-1.78222 4.272461,-2.7832 2.1484374,-1.00098 4.5654296,-1.00098 2.7832031,0 4.711914,1.17188 1.95312503,1.17187 2.90527347,3.24707 2.78320313,-2.34375 5.07812503,-3.36914 2.2949218,-1.04981 4.9072269,-1.04981 4.492187,0 6.616211,2.73438 2.148437,2.70996 2.148437,7.59277 z"
         id="path1642" />
      <path
         d="m 33.421827,109.47847 h -5.175781 v -4.76074 h 5.175781 z m -0.292968,31.83594 H 28.539015 V 114.0439 h 4.589844 z"
         id="path1644" />
      <path
         d="m 56.371046,141.07027 q -1.293945,0.34179 -2.832031,0.56152 -1.513672,0.21973 -2.709961,0.21973 -4.174805,0 -6.347656,-2.2461 -2.172852,-2.24609 -2.172852,-7.20215 V 117.90132 H 39.20796 v -3.85742 h 3.100586 v -7.83691 h 4.589844 v 7.83691 h 9.472656 v 3.85742 H 46.89839 v 12.42676 q 0,2.14844 0.09766,3.36914 0.09766,1.19629 0.683594,2.24609 0.537109,0.97657 1.464844,1.44043 0.952148,0.43946 2.880859,0.43946 1.123047,0 2.34375,-0.31739 1.220703,-0.34179 1.757812,-0.56152 h 0.244141 z"
         id="path1646" />
      <path
         d="M 109.91109,122.22261 H 80.956007 v -3.90625 h 28.955083 z m 0,10.25391 H 80.956007 v -3.90625 h 28.955083 z"
         id="path1648" />
      <path
         d="m 162.84077,131.08492 h -5.39551 v 10.22949 h -4.6875 v -10.22949 h -17.40722 v -5.61524 l 17.60254,-20.50781 h 4.49218 v 22.2168 h 5.39551 z m -10.08301,-3.90625 v -16.40625 l -14.08691,16.40625 z"
         id="path1650" />
    </g>
    <g
       id="g727"
       transform="translate(0,-479.03601)">
      <path
         style="stroke:#000000;stroke-width:70"
         d="M -125,150 0,0 125,150"
         fill="none"
         stroke-linejoin="miter"
         id="path721" />
      <path
         style="stroke:#ffcccc;stroke-width:5"
         d="M -125,150 0,0 125,150"
         fill="none"
         id="path723" />
      <circle
         style="fill:#ffcccc;stroke:none"
         cx="0"
         cy="0"
         r="8"
         id="circle725" />
    </g>
    <g
       id="g735"
       transform="translate(0,-278.145)">
      <path
         style="stroke:#000000;stroke-width:70"
         d="M -48.446705,150 0,0 48.446705,150"
         fill="none"
         stroke-linejoin="miter"
         id="path729" />
      <path
         style="stroke:#ffcccc;stroke-width:5"
         d="M -48.446705,150 0,0 48.446705,150"
         fill="none"
         id="path731" />
      <circle
         style="fill:#ffcccc;stroke:none"
         cx="0"
         cy="0"
         r="8"
         id="circle733" />
    </g>
    <g
       id="g743"
       transform="translate(0,-87.889807)">
      <path
         style="stroke:#000000;stroke-width:70"
         d="M -27.4732,150 0,0 27.4732,150"
         fill="none"
         stroke-linejoin="miter"
         id="path737" />
      <path
         style="stroke:#ffcccc;stroke-width:5"
         d="M -27.4732,150 0,0 27.4732,150"
         fill="none"
         id="path739" />
      <circle
         style="fill:#ffcccc;stroke:none"
         cx="0"
         cy="0"
         r="8"
         id="circle741" />
    </g>
    <g
       id="g855"
       transform="translate(392.20456,-479.03601)">
      <path
         style="stroke:#000000;stroke-width:70;stroke-miterlimit:2"
         d="M -125,150 0,0 125,150"
         fill="none"
         stroke-linejoin="miter"
         id="path849" />
      <path
         style="stroke:#ffcccc;stroke-width:5"
         d="M -125,150 0,0 125,150"
         fill="none"
         id="path851" />
      <circle
         style="fill:#ffcccc;stroke:none"
         cx="0"
         cy="0"
         r="8"
         id="circle853" />
    </g>
    <g
       id="g863"
       transform="translate(392.20456,-278.145)">
      <path
         style="stroke:#000000;stroke-width:70;stroke-miterlimit:2"
         d="M -48.446705,150 0,0 48.446705,150"
         fill="none"
         stroke-linejoin="miter"
         id="path857" />
      <path
         style="stroke:#ffcccc;stroke-width:5"
         d="M -48.446705,150 0,0 48.446705,150"
         fill="none"
         id="path859" />
      <circle
         style="fill:#ffcccc;stroke:none"
         cx="0"
         cy="0"
         r="8"
         id="circle861" />
    </g>
    <g
       id="g871"
       transform="translate(392.20456,-87.889807)">
      <path
         style="stroke:#000000;stroke-width:70;stroke-miterlimit:2"
         d="M -27.4732,150 0,0 27.4732,150"
         fill="none"
         stroke-linejoin="miter"
         id="path865" />
      <path
         style="stroke:#ffcccc;stroke-width:5"
         d="M -27.4732,150 0,0 27.4732,150"
         fill="none"
         id="path867" />
      <circle
         style="fill:#ffcccc;stroke:none"
         cx="0"
         cy="0"
         r="8"
         id="circle869" />
    </g>
    <g
       id="g887"
       transform="translate(799.09056,-479.03601)">
      <path
         style="stroke:#000000;stroke-width:70;stroke-miterlimit:1"
         d="M -125,150 0,0 125,150"
         fill="none"
         stroke-linejoin="miter"
         id="path881" />
      <path
         style="stroke:#ffcccc;stroke-width:5"
         d="M -125,150 0,0 125,150"
         fill="none"
         id="path883" />
      <circle
         style="fill:#ffcccc;stroke:none"
         cx="0"
         cy="0"
         r="8"
         id="circle885" />
    </g>
    <g
       id="g895"
       transform="translate(799.09056,-278.145)">
      <path
         style="stroke:#000000;stroke-width:70;stroke-miterlimit:1"
         d="M -48.446705,150 0,0 48.446705,150"
         fill="none"
         stroke-linejoin="miter"
         id="path889" />
      <path
         style="stroke:#ffcccc;stroke-width:5"
         d="M -48.446705,150 0,0 48.446705,150"
         fill="none"
         id="path891" />
      <circle
         style="fill:#ffcccc;stroke:none"
         cx="0"
         cy="0"
         r="8"
         id="circle893" />
    </g>
    <g
       id="g903"
       transform="translate(799.09056,-87.889807)">
      <path
         style="stroke:#000000;stroke-width:70;stroke-miterlimit:1"
         d="M -27.4732,150 0,0 27.4732,150"
         fill="none"
         stroke-linejoin="miter"
         id="path897" />
      <path
         style="stroke:#ffcccc;stroke-width:5"
         d="M -27.4732,150 0,0 27.4732,150"
         fill="none"
         id="path899" />
      <circle
         style="fill:#ffcccc;stroke:none"
         cx="0"
         cy="0"
         r="8"
         id="circle901" />
    </g>
    <g
       aria-label="miterlimit = 2"
       id="text1459"
       style="font-size:50px;font-family:Verdana;text-anchor:middle">
      <path
         d="m 268.01553,141.31441 h -4.58984 v -15.52735 q 0,-1.75781 -0.1709,-3.39355 -0.14648,-1.63574 -0.65918,-2.61231 -0.56152,-1.0498 -1.61133,-1.58691 -1.0498,-0.53711 -3.02734,-0.53711 -1.92871,0 -3.85742,0.97656 -1.92871,0.95215 -3.85742,2.44141 0.0732,0.56152 0.12207,1.31836 0.0488,0.73242 0.0488,1.46484 v 17.45606 h -4.58984 v -15.52735 q 0,-1.80664 -0.1709,-3.41797 -0.14648,-1.63574 -0.65918,-2.6123 -0.56152,-1.0498 -1.61133,-1.5625 -1.0498,-0.53711 -3.02734,-0.53711 -1.87988,0 -3.78418,0.92774 -1.87988,0.92773 -3.75976,2.36816 v 20.36133 h -4.58985 V 114.0439 h 4.58985 v 3.02734 q 2.14843,-1.78222 4.27246,-2.7832 2.14843,-1.00098 4.56543,-1.00098 2.7832,0 4.71191,1.17188 1.95313,1.17187 2.90527,3.24707 2.78321,-2.34375 5.07813,-3.36914 2.29492,-1.04981 4.90723,-1.04981 4.49218,0 6.61621,2.73438 2.14843,2.70996 2.14843,7.59277 z"
         id="path1653" />
      <path
         d="m 281.78506,109.47847 h -5.17578 v -4.76074 h 5.17578 z m -0.29296,31.83594 h -4.58985 V 114.0439 h 4.58985 z"
         id="path1655" />
      <path
         d="m 304.73428,141.07027 q -1.29394,0.34179 -2.83203,0.56152 -1.51367,0.21973 -2.70996,0.21973 -4.1748,0 -6.34765,-2.2461 -2.17286,-2.24609 -2.17286,-7.20215 v -14.50195 h -3.10058 v -3.85742 h 3.10058 v -7.83691 h 4.58985 v 7.83691 h 9.47265 v 3.85742 h -9.47265 v 12.42676 q 0,2.14844 0.0976,3.36914 0.0977,1.19629 0.6836,2.24609 0.53711,0.97657 1.46484,1.44043 0.95215,0.43946 2.88086,0.43946 1.12305,0 2.34375,-0.31739 1.2207,-0.34179 1.75781,-0.56152 h 0.24414 z"
         id="path1657" />
      <path
         d="m 333.10342,128.15523 h -20.09277 q 0,2.51465 0.75684,4.39453 0.75683,1.85547 2.07519,3.05176 1.26953,1.17187 3.00293,1.75781 1.75781,0.58594 3.85742,0.58594 2.78321,0 5.59082,-1.09864 2.83204,-1.12304 4.02832,-2.19726 h 0.24414 v 5.00488 q -2.31933,0.97656 -4.73632,1.63574 -2.417,0.65918 -5.07813,0.65918 -6.78711,0 -10.5957,-3.66211 -3.8086,-3.68652 -3.8086,-10.44922 0,-6.68945 3.6377,-10.62011 3.66211,-3.93067 9.61914,-3.93067 5.51758,0 8.49609,3.22266 3.00293,3.22266 3.00293,9.15527 z m -4.46777,-3.51563 q -0.0244,-3.61328 -1.83105,-5.59082 -1.78223,-1.97754 -5.44434,-1.97754 -3.68652,0 -5.88379,2.17285 -2.17285,2.17286 -2.46582,5.39551 z"
         id="path1659" />
      <path
         d="m 357.07803,119.04878 h -0.24414 q -1.02539,-0.24414 -2.00195,-0.34179 -0.95215,-0.12207 -2.27051,-0.12207 -2.12402,0 -4.10156,0.95214 -1.97754,0.92774 -3.80859,2.417 v 19.36035 h -4.58985 V 114.0439 h 4.58985 v 4.02832 q 2.73437,-2.19727 4.80957,-3.10059 2.09961,-0.92773 4.27246,-0.92773 1.19629,0 1.7334,0.0732 0.5371,0.0488 1.61132,0.21973 z"
         id="path1661" />
      <path
         d="m 366.03799,141.31441 h -4.58984 v -37.98828 h 4.58984 z"
         id="path1663" />
      <path
         d="m 380.05167,109.47847 h -5.17578 v -4.76074 h 5.17578 z m -0.29297,31.83594 h -4.58985 V 114.0439 h 4.58985 z"
         id="path1665" />
      <path
         d="m 428.63565,141.31441 h -4.58984 v -15.52735 q 0,-1.75781 -0.1709,-3.39355 -0.14649,-1.63574 -0.65918,-2.61231 -0.56152,-1.0498 -1.61133,-1.58691 -1.0498,-0.53711 -3.02734,-0.53711 -1.92871,0 -3.85742,0.97656 -1.92872,0.95215 -3.85743,2.44141 0.0732,0.56152 0.12207,1.31836 0.0488,0.73242 0.0488,1.46484 v 17.45606 h -4.58984 v -15.52735 q 0,-1.80664 -0.1709,-3.41797 -0.14648,-1.63574 -0.65918,-2.6123 -0.56152,-1.0498 -1.61133,-1.5625 -1.0498,-0.53711 -3.02734,-0.53711 -1.87988,0 -3.78418,0.92774 -1.87988,0.92773 -3.75977,2.36816 v 20.36133 h -4.58984 V 114.0439 h 4.58984 v 3.02734 q 2.14844,-1.78222 4.27246,-2.7832 2.14844,-1.00098 4.56543,-1.00098 2.78321,0 4.71192,1.17188 1.95312,1.17187 2.90527,3.24707 2.7832,-2.34375 5.07813,-3.36914 2.29492,-1.04981 4.90722,-1.04981 4.49219,0 6.61621,2.73438 2.14844,2.70996 2.14844,7.59277 z"
         id="path1667" />
      <path
         d="m 442.40518,109.47847 h -5.17578 v -4.76074 h 5.17578 z m -0.29297,31.83594 h -4.58984 V 114.0439 h 4.58984 z"
         id="path1669" />
      <path
         d="m 465.3544,141.07027 q -1.29394,0.34179 -2.83203,0.56152 -1.51367,0.21973 -2.70996,0.21973 -4.17481,0 -6.34766,-2.2461 -2.17285,-2.24609 -2.17285,-7.20215 v -14.50195 h -3.10059 v -3.85742 h 3.10059 v -7.83691 h 4.58984 v 7.83691 h 9.47266 v 3.85742 h -9.47266 v 12.42676 q 0,2.14844 0.0977,3.36914 0.0977,1.19629 0.68359,2.24609 0.53711,0.97657 1.46485,1.44043 0.95215,0.43946 2.88086,0.43946 1.12304,0 2.34375,-0.31739 1.2207,-0.34179 1.75781,-0.56152 h 0.24414 z"
         id="path1671" />
      <path
         d="m 518.89444,122.22261 h -28.95508 v -3.90625 h 28.95508 z m 0,10.25391 h -28.95508 v -3.90625 h 28.95508 z"
         id="path1673" />
      <path
         d="m 570.99405,141.31441 h -24.60938 v -5.10254 q 2.56348,-2.19727 5.12696,-4.39453 2.58789,-2.19727 4.80957,-4.37012 4.6875,-4.54102 6.4209,-7.20215 1.73339,-2.68555 1.73339,-5.78613 0,-2.83203 -1.87988,-4.41895 -1.85547,-1.61132 -5.20019,-1.61132 -2.22168,0 -4.80957,0.78125 -2.58789,0.78125 -5.05371,2.39257 h -0.24415 v -5.12695 q 1.7334,-0.85449 4.61426,-1.5625 2.90528,-0.70801 5.61524,-0.70801 5.59082,0 8.76465,2.70996 3.17382,2.68555 3.17382,7.29981 0,2.07519 -0.53711,3.88183 -0.51269,1.78223 -1.53808,3.39356 -0.95215,1.51367 -2.2461,2.97851 -1.26953,1.46485 -3.10058,3.24707 -2.61231,2.56348 -5.39551,4.98047 -2.7832,2.39258 -5.20019,4.44336 h 19.55566 z"
         id="path1675" />
    </g>
    <g
       aria-label="miterlimit =1"
       id="text1461"
       style="font-size:50px;font-family:Verdana;text-anchor:middle">
      <path
         d="m 683.69061,141.31441 h -4.58984 v -15.52735 q 0,-1.75781 -0.1709,-3.39355 -0.14648,-1.63574 -0.65918,-2.61231 -0.56152,-1.0498 -1.61133,-1.58691 -1.0498,-0.53711 -3.02734,-0.53711 -1.92871,0 -3.85742,0.97656 -1.92871,0.95215 -3.85742,2.44141 0.0732,0.56152 0.12207,1.31836 0.0488,0.73242 0.0488,1.46484 v 17.45606 h -4.58984 v -15.52735 q 0,-1.80664 -0.1709,-3.41797 -0.14648,-1.63574 -0.65918,-2.6123 -0.56152,-1.0498 -1.61133,-1.5625 -1.0498,-0.53711 -3.02734,-0.53711 -1.87988,0 -3.78418,0.92774 -1.87988,0.92773 -3.75977,2.36816 v 20.36133 h -4.58984 V 114.0439 h 4.58984 v 3.02734 q 2.14844,-1.78222 4.27247,-2.7832 2.14843,-1.00098 4.56543,-1.00098 2.7832,0 4.71191,1.17188 1.95312,1.17187 2.90527,3.24707 2.78321,-2.34375 5.07813,-3.36914 2.29492,-1.04981 4.90722,-1.04981 4.49219,0 6.61622,2.73438 2.14843,2.70996 2.14843,7.59277 z"
         id="path1678" />
      <path
         d="m 697.46014,109.47847 h -5.17578 v -4.76074 h 5.17578 z m -0.29296,31.83594 h -4.58985 V 114.0439 h 4.58985 z"
         id="path1680" />
      <path
         d="m 720.40936,141.07027 q -1.29394,0.34179 -2.83203,0.56152 -1.51367,0.21973 -2.70996,0.21973 -4.1748,0 -6.34766,-2.2461 -2.17285,-2.24609 -2.17285,-7.20215 v -14.50195 h -3.10058 v -3.85742 h 3.10058 v -7.83691 h 4.58985 v 7.83691 h 9.47265 v 3.85742 h -9.47265 v 12.42676 q 0,2.14844 0.0977,3.36914 0.0977,1.19629 0.6836,2.24609 0.53711,0.97657 1.46484,1.44043 0.95215,0.43946 2.88086,0.43946 1.12305,0 2.34375,-0.31739 1.2207,-0.34179 1.75781,-0.56152 h 0.24414 z"
         id="path1682" />
      <path
         d="m 748.7785,128.15523 h -20.09277 q 0,2.51465 0.75684,4.39453 0.75683,1.85547 2.07519,3.05176 1.26953,1.17187 3.00293,1.75781 1.75781,0.58594 3.85742,0.58594 2.78321,0 5.59082,-1.09864 2.83203,-1.12304 4.02832,-2.19726 h 0.24414 v 5.00488 q -2.31933,0.97656 -4.73632,1.63574 -2.417,0.65918 -5.07813,0.65918 -6.78711,0 -10.5957,-3.66211 -3.8086,-3.68652 -3.8086,-10.44922 0,-6.68945 3.6377,-10.62011 3.66211,-3.93067 9.61914,-3.93067 5.51758,0 8.49609,3.22266 3.00293,3.22266 3.00293,9.15527 z m -4.46777,-3.51563 q -0.0244,-3.61328 -1.83105,-5.59082 -1.78223,-1.97754 -5.44434,-1.97754 -3.68652,0 -5.88379,2.17285 -2.17285,2.17286 -2.46582,5.39551 z"
         id="path1684" />
      <path
         d="m 772.75311,119.04878 h -0.24414 q -1.02539,-0.24414 -2.00195,-0.34179 -0.95215,-0.12207 -2.27051,-0.12207 -2.12402,0 -4.10156,0.95214 -1.97754,0.92774 -3.8086,2.417 v 19.36035 h -4.58984 V 114.0439 h 4.58984 v 4.02832 q 2.73438,-2.19727 4.80958,-3.10059 2.0996,-0.92773 4.27246,-0.92773 1.19629,0 1.73339,0.0732 0.53711,0.0488 1.61133,0.21973 z"
         id="path1686" />
      <path
         d="m 781.71307,141.31441 h -4.58984 v -37.98828 h 4.58984 z"
         id="path1688" />
      <path
         d="m 795.72675,109.47847 h -5.17579 v -4.76074 h 5.17579 z m -0.29297,31.83594 h -4.58985 V 114.0439 h 4.58985 z"
         id="path1690" />
      <path
         d="m 844.31073,141.31441 h -4.58984 v -15.52735 q 0,-1.75781 -0.1709,-3.39355 -0.14649,-1.63574 -0.65918,-2.61231 -0.56153,-1.0498 -1.61133,-1.58691 -1.0498,-0.53711 -3.02734,-0.53711 -1.92871,0 -3.85743,0.97656 -1.92871,0.95215 -3.85742,2.44141 0.0732,0.56152 0.12207,1.31836 0.0488,0.73242 0.0488,1.46484 v 17.45606 h -4.58984 v -15.52735 q 0,-1.80664 -0.1709,-3.41797 -0.14649,-1.63574 -0.65918,-2.6123 -0.56152,-1.0498 -1.61133,-1.5625 -1.0498,-0.53711 -3.02734,-0.53711 -1.87989,0 -3.78418,0.92774 -1.87989,0.92773 -3.75977,2.36816 v 20.36133 h -4.58984 V 114.0439 h 4.58984 v 3.02734 q 2.14844,-1.78222 4.27246,-2.7832 2.14844,-1.00098 4.56543,-1.00098 2.78321,0 4.71192,1.17188 1.95312,1.17187 2.90527,3.24707 2.7832,-2.34375 5.07812,-3.36914 2.29493,-1.04981 4.90723,-1.04981 4.49219,0 6.61621,2.73438 2.14844,2.70996 2.14844,7.59277 z"
         id="path1692" />
      <path
         d="m 858.08026,109.47847 h -5.17578 v -4.76074 h 5.17578 z m -0.29297,31.83594 h -4.58984 V 114.0439 h 4.58984 z"
         id="path1694" />
      <path
         d="m 881.02948,141.07027 q -1.29395,0.34179 -2.83203,0.56152 -1.51367,0.21973 -2.70996,0.21973 -4.17481,0 -6.34766,-2.2461 -2.17285,-2.24609 -2.17285,-7.20215 v -14.50195 h -3.10059 v -3.85742 h 3.10059 v -7.83691 h 4.58984 v 7.83691 h 9.47266 v 3.85742 h -9.47266 v 12.42676 q 0,2.14844 0.0977,3.36914 0.0977,1.19629 0.68359,2.24609 0.53711,0.97657 1.46485,1.44043 0.95215,0.43946 2.88086,0.43946 1.12304,0 2.34375,-0.31739 1.2207,-0.34179 1.75781,-0.56152 h 0.24414 z"
         id="path1696" />
      <path
         d="m 934.56952,122.22261 h -28.95508 v -3.90625 h 28.95508 z m 0,10.25391 h -28.95508 v -3.90625 h 28.95508 z"
         id="path1698" />
      <path
         d="m 967.01581,141.31441 h -19.67774 v -3.71094 h 7.56836 v -24.36523 h -7.56836 v -3.32032 q 1.53809,0 3.2959,-0.24414 1.75781,-0.26855 2.66113,-0.75683 1.12305,-0.61036 1.75782,-1.53809 0.65918,-0.95215 0.75683,-2.53906 h 3.78418 v 32.76367 h 7.42188 z"
         id="path1700" />
    </g>
  </g>
</svg>
