<?xml version="1.0" encoding="UTF-8" standalone="no"?>
<svg
   width="300px"
   height="100px"
   version="1.1"
   id="svg26"
   xmlns="http://www.w3.org/2000/svg"
   xmlns:svg="http://www.w3.org/2000/svg">
  <defs
     id="defs30" />
  <desc
     id="desc2">Example InitialCoords - SVG's initial coordinate system</desc>
  <g
     fill="none"
     stroke="black"
     stroke-width="3"
     id="g8">
    <line
       x1="0"
       y1="1.5"
       x2="300"
       y2="1.5"
       id="line4" />
    <line
       x1="1.5"
       y1="0"
       x2="1.5"
       y2="100"
       id="line6" />
  </g>
  <g
     fill="red"
     stroke="none"
     id="g16">
    <rect
       x="0"
       y="0"
       width="3"
       height="3"
       id="rect10" />
    <rect
       x="297"
       y="0"
       width="3"
       height="3"
       id="rect12" />
    <rect
       x="0"
       y="97"
       width="3"
       height="3"
       id="rect14" />
  </g>
  <g
     font-size="14"
     font-family="Verdana"
     id="g24">
    <g
       aria-label="(0,0)"
       id="text18">
      <path
         d="m 15.352539,22.816406 h -1.56543 q -1.209961,-1.387695 -1.879882,-3.02832 -0.669922,-1.640625 -0.669922,-3.698242 0,-2.057617 0.669922,-3.698242 0.669921,-1.640625 1.879882,-3.0283207 h 1.56543 v 0.068359 q -0.553711,0.4990235 -1.05957,1.1552734 -0.499024,0.649414 -0.929688,1.517578 -0.410156,0.840821 -0.669922,1.852539 -0.252929,1.011719 -0.252929,2.132813 0,1.168945 0.246093,2.139648 0.25293,0.970703 0.676758,1.845703 0.410157,0.840821 0.936524,1.517578 0.526367,0.683594 1.052734,1.155274 z"
         id="path424" />
      <path
         d="m 24.334961,14.907227 q 0,2.74121 -0.861328,4.026367 -0.854492,1.27832 -2.65918,1.27832 -1.832031,0 -2.679687,-1.298828 -0.840821,-1.298828 -0.840821,-3.992188 0,-2.713867 0.854492,-4.005859 0.854493,-1.2988281 2.666016,-1.2988281 1.832031,0 2.672852,1.3193361 0.847656,1.3125 0.847656,3.97168 z m -1.797852,3.103515 q 0.239258,-0.553711 0.321289,-1.298828 0.08887,-0.751953 0.08887,-1.804687 0,-1.039063 -0.08887,-1.804688 -0.08203,-0.765625 -0.328125,-1.298828 -0.239257,-0.526367 -0.65625,-0.792969 -0.410156,-0.266601 -1.05957,-0.266601 -0.642578,0 -1.066406,0.266601 -0.416992,0.266602 -0.663086,0.806641 -0.232422,0.505859 -0.321289,1.319336 -0.08203,0.813476 -0.08203,1.784179 0,1.066407 0.0752,1.78418 0.0752,0.717774 0.321289,1.285156 0.225586,0.533203 0.635742,0.813477 0.416992,0.280273 1.100586,0.280273 0.642578,0 1.066406,-0.266601 0.423828,-0.266602 0.65625,-0.806641 z"
         id="path426" />
      <path
         d="m 29.188477,18.051758 -1.927735,4.477539 h -0.998047 l 1.189453,-4.477539 z"
         id="path428" />
      <path
         d="m 38.328125,14.907227 q 0,2.74121 -0.861328,4.026367 -0.854492,1.27832 -2.65918,1.27832 -1.832031,0 -2.679687,-1.298828 -0.840821,-1.298828 -0.840821,-3.992188 0,-2.713867 0.854493,-4.005859 0.854492,-1.2988281 2.666015,-1.2988281 1.832031,0 2.672852,1.3193361 0.847656,1.3125 0.847656,3.97168 z m -1.797852,3.103515 q 0.239258,-0.553711 0.321289,-1.298828 0.08887,-0.751953 0.08887,-1.804687 0,-1.039063 -0.08887,-1.804688 -0.08203,-0.765625 -0.328125,-1.298828 -0.239257,-0.526367 -0.65625,-0.792969 -0.410156,-0.266601 -1.05957,-0.266601 -0.642578,0 -1.066406,0.266601 -0.416992,0.266602 -0.663086,0.806641 -0.232422,0.505859 -0.321289,1.319336 -0.08203,0.813476 -0.08203,1.784179 0,1.066407 0.0752,1.78418 0.0752,0.717774 0.321289,1.285156 0.225586,0.533203 0.635742,0.813477 0.416992,0.280273 1.100586,0.280273 0.642578,0 1.066406,-0.266601 0.423829,-0.266602 0.65625,-0.806641 z"
         id="path430" />
      <path
         d="m 44.371094,16.089844 q 0,2.057617 -0.669922,3.698242 -0.669922,1.640625 -1.879883,3.02832 h -1.56543 v -0.06836 q 0.526368,-0.47168 1.052735,-1.155274 0.533203,-0.676757 0.936523,-1.517578 0.423828,-0.875 0.669922,-1.845703 0.25293,-0.970703 0.25293,-2.139648 0,-1.121094 -0.25293,-2.132813 -0.25293,-1.011718 -0.669922,-1.852539 Q 41.814453,11.236328 41.308594,10.586914 40.80957,9.9306641 40.255859,9.4316406 v -0.068359 h 1.56543 q 1.209961,1.3876957 1.879883,3.0283207 0.669922,1.640625 0.669922,3.698242 z"
         id="path432" />
    </g>
    <g
       aria-label="(300,0)"
       id="text20">
      <path
         d="m 245.35254,22.816406 h -1.56543 q -1.20996,-1.387695 -1.87988,-3.02832 -0.66993,-1.640625 -0.66993,-3.698242 0,-2.057617 0.66993,-3.698242 0.66992,-1.640625 1.87988,-3.0283207 h 1.56543 v 0.068359 q -0.55371,0.4990235 -1.05957,1.1552734 -0.49902,0.649414 -0.92969,1.517578 -0.41016,0.840821 -0.66992,1.852539 -0.25293,1.011719 -0.25293,2.132813 0,1.168945 0.24609,2.139648 0.25293,0.970703 0.67676,1.845703 0.41016,0.840821 0.93652,1.517578 0.52637,0.683594 1.05274,1.155274 z"
         id="path435" />
      <path
         d="m 253.45312,15.098633 q 0.32813,0.293945 0.54004,0.738281 0.21192,0.444336 0.21192,1.148438 0,0.697265 -0.25293,1.27832 -0.25293,0.581055 -0.71094,1.011719 -0.51269,0.478515 -1.20996,0.710937 -0.69043,0.225586 -1.51758,0.225586 -0.84765,0 -1.66797,-0.205078 -0.82031,-0.198242 -1.34668,-0.4375 v -1.428711 h 0.10254 q 0.58106,0.382812 1.36719,0.635742 0.78613,0.25293 1.51758,0.25293 0.43066,0 0.91601,-0.143555 0.48536,-0.143555 0.78614,-0.423828 0.31445,-0.300781 0.46484,-0.663086 0.15723,-0.362305 0.15723,-0.916016 0,-0.546875 -0.17774,-0.902343 -0.1709,-0.362305 -0.47851,-0.567383 -0.30762,-0.211914 -0.74512,-0.287109 -0.4375,-0.08203 -0.94336,-0.08203 h -0.61523 V 13.90918 h 0.47851 q 1.03906,0 1.6543,-0.430664 0.62207,-0.4375 0.62207,-1.271485 0,-0.36914 -0.15723,-0.642578 -0.15722,-0.280273 -0.4375,-0.458008 -0.29394,-0.177734 -0.6289,-0.246093 -0.33497,-0.06836 -0.75879,-0.06836 -0.64942,0 -1.38086,0.232422 -0.73145,0.232422 -1.38086,0.65625 h -0.0684 v -1.428711 q 0.48535,-0.239258 1.29199,-0.4374999 0.81348,-0.2050781 1.57227,-0.2050781 0.74511,0 1.3125,0.1367188 0.56738,0.1367187 1.02539,0.4375002 0.49218,0.328125 0.74511,0.792969 0.25293,0.464843 0.25293,1.086914 0,0.847656 -0.60156,1.483398 -0.59473,0.628906 -1.4082,0.792969 v 0.0957 q 0.32812,0.05469 0.75195,0.232422 0.42383,0.170898 0.71777,0.430664 z"
         id="path437" />
      <path
         d="m 263.23535,14.907227 q 0,2.74121 -0.86133,4.026367 -0.85449,1.27832 -2.65918,1.27832 -1.83203,0 -2.67968,-1.298828 -0.84082,-1.298828 -0.84082,-3.992188 0,-2.713867 0.85449,-4.005859 0.85449,-1.2988281 2.66601,-1.2988281 1.83203,0 2.67286,1.3193361 0.84765,1.3125 0.84765,3.97168 z m -1.79785,3.103515 q 0.23926,-0.553711 0.32129,-1.298828 0.0889,-0.751953 0.0889,-1.804687 0,-1.039063 -0.0889,-1.804688 -0.082,-0.765625 -0.32813,-1.298828 -0.23925,-0.526367 -0.65625,-0.792969 -0.41015,-0.266601 -1.05957,-0.266601 -0.64257,0 -1.0664,0.266601 -0.41699,0.266602 -0.66309,0.806641 -0.23242,0.505859 -0.32129,1.319336 -0.082,0.813476 -0.082,1.784179 0,1.066407 0.0752,1.78418 0.0752,0.717774 0.32129,1.285156 0.22558,0.533203 0.63574,0.813477 0.41699,0.280273 1.10058,0.280273 0.64258,0 1.06641,-0.266601 0.42383,-0.266602 0.65625,-0.806641 z"
         id="path439" />
      <path
         d="m 272.13574,14.907227 q 0,2.74121 -0.86133,4.026367 -0.85449,1.27832 -2.65918,1.27832 -1.83203,0 -2.67968,-1.298828 -0.84082,-1.298828 -0.84082,-3.992188 0,-2.713867 0.85449,-4.005859 0.85449,-1.2988281 2.66601,-1.2988281 1.83204,0 2.67286,1.3193361 0.84765,1.3125 0.84765,3.97168 z m -1.79785,3.103515 q 0.23926,-0.553711 0.32129,-1.298828 0.0889,-0.751953 0.0889,-1.804687 0,-1.039063 -0.0889,-1.804688 -0.082,-0.765625 -0.32813,-1.298828 -0.23925,-0.526367 -0.65625,-0.792969 -0.41015,-0.266601 -1.05957,-0.266601 -0.64257,0 -1.0664,0.266601 -0.41699,0.266602 -0.66309,0.806641 -0.23242,0.505859 -0.32129,1.319336 -0.082,0.813476 -0.082,1.784179 0,1.066407 0.0752,1.78418 0.0752,0.717774 0.32129,1.285156 0.22558,0.533203 0.63574,0.813477 0.41699,0.280273 1.10058,0.280273 0.64258,0 1.06641,-0.266601 0.42383,-0.266602 0.65625,-0.806641 z"
         id="path441" />
      <path
         d="m 276.98926,18.051758 -1.92774,4.477539 h -0.99804 l 1.18945,-4.477539 z"
         id="path443" />
      <path
         d="m 286.12891,14.907227 q 0,2.74121 -0.86133,4.026367 -0.85449,1.27832 -2.65918,1.27832 -1.83203,0 -2.67969,-1.298828 -0.84082,-1.298828 -0.84082,-3.992188 0,-2.713867 0.85449,-4.005859 0.85449,-1.2988281 2.66602,-1.2988281 1.83203,0 2.67285,1.3193361 0.84766,1.3125 0.84766,3.97168 z m -1.79786,3.103515 q 0.23926,-0.553711 0.32129,-1.298828 0.0889,-0.751953 0.0889,-1.804687 0,-1.039063 -0.0889,-1.804688 -0.082,-0.765625 -0.32812,-1.298828 -0.23926,-0.526367 -0.65625,-0.792969 -0.41016,-0.266601 -1.05957,-0.266601 -0.64258,0 -1.06641,0.266601 -0.41699,0.266602 -0.66308,0.806641 -0.23243,0.505859 -0.32129,1.319336 -0.082,0.813476 -0.082,1.784179 0,1.066407 0.0752,1.78418 0.0752,0.717774 0.32129,1.285156 0.22559,0.533203 0.63574,0.813477 0.41699,0.280273 1.10059,0.280273 0.64258,0 1.0664,-0.266601 0.42383,-0.266602 0.65625,-0.806641 z"
         id="path445" />
      <path
         d="m 292.17187,16.089844 q 0,2.057617 -0.66992,3.698242 -0.66992,1.640625 -1.87988,3.02832 h -1.56543 v -0.06836 q 0.52637,-0.47168 1.05273,-1.155274 0.53321,-0.676757 0.93653,-1.517578 0.42383,-0.875 0.66992,-1.845703 0.25293,-0.970703 0.25293,-2.139648 0,-1.121094 -0.25293,-2.132813 -0.25293,-1.011718 -0.66992,-1.852539 -0.43067,-0.868164 -0.93653,-1.517578 -0.49902,-0.6562499 -1.05273,-1.1552734 v -0.068359 h 1.56543 q 1.20996,1.3876957 1.87988,3.0283207 0.66992,1.640625 0.66992,3.698242 z"
         id="path447" />
    </g>
    <g
       aria-label="(0,100)"
       id="text22">
      <path
         d="m 15.352539,92.816406 h -1.56543 q -1.209961,-1.387695 -1.879882,-3.02832 -0.669922,-1.640625 -0.669922,-3.698242 0,-2.057617 0.669922,-3.698242 0.669921,-1.640625 1.879882,-3.028321 h 1.56543 v 0.06836 q -0.553711,0.499023 -1.05957,1.155273 -0.499024,0.649414 -0.929688,1.517578 -0.410156,0.84082 -0.669922,1.852539 -0.252929,1.011719 -0.252929,2.132813 0,1.168945 0.246093,2.139648 0.25293,0.970703 0.676758,1.845703 0.410157,0.840821 0.936524,1.517578 0.526367,0.683594 1.052734,1.155274 z"
         id="path313" />
      <path
         d="m 24.334961,84.907227 q 0,2.74121 -0.861328,4.026367 -0.854492,1.27832 -2.65918,1.27832 -1.832031,0 -2.679687,-1.298828 -0.840821,-1.298828 -0.840821,-3.992188 0,-2.713867 0.854492,-4.005859 0.854493,-1.298828 2.666016,-1.298828 1.832031,0 2.672852,1.319336 0.847656,1.3125 0.847656,3.97168 z m -1.797852,3.103515 q 0.239258,-0.553711 0.321289,-1.298828 0.08887,-0.751953 0.08887,-1.804687 0,-1.039063 -0.08887,-1.804688 -0.08203,-0.765625 -0.328125,-1.298828 -0.239257,-0.526367 -0.65625,-0.792969 -0.410156,-0.266601 -1.05957,-0.266601 -0.642578,0 -1.066406,0.266601 -0.416992,0.266602 -0.663086,0.806641 -0.232422,0.505859 -0.321289,1.319336 -0.08203,0.813476 -0.08203,1.784179 0,1.066407 0.0752,1.78418 0.0752,0.717774 0.321289,1.285156 0.225586,0.533203 0.635742,0.813477 0.416992,0.280273 1.100586,0.280273 0.642578,0 1.066406,-0.266601 0.423828,-0.266602 0.65625,-0.806641 z"
         id="path315" />
      <path
         d="m 29.188477,88.051758 -1.927735,4.477539 h -0.998047 l 1.189453,-4.477539 z"
         id="path317" />
      <path
         d="m 37.760742,90 h -5.509765 v -1.039063 h 2.11914 v -6.822265 h -2.11914 v -0.929688 q 0.430664,0 0.922851,-0.06836 0.492188,-0.07519 0.745117,-0.211914 0.314453,-0.170899 0.492188,-0.430664 0.18457,-0.266602 0.211914,-0.710938 h 1.05957 v 9.173828 h 2.078125 z"
         id="path319" />
      <path
         d="m 47.228516,84.907227 q 0,2.74121 -0.861329,4.026367 -0.854492,1.27832 -2.659179,1.27832 -1.832031,0 -2.679688,-1.298828 -0.84082,-1.298828 -0.84082,-3.992188 0,-2.713867 0.854492,-4.005859 0.854492,-1.298828 2.666016,-1.298828 1.832031,0 2.672851,1.319336 0.847657,1.3125 0.847657,3.97168 z m -1.797852,3.103515 q 0.239258,-0.553711 0.321289,-1.298828 0.08887,-0.751953 0.08887,-1.804687 0,-1.039063 -0.08887,-1.804688 -0.08203,-0.765625 -0.328125,-1.298828 -0.239258,-0.526367 -0.65625,-0.792969 -0.410156,-0.266601 -1.05957,-0.266601 -0.642578,0 -1.066406,0.266601 -0.416993,0.266602 -0.663086,0.806641 -0.232422,0.505859 -0.321289,1.319336 -0.08203,0.813476 -0.08203,1.784179 0,1.066407 0.0752,1.78418 0.0752,0.717774 0.321289,1.285156 0.225586,0.533203 0.635742,0.813477 0.416992,0.280273 1.100586,0.280273 0.642578,0 1.066406,-0.266601 0.423828,-0.266602 0.65625,-0.806641 z"
         id="path321" />
      <path
         d="m 56.128906,84.907227 q 0,2.74121 -0.861328,4.026367 -0.854492,1.27832 -2.65918,1.27832 -1.832031,0 -2.679687,-1.298828 -0.84082,-1.298828 -0.84082,-3.992188 0,-2.713867 0.854492,-4.005859 0.854492,-1.298828 2.666015,-1.298828 1.832032,0 2.672852,1.319336 0.847656,1.3125 0.847656,3.97168 z m -1.797851,3.103515 q 0.239257,-0.553711 0.321289,-1.298828 0.08887,-0.751953 0.08887,-1.804687 0,-1.039063 -0.08887,-1.804688 -0.08203,-0.765625 -0.328125,-1.298828 -0.239258,-0.526367 -0.65625,-0.792969 -0.410157,-0.266601 -1.059571,-0.266601 -0.642578,0 -1.066406,0.266601 -0.416992,0.266602 -0.663086,0.806641 -0.232422,0.505859 -0.321289,1.319336 -0.08203,0.813476 -0.08203,1.784179 0,1.066407 0.0752,1.78418 0.0752,0.717774 0.321289,1.285156 0.225586,0.533203 0.635742,0.813477 0.416993,0.280273 1.100586,0.280273 0.642579,0 1.066407,-0.266601 0.423828,-0.266602 0.65625,-0.806641 z"
         id="path323" />
      <path
         d="m 62.171875,86.089844 q 0,2.057617 -0.669922,3.698242 -0.669922,1.640625 -1.879883,3.02832 h -1.565429 v -0.06836 q 0.526367,-0.47168 1.052734,-1.155274 0.533203,-0.676757 0.936523,-1.517578 0.423829,-0.875 0.669922,-1.845703 0.25293,-0.970703 0.25293,-2.139648 0,-1.121094 -0.25293,-2.132813 -0.252929,-1.011719 -0.669922,-1.852539 -0.430664,-0.868164 -0.936523,-1.517578 -0.499023,-0.65625 -1.052734,-1.155273 v -0.06836 h 1.565429 q 1.209961,1.387696 1.879883,3.028321 0.669922,1.640625 0.669922,3.698242 z"
         id="path325" />
    </g>
  </g>
</svg>
