<?xml version="1.0" encoding="UTF-8" standalone="no"?>
<svg
   width="400px"
   height="150px"
   version="1.1"
   id="svg538"
   xmlns="http://www.w3.org/2000/svg"
   xmlns:svg="http://www.w3.org/2000/svg">
  <defs
     id="defs542" />
  <desc
     id="desc500">Example Nested - Nested transformations</desc>
  <g
     fill="none"
     stroke="black"
     stroke-width="3"
     id="g506">
    <!-- Draw the axes of the original coordinate system -->
    <line
       x1="0"
       y1="1.5"
       x2="400"
       y2="1.5"
       id="line502" />
    <line
       x1="1.5"
       y1="0"
       x2="1.5"
       y2="150"
       id="line504" />
  </g>
  <!-- First, a translate -->
  <g
     transform="translate(50,90)"
     id="g536">
    <g
       fill="none"
       stroke="red"
       stroke-width="3"
       id="g512">
      <line
         x1="0"
         y1="0"
         x2="50"
         y2="0"
         id="line508" />
      <line
         x1="0"
         y1="0"
         x2="0"
         y2="50"
         id="line510" />
    </g>
    <g
       aria-label="....Translate(1)"
       id="text514"
       style="font-size:16px;font-family:Verdana">
      <path
         d="M 3.84375,0 H 1.9765625 V -2.2265625 H 3.84375 Z"
         id="path790" />
      <path
         d="M 9.6640625,0 H 7.796875 v -2.2265625 h 1.8671875 z"
         id="path792" />
      <path
         d="m 15.484375,0 h -1.867187 v -2.2265625 h 1.867187 z"
         id="path794" />
      <path
         d="M 21.304687,0 H 19.4375 v -2.2265625 h 1.867187 z"
         id="path796" />
      <path
         d="m 33.140625,-10.257813 h -4.15625 V 0 H 27.4375 v -10.257813 h -4.15625 v -1.375 h 9.859375 z"
         id="path798" />
      <path
         d="m 38.46875,-7.125 h -0.07813 Q 38.0625,-7.203125 37.75,-7.234375 q -0.304688,-0.039063 -0.726563,-0.039063 -0.679687,0 -1.3125,0.3046875 -0.632812,0.296875 -1.21875,0.7734375 V 0 h -1.46875 v -8.7265625 h 1.46875 V -7.4375 q 0.875,-0.703125 1.539063,-0.9921875 0.671875,-0.296875 1.367187,-0.296875 0.382813,0 0.554688,0.023437 0.171875,0.015625 0.515625,0.070312 z"
         id="path800" />
      <path
         d="m 46.351562,0 h -1.460937 v -0.9296875 q -0.195313,0.1328125 -0.53125,0.375 -0.328125,0.234375 -0.640625,0.375 Q 43.351562,0 42.875,0.1171875 q -0.476563,0.125 -1.117188,0.125 -1.179687,0 -2,-0.78125 -0.820312,-0.78125 -0.820312,-1.9921875 0,-0.9921875 0.421875,-1.6015625 0.429687,-0.6171875 1.21875,-0.96875 0.796875,-0.3515625 1.914062,-0.4765625 1.117188,-0.125 2.398438,-0.1875 v -0.2265625 q 0,-0.5 -0.179688,-0.828125 -0.171875,-0.328125 -0.5,-0.515625 -0.3125,-0.1796875 -0.75,-0.2421875 -0.4375,-0.0625 -0.914062,-0.0625 -0.578125,0 -1.289063,0.15625 -0.710937,0.1484375 -1.46875,0.4375 h -0.07813 v -1.4921875 q 0.429688,-0.1171875 1.242188,-0.2578125 0.8125,-0.140625 1.601562,-0.140625 0.921875,0 1.601563,0.15625 0.6875,0.1484375 1.1875,0.515625 0.492187,0.359375 0.75,0.9296875 0.257812,0.5703125 0.257812,1.4140625 z M 44.890625,-2.1484375 V -4.578125 q -0.671875,0.039063 -1.585938,0.1171875 -0.90625,0.078125 -1.4375,0.2265625 -0.632812,0.1796875 -1.023437,0.5625 -0.390625,0.375 -0.390625,1.0390625 0,0.75 0.453125,1.1328125 0.453125,0.375 1.382812,0.375 0.773438,0 1.414063,-0.296875 0.640625,-0.3046875 1.1875,-0.7265625 z"
         id="path802" />
      <path
         d="m 56.476562,0 h -1.46875 v -4.96875 q 0,-0.6015625 -0.07031,-1.125 Q 54.867187,-6.625 54.679687,-6.921875 54.484375,-7.25 54.117187,-7.40625 53.75,-7.5703125 53.164062,-7.5703125 q -0.601562,0 -1.257812,0.296875 -0.65625,0.296875 -1.257813,0.7578125 V 0 h -1.46875 v -8.7265625 h 1.46875 v 0.96875 q 0.6875,-0.5703125 1.421875,-0.890625 0.734375,-0.3203125 1.507813,-0.3203125 1.414062,0 2.15625,0.8515625 0.742187,0.8515625 0.742187,2.453125 z"
         id="path804" />
      <path
         d="m 65.539062,-2.515625 q 0,1.1953125 -0.992187,1.9609375 -0.984375,0.765625 -2.695313,0.765625 -0.96875,0 -1.78125,-0.2265625 Q 59.265625,-0.25 58.71875,-0.5234375 V -2.171875 h 0.07813 q 0.695312,0.5234375 1.546875,0.8359375 0.851562,0.3046875 1.632812,0.3046875 0.96875,0 1.515625,-0.3125 0.546875,-0.3125 0.546875,-0.984375 0,-0.515625 -0.296875,-0.78125 Q 63.445312,-3.375 62.601562,-3.5625 q -0.3125,-0.070312 -0.820312,-0.1640625 -0.5,-0.09375 -0.914063,-0.203125 -1.148437,-0.3046875 -1.632812,-0.890625 -0.476563,-0.59375 -0.476563,-1.453125 0,-0.5390625 0.21875,-1.015625 0.226563,-0.4765625 0.679688,-0.8515625 0.4375,-0.3671875 1.109375,-0.578125 0.679687,-0.21875 1.515625,-0.21875 0.78125,0 1.578125,0.1953125 0.804687,0.1875 1.335937,0.4609375 v 1.5703125 h -0.07813 Q 64.554687,-7.125 63.75,-7.40625 q -0.804688,-0.2890625 -1.578125,-0.2890625 -0.804688,0 -1.359375,0.3125 -0.554688,0.3046875 -0.554688,0.9140625 0,0.5390625 0.335938,0.8125 0.328125,0.2734375 1.0625,0.4453125 0.40625,0.09375 0.90625,0.1875 0.507812,0.09375 0.84375,0.171875 1.023437,0.234375 1.578125,0.8046875 0.554687,0.578125 0.554687,1.53125 z"
         id="path806" />
      <path
         d="M 69.125,0 H 67.65625 V -12.15625 H 69.125 Z"
         id="path808" />
      <path
         d="m 78.8125,0 h -1.460938 v -0.9296875 q -0.195312,0.1328125 -0.53125,0.375 -0.328125,0.234375 -0.640625,0.375 Q 75.8125,0 75.335937,0.1171875 q -0.476562,0.125 -1.117187,0.125 -1.179688,0 -2,-0.78125 -0.820313,-0.78125 -0.820313,-1.9921875 0,-0.9921875 0.421875,-1.6015625 0.429688,-0.6171875 1.21875,-0.96875 0.796875,-0.3515625 1.914063,-0.4765625 1.117187,-0.125 2.398437,-0.1875 v -0.2265625 q 0,-0.5 -0.179687,-0.828125 -0.171875,-0.328125 -0.5,-0.515625 -0.3125,-0.1796875 -0.75,-0.2421875 -0.4375,-0.0625 -0.914063,-0.0625 -0.578125,0 -1.289062,0.15625 -0.710938,0.1484375 -1.46875,0.4375 h -0.07813 v -1.4921875 q 0.429687,-0.1171875 1.242187,-0.2578125 0.8125,-0.140625 1.601563,-0.140625 0.921875,0 1.601562,0.15625 0.6875,0.1484375 1.1875,0.515625 0.492188,0.359375 0.75,0.9296875 Q 78.8125,-6.765625 78.8125,-5.921875 Z M 77.351562,-2.1484375 V -4.578125 q -0.671875,0.039063 -1.585937,0.1171875 -0.90625,0.078125 -1.4375,0.2265625 -0.632813,0.1796875 -1.023438,0.5625 -0.390625,0.375 -0.390625,1.0390625 0,0.75 0.453125,1.1328125 0.453125,0.375 1.382813,0.375 0.773437,0 1.414062,-0.296875 0.640625,-0.3046875 1.1875,-0.7265625 z"
         id="path810" />
      <path
         d="M 86.171875,-0.078125 Q 85.757812,0.03125 85.265625,0.1015625 84.78125,0.171875 84.398437,0.171875 q -1.335937,0 -2.03125,-0.71875 -0.695312,-0.71875 -0.695312,-2.3046875 v -4.640625 h -0.992188 v -1.234375 h 0.992188 v -2.5078125 h 1.46875 v 2.5078125 h 3.03125 v 1.234375 h -3.03125 v 3.9765625 q 0,0.6875 0.03125,1.078125 0.03125,0.3828125 0.21875,0.71875 0.171875,0.3125 0.46875,0.4609375 0.304687,0.140625 0.921875,0.140625 0.359375,0 0.75,-0.1015625 0.390625,-0.109375 0.5625,-0.1796875 h 0.07813 z"
         id="path812" />
      <path
         d="m 95.25,-4.2109375 h -6.429688 q 0,0.8046875 0.242188,1.40625 0.242187,0.59375 0.664062,0.9765625 0.40625,0.375 0.960938,0.5625 0.5625,0.1875 1.234375,0.1875 0.890625,0 1.789062,-0.3515625 0.90625,-0.359375 1.289063,-0.703125 h 0.07813 V -0.53125 q -0.742188,0.3125 -1.515625,0.5234375 -0.773438,0.2109375 -1.625,0.2109375 -2.171875,0 -3.390625,-1.171875 -1.21875,-1.1796875 -1.21875,-3.34375 0,-2.140625 1.164062,-3.3984375 1.171875,-1.2578125 3.078125,-1.2578125 1.765625,0 2.71875,1.03125 Q 95.25,-6.90625 95.25,-5.0078125 Z m -1.429688,-1.125 q -0.0078,-1.15625 -0.585937,-1.7890625 -0.570313,-0.6328125 -1.742188,-0.6328125 -1.179687,0 -1.882812,0.6953125 -0.695313,0.6953125 -0.789063,1.7265625 z"
         id="path814" />
      <path
         d="m 102.14844,3.21875 h -1.78906 q -1.382818,-1.5859375 -2.148443,-3.4609375 -0.765625,-1.875 -0.765625,-4.2265625 0,-2.3515625 0.765625,-4.2265625 0.765625,-1.8750005 2.148443,-3.4609375 h 1.78906 v 0.07813 q -0.63281,0.570312 -1.21094,1.320312 -0.57031,0.742188 -1.0625,1.7343755 -0.46875,0.9609375 -0.765625,2.1171875 -0.289063,1.15625 -0.289063,2.4375 0,1.3359375 0.28125,2.4453125 0.289063,1.109375 0.773438,2.109375 0.46875,0.9609375 1.07031,1.734375 0.60157,0.78125 1.20313,1.3203125 z"
         id="path816" />
      <path
         d="m 111.76563,0 h -6.29688 v -1.1875 h 2.42188 v -7.796875 h -2.42188 v -1.0625 q 0.49219,0 1.05469,-0.07813 0.5625,-0.08594 0.85156,-0.242188 0.35938,-0.195312 0.5625,-0.492187 0.21094,-0.304688 0.24219,-0.8125 h 1.21094 V -1.1875 h 2.375 z"
         id="path818" />
      <path
         d="m 119.32031,-4.46875 q 0,2.3515625 -0.76562,4.2265625 -0.76563,1.875 -2.14844,3.4609375 h -1.78906 V 3.140625 q 0.60156,-0.5390625 1.20312,-1.3203125 0.60938,-0.7734375 1.07032,-1.734375 0.48437,-1 0.76562,-2.109375 0.28906,-1.109375 0.28906,-2.4453125 0,-1.28125 -0.28906,-2.4375 -0.28906,-1.15625 -0.76562,-2.1171875 -0.49219,-0.9921875 -1.07032,-1.7343755 -0.57031,-0.75 -1.20312,-1.320312 v -0.07813 h 1.78906 q 1.38281,1.585937 2.14844,3.4609375 0.76562,1.875 0.76562,4.2265625 z"
         id="path820" />
    </g>
    <!-- Second, a rotate -->
    <g
       transform="rotate(-45)"
       id="g534">
      <g
         fill="none"
         stroke="green"
         stroke-width="3"
         id="g520">
        <line
           x1="0"
           y1="0"
           x2="50"
           y2="0"
           id="line516" />
        <line
           x1="0"
           y1="0"
           x2="0"
           y2="50"
           id="line518" />
      </g>
      <g
         aria-label="....Rotate(2)"
         id="text522"
         style="font-size:16px;font-family:Verdana">
        <path
           d="M 3.84375,0 H 1.9765625 V -2.2265625 H 3.84375 Z"
           id="path763" />
        <path
           d="M 9.6640625,0 H 7.796875 v -2.2265625 h 1.8671875 z"
           id="path765" />
        <path
           d="m 15.484375,0 h -1.867187 v -2.2265625 h 1.867187 z"
           id="path767" />
        <path
           d="M 21.304687,0 H 19.4375 v -2.2265625 h 1.867187 z"
           id="path769" />
        <path
           d="M 34.46875,0 H 32.460937 L 28.570312,-4.625 H 26.390625 V 0 H 24.84375 v -11.632813 h 3.257812 q 1.054688,0 1.757813,0.140625 0.703125,0.132813 1.265625,0.484375 0.632812,0.398438 0.984375,1.007813 0.359375,0.6015625 0.359375,1.53125 0,1.2578125 -0.632813,2.109375 -0.632812,0.84375 -1.742187,1.2734375 z m -3.617188,-8.359375 q 0,-0.5 -0.179687,-0.8828125 Q 30.5,-9.6328125 30.09375,-9.8984375 29.757812,-10.125 29.296875,-10.210938 q -0.460938,-0.09375 -1.085938,-0.09375 h -1.820312 v 4.3906255 h 1.5625 q 0.734375,0 1.28125,-0.125 0.546875,-0.1328125 0.929687,-0.484375 0.351563,-0.328125 0.515625,-0.75 0.171875,-0.4296875 0.171875,-1.0859375 z"
           id="path771" />
        <path
           d="m 42.898437,-4.359375 q 0,2.1328125 -1.09375,3.3671875 -1.09375,1.234375 -2.929687,1.234375 -1.851563,0 -2.945313,-1.234375 -1.085937,-1.234375 -1.085937,-3.3671875 0,-2.1328125 1.085937,-3.3671875 1.09375,-1.2421875 2.945313,-1.2421875 1.835937,0 2.929687,1.2421875 1.09375,1.234375 1.09375,3.3671875 z m -1.515625,0 q 0,-1.6953125 -0.664062,-2.515625 -0.664063,-0.828125 -1.84375,-0.828125 -1.195313,0 -1.859375,0.828125 -0.65625,0.8203125 -0.65625,2.515625 0,1.640625 0.664062,2.4921875 0.664063,0.84375 1.851563,0.84375 1.171875,0 1.835937,-0.8359375 0.671875,-0.84375 0.671875,-2.5 z"
           id="path773" />
        <path
           d="M 49.703125,-0.078125 Q 49.289062,0.03125 48.796875,0.1015625 48.3125,0.171875 47.929687,0.171875 q -1.335937,0 -2.03125,-0.71875 -0.695312,-0.71875 -0.695312,-2.3046875 v -4.640625 h -0.992188 v -1.234375 h 0.992188 v -2.5078125 h 1.46875 v 2.5078125 h 3.03125 v 1.234375 h -3.03125 v 3.9765625 q 0,0.6875 0.03125,1.078125 0.03125,0.3828125 0.21875,0.71875 0.171875,0.3125 0.46875,0.4609375 0.304687,0.140625 0.921875,0.140625 0.359375,0 0.75,-0.1015625 0.390625,-0.109375 0.5625,-0.1796875 h 0.07813 z"
           id="path775" />
        <path
           d="m 58.257812,0 h -1.460937 v -0.9296875 q -0.195313,0.1328125 -0.53125,0.375 -0.328125,0.234375 -0.640625,0.375 Q 55.257812,0 54.78125,0.1171875 q -0.476563,0.125 -1.117188,0.125 -1.179687,0 -2,-0.78125 -0.820312,-0.78125 -0.820312,-1.9921875 0,-0.9921875 0.421875,-1.6015625 0.429687,-0.6171875 1.21875,-0.96875 0.796875,-0.3515625 1.914062,-0.4765625 1.117188,-0.125 2.398438,-0.1875 v -0.2265625 q 0,-0.5 -0.179688,-0.828125 -0.171875,-0.328125 -0.5,-0.515625 -0.3125,-0.1796875 -0.75,-0.2421875 -0.4375,-0.0625 -0.914062,-0.0625 -0.578125,0 -1.289063,0.15625 -0.710937,0.1484375 -1.46875,0.4375 h -0.07813 v -1.4921875 q 0.429688,-0.1171875 1.242188,-0.2578125 0.8125,-0.140625 1.601562,-0.140625 0.921875,0 1.601563,0.15625 0.6875,0.1484375 1.1875,0.515625 0.492187,0.359375 0.75,0.9296875 0.257812,0.5703125 0.257812,1.4140625 z M 56.796875,-2.1484375 V -4.578125 q -0.671875,0.039063 -1.585938,0.1171875 -0.90625,0.078125 -1.4375,0.2265625 -0.632812,0.1796875 -1.023437,0.5625 -0.390625,0.375 -0.390625,1.0390625 0,0.75 0.453125,1.1328125 0.453125,0.375 1.382812,0.375 0.773438,0 1.414063,-0.296875 0.640625,-0.3046875 1.1875,-0.7265625 z"
           id="path777" />
        <path
           d="M 65.617187,-0.078125 Q 65.203125,0.03125 64.710937,0.1015625 64.226562,0.171875 63.84375,0.171875 q -1.335938,0 -2.03125,-0.71875 -0.695313,-0.71875 -0.695313,-2.3046875 v -4.640625 H 60.125 v -1.234375 h 0.992187 v -2.5078125 h 1.46875 v 2.5078125 h 3.03125 v 1.234375 h -3.03125 v 3.9765625 q 0,0.6875 0.03125,1.078125 0.03125,0.3828125 0.21875,0.71875 0.171875,0.3125 0.46875,0.4609375 0.304688,0.140625 0.921875,0.140625 0.359375,0 0.75,-0.1015625 0.390625,-0.109375 0.5625,-0.1796875 h 0.07813 z"
           id="path779" />
        <path
           d="m 74.695312,-4.2109375 h -6.429687 q 0,0.8046875 0.242187,1.40625 0.242188,0.59375 0.664063,0.9765625 0.40625,0.375 0.960937,0.5625 0.5625,0.1875 1.234375,0.1875 0.890625,0 1.789063,-0.3515625 0.90625,-0.359375 1.289062,-0.703125 h 0.07813 V -0.53125 q -0.742187,0.3125 -1.515625,0.5234375 -0.773437,0.2109375 -1.625,0.2109375 -2.171875,0 -3.390625,-1.171875 -1.21875,-1.1796875 -1.21875,-3.34375 0,-2.140625 1.164063,-3.3984375 1.171875,-1.2578125 3.078125,-1.2578125 1.765625,0 2.71875,1.03125 0.960937,1.03125 0.960937,2.9296875 z m -1.429687,-1.125 q -0.0078,-1.15625 -0.585938,-1.7890625 -0.570312,-0.6328125 -1.742187,-0.6328125 -1.179688,0 -1.882813,0.6953125 -0.695312,0.6953125 -0.789062,1.7265625 z"
           id="path781" />
        <path
           d="m 81.59375,3.21875 h -1.789063 q -1.382812,-1.5859375 -2.148437,-3.4609375 -0.765625,-1.875 -0.765625,-4.2265625 0,-2.3515625 0.765625,-4.2265625 0.765625,-1.8750005 2.148437,-3.4609375 h 1.789063 v 0.07813 q -0.632813,0.570312 -1.210938,1.320312 -0.570312,0.742188 -1.0625,1.7343755 -0.46875,0.9609375 -0.765625,2.1171875 -0.289062,1.15625 -0.289062,2.4375 0,1.3359375 0.28125,2.4453125 0.289062,1.109375 0.773437,2.109375 0.46875,0.9609375 1.070313,1.734375 0.601562,0.78125 1.203125,1.3203125 z"
           id="path783" />
        <path
           d="M 91.875,0 H 84 v -1.6328125 q 0.820312,-0.703125 1.640625,-1.40625 0.828125,-0.703125 1.539062,-1.3984375 1.5,-1.453125 2.054688,-2.3046875 0.554687,-0.859375 0.554687,-1.8515625 0,-0.90625 -0.601562,-1.414063 -0.59375,-0.515625 -1.664063,-0.515625 -0.710937,0 -1.539062,0.25 -0.828125,0.25 -1.617188,0.7656255 h -0.07813 v -1.6406255 q 0.554688,-0.273437 1.476563,-0.5 0.929687,-0.226562 1.796875,-0.226562 1.789062,0 2.804687,0.867187 1.015625,0.859375 1.015625,2.335938 0,0.6640625 -0.171875,1.2421875 Q 91.046875,-6.859375 90.71875,-6.34375 90.414062,-5.859375 90,-5.390625 q -0.40625,0.46875 -0.992188,1.0390625 -0.835937,0.8203125 -1.726562,1.59375 -0.890625,0.765625 -1.664063,1.421875 H 91.875 Z"
           id="path785" />
        <path
           d="m 98.765625,-4.46875 q 0,2.3515625 -0.765625,4.2265625 -0.765625,1.875 -2.148438,3.4609375 H 94.0625 V 3.140625 Q 94.664062,2.6015625 95.265625,1.8203125 95.875,1.046875 96.335937,0.0859375 q 0.484375,-1 0.765625,-2.109375 0.289063,-1.109375 0.289063,-2.4453125 0,-1.28125 -0.289063,-2.4375 -0.289062,-1.15625 -0.765625,-2.1171875 -0.492187,-0.9921875 -1.070312,-1.7343755 -0.570313,-0.75 -1.203125,-1.320312 v -0.07813 h 1.789062 q 1.382813,1.585937 2.148438,3.4609375 0.765625,1.875 0.765625,4.2265625 z"
           id="path787" />
      </g>
      <!-- Third, another translate -->
      <g
         transform="translate(130,160)"
         id="g532">
        <g
           fill="none"
           stroke="blue"
           stroke-width="3"
           id="g528">
          <line
             x1="0"
             y1="0"
             x2="50"
             y2="0"
             id="line524" />
          <line
             x1="0"
             y1="0"
             x2="0"
             y2="50"
             id="line526" />
        </g>
        <g
           aria-label="....Translate(3)"
           id="text530"
           style="font-size:16px;font-family:Verdana">
          <path
             d="M 3.84375,0 H 1.9765625 V -2.2265625 H 3.84375 Z"
             id="path823" />
          <path
             d="M 9.6640625,0 H 7.796875 v -2.2265625 h 1.8671875 z"
             id="path825" />
          <path
             d="m 15.484375,0 h -1.867187 v -2.2265625 h 1.867187 z"
             id="path827" />
          <path
             d="M 21.304687,0 H 19.4375 v -2.2265625 h 1.867187 z"
             id="path829" />
          <path
             d="m 33.140625,-10.257813 h -4.15625 V 0 H 27.4375 v -10.257813 h -4.15625 v -1.375 h 9.859375 z"
             id="path831" />
          <path
             d="m 38.46875,-7.125 h -0.07813 Q 38.0625,-7.203125 37.75,-7.234375 q -0.304688,-0.039063 -0.726563,-0.039063 -0.679687,0 -1.3125,0.3046875 -0.632812,0.296875 -1.21875,0.7734375 V 0 h -1.46875 v -8.7265625 h 1.46875 V -7.4375 q 0.875,-0.703125 1.539063,-0.9921875 0.671875,-0.296875 1.367187,-0.296875 0.382813,0 0.554688,0.023437 0.171875,0.015625 0.515625,0.070312 z"
             id="path833" />
          <path
             d="m 46.351562,0 h -1.460937 v -0.9296875 q -0.195313,0.1328125 -0.53125,0.375 -0.328125,0.234375 -0.640625,0.375 Q 43.351562,0 42.875,0.1171875 q -0.476563,0.125 -1.117188,0.125 -1.179687,0 -2,-0.78125 -0.820312,-0.78125 -0.820312,-1.9921875 0,-0.9921875 0.421875,-1.6015625 0.429687,-0.6171875 1.21875,-0.96875 0.796875,-0.3515625 1.914062,-0.4765625 1.117188,-0.125 2.398438,-0.1875 v -0.2265625 q 0,-0.5 -0.179688,-0.828125 -0.171875,-0.328125 -0.5,-0.515625 -0.3125,-0.1796875 -0.75,-0.2421875 -0.4375,-0.0625 -0.914062,-0.0625 -0.578125,0 -1.289063,0.15625 -0.710937,0.1484375 -1.46875,0.4375 h -0.07813 v -1.4921875 q 0.429688,-0.1171875 1.242188,-0.2578125 0.8125,-0.140625 1.601562,-0.140625 0.921875,0 1.601563,0.15625 0.6875,0.1484375 1.1875,0.515625 0.492187,0.359375 0.75,0.9296875 0.257812,0.5703125 0.257812,1.4140625 z M 44.890625,-2.1484375 V -4.578125 q -0.671875,0.039063 -1.585938,0.1171875 -0.90625,0.078125 -1.4375,0.2265625 -0.632812,0.1796875 -1.023437,0.5625 -0.390625,0.375 -0.390625,1.0390625 0,0.75 0.453125,1.1328125 0.453125,0.375 1.382812,0.375 0.773438,0 1.414063,-0.296875 0.640625,-0.3046875 1.1875,-0.7265625 z"
             id="path835" />
          <path
             d="m 56.476562,0 h -1.46875 v -4.96875 q 0,-0.6015625 -0.07031,-1.125 Q 54.867187,-6.625 54.679687,-6.921875 54.484375,-7.25 54.117187,-7.40625 53.75,-7.5703125 53.164062,-7.5703125 q -0.601562,0 -1.257812,0.296875 -0.65625,0.296875 -1.257813,0.7578125 V 0 h -1.46875 v -8.7265625 h 1.46875 v 0.96875 q 0.6875,-0.5703125 1.421875,-0.890625 0.734375,-0.3203125 1.507813,-0.3203125 1.414062,0 2.15625,0.8515625 0.742187,0.8515625 0.742187,2.453125 z"
             id="path837" />
          <path
             d="m 65.539062,-2.515625 q 0,1.1953125 -0.992187,1.9609375 -0.984375,0.765625 -2.695313,0.765625 -0.96875,0 -1.78125,-0.2265625 Q 59.265625,-0.25 58.71875,-0.5234375 V -2.171875 h 0.07813 q 0.695312,0.5234375 1.546875,0.8359375 0.851562,0.3046875 1.632812,0.3046875 0.96875,0 1.515625,-0.3125 0.546875,-0.3125 0.546875,-0.984375 0,-0.515625 -0.296875,-0.78125 Q 63.445312,-3.375 62.601562,-3.5625 q -0.3125,-0.070312 -0.820312,-0.1640625 -0.5,-0.09375 -0.914063,-0.203125 -1.148437,-0.3046875 -1.632812,-0.890625 -0.476563,-0.59375 -0.476563,-1.453125 0,-0.5390625 0.21875,-1.015625 0.226563,-0.4765625 0.679688,-0.8515625 0.4375,-0.3671875 1.109375,-0.578125 0.679687,-0.21875 1.515625,-0.21875 0.78125,0 1.578125,0.1953125 0.804687,0.1875 1.335937,0.4609375 v 1.5703125 h -0.07813 Q 64.554687,-7.125 63.75,-7.40625 q -0.804688,-0.2890625 -1.578125,-0.2890625 -0.804688,0 -1.359375,0.3125 -0.554688,0.3046875 -0.554688,0.9140625 0,0.5390625 0.335938,0.8125 0.328125,0.2734375 1.0625,0.4453125 0.40625,0.09375 0.90625,0.1875 0.507812,0.09375 0.84375,0.171875 1.023437,0.234375 1.578125,0.8046875 0.554687,0.578125 0.554687,1.53125 z"
             id="path839" />
          <path
             d="M 69.125,0 H 67.65625 V -12.15625 H 69.125 Z"
             id="path841" />
          <path
             d="m 78.8125,0 h -1.460938 v -0.9296875 q -0.195312,0.1328125 -0.53125,0.375 -0.328125,0.234375 -0.640625,0.375 Q 75.8125,0 75.335937,0.1171875 q -0.476562,0.125 -1.117187,0.125 -1.179688,0 -2,-0.78125 -0.820313,-0.78125 -0.820313,-1.9921875 0,-0.9921875 0.421875,-1.6015625 0.429688,-0.6171875 1.21875,-0.96875 0.796875,-0.3515625 1.914063,-0.4765625 1.117187,-0.125 2.398437,-0.1875 v -0.2265625 q 0,-0.5 -0.179687,-0.828125 -0.171875,-0.328125 -0.5,-0.515625 -0.3125,-0.1796875 -0.75,-0.2421875 -0.4375,-0.0625 -0.914063,-0.0625 -0.578125,0 -1.289062,0.15625 -0.710938,0.1484375 -1.46875,0.4375 h -0.07813 v -1.4921875 q 0.429687,-0.1171875 1.242187,-0.2578125 0.8125,-0.140625 1.601563,-0.140625 0.921875,0 1.601562,0.15625 0.6875,0.1484375 1.1875,0.515625 0.492188,0.359375 0.75,0.9296875 Q 78.8125,-6.765625 78.8125,-5.921875 Z M 77.351562,-2.1484375 V -4.578125 q -0.671875,0.039063 -1.585937,0.1171875 -0.90625,0.078125 -1.4375,0.2265625 -0.632813,0.1796875 -1.023438,0.5625 -0.390625,0.375 -0.390625,1.0390625 0,0.75 0.453125,1.1328125 0.453125,0.375 1.382813,0.375 0.773437,0 1.414062,-0.296875 0.640625,-0.3046875 1.1875,-0.7265625 z"
             id="path843" />
          <path
             d="M 86.171875,-0.078125 Q 85.757812,0.03125 85.265625,0.1015625 84.78125,0.171875 84.398437,0.171875 q -1.335937,0 -2.03125,-0.71875 -0.695312,-0.71875 -0.695312,-2.3046875 v -4.640625 h -0.992188 v -1.234375 h 0.992188 v -2.5078125 h 1.46875 v 2.5078125 h 3.03125 v 1.234375 h -3.03125 v 3.9765625 q 0,0.6875 0.03125,1.078125 0.03125,0.3828125 0.21875,0.71875 0.171875,0.3125 0.46875,0.4609375 0.304687,0.140625 0.921875,0.140625 0.359375,0 0.75,-0.1015625 0.390625,-0.109375 0.5625,-0.1796875 h 0.07813 z"
             id="path845" />
          <path
             d="m 95.25,-4.2109375 h -6.429688 q 0,0.8046875 0.242188,1.40625 0.242187,0.59375 0.664062,0.9765625 0.40625,0.375 0.960938,0.5625 0.5625,0.1875 1.234375,0.1875 0.890625,0 1.789062,-0.3515625 0.90625,-0.359375 1.289063,-0.703125 h 0.07813 V -0.53125 q -0.742188,0.3125 -1.515625,0.5234375 -0.773438,0.2109375 -1.625,0.2109375 -2.171875,0 -3.390625,-1.171875 -1.21875,-1.1796875 -1.21875,-3.34375 0,-2.140625 1.164062,-3.3984375 1.171875,-1.2578125 3.078125,-1.2578125 1.765625,0 2.71875,1.03125 Q 95.25,-6.90625 95.25,-5.0078125 Z m -1.429688,-1.125 q -0.0078,-1.15625 -0.585937,-1.7890625 -0.570313,-0.6328125 -1.742188,-0.6328125 -1.179687,0 -1.882812,0.6953125 -0.695313,0.6953125 -0.789063,1.7265625 z"
             id="path847" />
          <path
             d="m 102.14844,3.21875 h -1.78906 q -1.382818,-1.5859375 -2.148443,-3.4609375 -0.765625,-1.875 -0.765625,-4.2265625 0,-2.3515625 0.765625,-4.2265625 0.765625,-1.8750005 2.148443,-3.4609375 h 1.78906 v 0.07813 q -0.63281,0.570312 -1.21094,1.320312 -0.57031,0.742188 -1.0625,1.7343755 -0.46875,0.9609375 -0.765625,2.1171875 -0.289063,1.15625 -0.289063,2.4375 0,1.3359375 0.28125,2.4453125 0.289063,1.109375 0.773438,2.109375 0.46875,0.9609375 1.07031,1.734375 0.60157,0.78125 1.20313,1.3203125 z"
             id="path849" />
          <path
             d="m 111.40625,-5.6015625 q 0.375,0.3359375 0.61719,0.84375 0.24219,0.5078125 0.24219,1.3125 0,0.796875 -0.28907,1.4609375 -0.28906,0.6640625 -0.8125,1.15625 -0.58593,0.546875 -1.38281,0.8125 -0.78906,0.2578125 -1.73437,0.2578125 -0.96875,0 -1.90625,-0.234375 -0.9375,-0.2265625 -1.53907,-0.5 V -2.125 h 0.11719 q 0.66406,0.4375 1.5625,0.7265625 0.89844,0.2890625 1.73438,0.2890625 0.49218,0 1.04687,-0.1640625 0.55469,-0.1640625 0.89844,-0.484375 0.35937,-0.34375 0.53125,-0.7578125 0.17969,-0.4140625 0.17969,-1.046875 0,-0.625 -0.20313,-1.03125 -0.19531,-0.4140625 -0.54687,-0.6484375 -0.35157,-0.2421875 -0.85157,-0.328125 -0.5,-0.09375 -1.07812,-0.09375 h -0.70313 v -1.296875 h 0.54688 q 1.1875,0 1.89062,-0.4921875 0.71094,-0.5 0.71094,-1.453125 0,-0.421875 -0.17969,-0.734375 -0.17968,-0.3203125 -0.5,-0.523438 -0.33593,-0.203125 -0.71875,-0.28125 -0.38281,-0.07813 -0.86718,-0.07813 -0.74219,0 -1.57813,0.265625 -0.83594,0.2656255 -1.57812,0.7500005 h -0.0781 v -1.6328125 q 0.55469,-0.273438 1.47656,-0.5 0.92969,-0.234375 1.79688,-0.234375 0.85156,0 1.5,0.15625 0.64844,0.15625 1.17187,0.5 0.5625,0.375 0.85157,0.90625 0.28906,0.53125 0.28906,1.2421875 0,0.96875 -0.6875,1.6953125 -0.67969,0.71875 -1.60938,0.90625 v 0.109375 q 0.375,0.0625 0.85938,0.265625 0.48437,0.1953125 0.82031,0.4921875 z"
             id="path851" />
          <path
             d="m 119.32031,-4.46875 q 0,2.3515625 -0.76562,4.2265625 -0.76563,1.875 -2.14844,3.4609375 h -1.78906 V 3.140625 q 0.60156,-0.5390625 1.20312,-1.3203125 0.60938,-0.7734375 1.07032,-1.734375 0.48437,-1 0.76562,-2.109375 0.28906,-1.109375 0.28906,-2.4453125 0,-1.28125 -0.28906,-2.4375 -0.28906,-1.15625 -0.76562,-2.1171875 -0.49219,-0.9921875 -1.07032,-1.7343755 -0.57031,-0.75 -1.20312,-1.320312 v -0.07813 h 1.78906 q 1.38281,1.585937 2.14844,3.4609375 0.76562,1.875 0.76562,4.2265625 z"
             id="path853" />
        </g>
      </g>
    </g>
  </g>
</svg>
