<?xml version="1.0" encoding="UTF-8" standalone="no"?>
<svg
   width="400px"
   height="150px"
   version="1.1"
   id="svg24"
   xmlns="http://www.w3.org/2000/svg"
   xmlns:svg="http://www.w3.org/2000/svg">
  <defs
     id="defs28" />
  <desc
     id="desc2">Example NewCoordSys - New user coordinate system</desc>
  <g
     fill="none"
     stroke="black"
     stroke-width="3"
     id="g8">
    <!-- Draw the axes of the original coordinate system -->
    <line
       x1="0"
       y1="1.5"
       x2="400"
       y2="1.5"
       id="line4" />
    <line
       x1="1.5"
       y1="0"
       x2="1.5"
       y2="150"
       id="line6" />
  </g>
  <g
     id="g12">
    <g
       aria-label="ABC (orig coord system)"
       id="text10"
       style="font-size:20px;font-family:Verdana">
      <path
         d="M 43.417969,30 H 41.357422 L 39.931641,25.947266 H 33.642578 L 32.216797,30 H 30.253906 L 35.546875,15.458984 H 38.125 Z m -4.082032,-5.712891 -2.548828,-7.138672 -2.558593,7.138672 z"
         id="path413" />
      <path
         d="m 56.591797,25.527344 q 0,1.083984 -0.410156,1.914062 -0.410157,0.830078 -1.103516,1.367188 -0.820313,0.644531 -1.806641,0.917968 Q 52.294922,30 50.78125,30 H 45.625 V 15.458984 h 4.306641 q 1.591796,0 2.382812,0.117188 0.791016,0.117187 1.513672,0.488281 0.800781,0.419922 1.162109,1.083984 0.361328,0.654297 0.361328,1.572266 0,1.035156 -0.527343,1.767578 -0.527344,0.722656 -1.40625,1.16211 v 0.07813 q 1.474609,0.302734 2.324218,1.298828 0.84961,0.986328 0.84961,2.5 z m -3.251953,-6.552735 q 0,-0.527343 -0.175782,-0.888672 Q 52.988281,17.724609 52.597656,17.5 q -0.458984,-0.263672 -1.113281,-0.322266 -0.654297,-0.06836 -1.621094,-0.06836 h -2.304687 v 4.199219 h 2.5 q 0.908203,0 1.445312,-0.08789 0.53711,-0.09766 0.996094,-0.390625 0.458984,-0.292969 0.644531,-0.751953 0.195313,-0.46875 0.195313,-1.103516 z m 1.240234,6.63086 q 0,-0.878907 -0.263672,-1.396485 -0.263672,-0.517578 -0.957031,-0.878906 -0.46875,-0.244141 -1.142578,-0.3125 -0.664063,-0.07813 -1.621094,-0.07813 h -3.037109 v 5.410156 h 2.558593 q 1.269532,0 2.080079,-0.126953 0.810546,-0.136719 1.328125,-0.488281 0.546875,-0.380859 0.800781,-0.869141 0.253906,-0.488281 0.253906,-1.259765 z"
         id="path415" />
      <path
         d="m 70.566406,28.945312 q -0.537109,0.234375 -0.976562,0.439454 -0.429688,0.205078 -1.132813,0.429687 -0.595703,0.185547 -1.298828,0.3125 -0.693359,0.136719 -1.533203,0.136719 -1.582031,0 -2.880859,-0.439453 Q 61.455078,29.375 60.498047,28.427734 59.560547,27.5 59.033203,26.074219 q -0.527344,-1.435547 -0.527344,-3.330078 0,-1.796875 0.507813,-3.212891 0.507812,-1.416016 1.464844,-2.392578 0.927734,-0.947266 2.236328,-1.445313 1.318359,-0.498046 2.919922,-0.498046 1.171875,0 2.333984,0.283203 1.171875,0.283203 2.597656,0.996093 v 2.294922 h -0.146484 q -1.201172,-1.005859 -2.382813,-1.464844 -1.18164,-0.458984 -2.529297,-0.458984 -1.103515,0 -1.992187,0.361328 -0.878906,0.351563 -1.572266,1.103516 -0.673828,0.732422 -1.054687,1.855469 -0.371094,1.113281 -0.371094,2.578125 0,1.533203 0.410156,2.636718 0.419922,1.103516 1.074219,1.796875 0.683594,0.722657 1.591797,1.074219 0.917969,0.341797 1.933594,0.341797 1.396484,0 2.617187,-0.478516 1.220703,-0.478515 2.285156,-1.435547 h 0.136719 z"
         id="path417" />
      <path
         d="m 86.025391,34.023437 h -2.236329 q -1.728515,-1.982421 -2.685546,-4.326171 -0.957032,-2.34375 -0.957032,-5.283204 0,-2.939453 0.957032,-5.283203 0.957031,-2.34375 2.685546,-4.326171 h 2.236329 v 0.09766 q -0.791016,0.71289 -1.513672,1.65039 -0.712891,0.927735 -1.328125,2.167969 -0.585938,1.201172 -0.957032,2.646484 -0.361328,1.445313 -0.361328,3.046875 0,1.669922 0.351563,3.056641 0.361328,1.386719 0.966797,2.636719 0.585937,1.201172 1.33789,2.167969 0.751953,0.976562 1.503907,1.65039 z"
         id="path419" />
      <path
         d="m 98.564453,24.550781 q 0,2.666016 -1.367187,4.208985 -1.367188,1.542968 -3.66211,1.542968 -2.314453,0 -3.68164,-1.542968 -1.357422,-1.542969 -1.357422,-4.208985 0,-2.666015 1.357422,-4.208984 1.367187,-1.552735 3.68164,-1.552735 2.294922,0 3.66211,1.552735 1.367187,1.542969 1.367187,4.208984 z m -1.894531,0 q 0,-2.11914 -0.830078,-3.144531 -0.830078,-1.035156 -2.304688,-1.035156 -1.49414,0 -2.324219,1.035156 -0.820312,1.025391 -0.820312,3.144531 0,2.050781 0.830078,3.115235 0.830078,1.054687 2.314453,1.054687 1.464844,0 2.294922,-1.044922 0.839844,-1.054687 0.839844,-3.125 z"
         id="path421" />
      <path
         d="m 108.21289,21.09375 h -0.0977 q -0.41015,-0.09766 -0.80078,-0.136719 -0.38086,-0.04883 -0.9082,-0.04883 -0.84961,0 -1.64062,0.380859 -0.79102,0.371094 -1.52344,0.966797 V 30 h -1.83594 V 19.091797 h 1.83594 v 1.611328 q 1.09375,-0.878906 1.92383,-1.240234 0.83984,-0.371094 1.70898,-0.371094 0.47852,0 0.69336,0.0293 0.21484,0.01953 0.64453,0.08789 z"
         id="path423" />
      <path
         d="m 111.91406,17.265625 h -2.07031 v -1.904297 h 2.07031 z M 111.79688,30 h -1.83594 V 19.091797 h 1.83594 z"
         id="path425" />
      <path
         d="m 124.27734,28.759766 q 0,2.773437 -1.25976,4.072265 -1.25977,1.298828 -3.87695,1.298828 -0.86915,0 -1.69922,-0.126953 -0.82032,-0.117187 -1.6211,-0.341797 v -1.875 h 0.0977 q 0.44922,0.175782 1.42578,0.429688 0.97656,0.263672 1.95313,0.263672 0.9375,0 1.55273,-0.22461 0.61523,-0.224609 0.95703,-0.625 0.3418,-0.380859 0.48828,-0.917968 0.14649,-0.53711 0.14649,-1.201172 v -0.996094 q -0.83008,0.664062 -1.5918,0.996094 -0.75195,0.322265 -1.92383,0.322265 -1.95312,0 -3.10547,-1.40625 -1.14258,-1.416015 -1.14258,-3.984375 0,-1.40625 0.39063,-2.421875 0.40039,-1.02539 1.08398,-1.767578 0.63477,-0.693359 1.54297,-1.074219 0.90821,-0.390625 1.80664,-0.390625 0.94727,0 1.58203,0.195313 0.64454,0.185547 1.35743,0.576172 l 0.11718,-0.46875 h 1.71875 z m -1.83593,-1.757813 v -5.947266 q -0.73243,-0.332031 -1.36719,-0.46875 -0.625,-0.146484 -1.25,-0.146484 -1.51367,0 -2.38281,1.015625 -0.86914,1.015625 -0.86914,2.949219 0,1.835937 0.64453,2.783203 0.64453,0.947266 2.13867,0.947266 0.80078,0 1.60156,-0.302735 0.81055,-0.3125 1.48438,-0.830078 z"
         id="path427" />
      <path
         d="M 142.98828,29.316406 Q 142.07031,29.755859 141.24023,30 q -0.82031,0.244141 -1.74804,0.244141 -1.18164,0 -2.16797,-0.341797 -0.98633,-0.351563 -1.68945,-1.054688 -0.7129,-0.703125 -1.10352,-1.777344 -0.39063,-1.074218 -0.39063,-2.509765 0,-2.675781 1.46485,-4.199219 1.47461,-1.523437 3.88672,-1.523437 0.9375,0 1.83593,0.263671 0.90821,0.263672 1.66016,0.644532 v 2.041015 h -0.0977 q -0.83984,-0.654297 -1.73828,-1.005859 -0.88867,-0.351563 -1.73828,-0.351563 -1.5625,0 -2.4707,1.054688 -0.89844,1.044922 -0.89844,3.076172 0,1.972656 0.87891,3.037109 0.88867,1.054688 2.49023,1.054688 0.55664,0 1.13281,-0.146485 0.57618,-0.146484 1.03516,-0.380859 0.40039,-0.205078 0.75195,-0.429688 0.35157,-0.234375 0.55664,-0.40039 h 0.0977 z"
         id="path429" />
      <path
         d="m 154.63867,24.550781 q 0,2.666016 -1.36719,4.208985 -1.36718,1.542968 -3.66211,1.542968 -2.31445,0 -3.68164,-1.542968 -1.35742,-1.542969 -1.35742,-4.208985 0,-2.666015 1.35742,-4.208984 1.36719,-1.552735 3.68164,-1.552735 2.29493,0 3.66211,1.552735 1.36719,1.542969 1.36719,4.208984 z m -1.89453,0 q 0,-2.11914 -0.83008,-3.144531 -0.83008,-1.035156 -2.30469,-1.035156 -1.49414,0 -2.32421,1.035156 -0.82032,1.025391 -0.82032,3.144531 0,2.050781 0.83008,3.115235 0.83008,1.054687 2.31445,1.054687 1.46485,0 2.29493,-1.044922 0.83984,-1.054687 0.83984,-3.125 z"
         id="path431" />
      <path
         d="m 166.77734,24.550781 q 0,2.666016 -1.36718,4.208985 -1.36719,1.542968 -3.66211,1.542968 -2.31446,0 -3.68164,-1.542968 -1.35743,-1.542969 -1.35743,-4.208985 0,-2.666015 1.35743,-4.208984 1.36718,-1.552735 3.68164,-1.552735 2.29492,0 3.66211,1.552735 1.36718,1.542969 1.36718,4.208984 z m -1.89453,0 q 0,-2.11914 -0.83008,-3.144531 -0.83007,-1.035156 -2.30468,-1.035156 -1.49414,0 -2.32422,1.035156 -0.82031,1.025391 -0.82031,3.144531 0,2.050781 0.83007,3.115235 0.83008,1.054687 2.31446,1.054687 1.46484,0 2.29492,-1.044922 0.83984,-1.054687 0.83984,-3.125 z"
         id="path433" />
      <path
         d="m 176.42578,21.09375 h -0.0977 q -0.41015,-0.09766 -0.80078,-0.136719 -0.38086,-0.04883 -0.9082,-0.04883 -0.84961,0 -1.64062,0.380859 -0.79102,0.371094 -1.52344,0.966797 V 30 h -1.83594 V 19.091797 h 1.83594 v 1.611328 q 1.09375,-0.878906 1.92383,-1.240234 0.83984,-0.371094 1.70898,-0.371094 0.47852,0 0.69336,0.0293 0.21484,0.01953 0.64453,0.08789 z"
         id="path435" />
      <path
         d="m 187.00195,30 h -1.83593 v -1.142578 q -0.79102,0.683594 -1.6504,1.064453 -0.85937,0.380859 -1.86523,0.380859 -1.95312,0 -3.10547,-1.503906 -1.14258,-1.503906 -1.14258,-4.169922 0,-1.386719 0.39063,-2.470703 0.40039,-1.083984 1.07422,-1.845703 0.66406,-0.742188 1.54297,-1.132813 0.88867,-0.390625 1.83593,-0.390625 0.85938,0 1.52344,0.185547 0.66406,0.175782 1.39649,0.556641 v -4.726562 h 1.83593 z m -1.83593,-2.685547 v -6.259766 q -0.74219,-0.332031 -1.32813,-0.458984 -0.58594,-0.126953 -1.2793,-0.126953 -1.54297,0 -2.40234,1.074219 -0.85938,1.074218 -0.85938,3.046875 0,1.943359 0.66407,2.958984 0.66406,1.005859 2.1289,1.005859 0.78125,0 1.58203,-0.341796 0.80079,-0.351563 1.49415,-0.898438 z"
         id="path437" />
      <path
         d="m 205.43945,26.855469 q 0,1.49414 -1.24023,2.451172 -1.23047,0.957031 -3.36914,0.957031 -1.21094,0 -2.22656,-0.283203 -1.00586,-0.292969 -1.68946,-0.634766 v -2.060547 h 0.0977 q 0.86914,0.654297 1.93359,1.044922 1.06446,0.380859 2.04102,0.380859 1.21094,0 1.89453,-0.390625 0.68359,-0.390625 0.68359,-1.230468 0,-0.644532 -0.37109,-0.976563 -0.37109,-0.332031 -1.42578,-0.566406 -0.39063,-0.08789 -1.02539,-0.205078 -0.625,-0.117188 -1.14258,-0.253906 -1.43555,-0.38086 -2.04102,-1.113282 -0.5957,-0.742187 -0.5957,-1.816406 0,-0.673828 0.27344,-1.269531 0.2832,-0.595703 0.84961,-1.064453 0.54687,-0.458985 1.38672,-0.722657 0.84961,-0.273437 1.89453,-0.273437 0.97656,0 1.97265,0.244141 1.00586,0.234375 1.66993,0.576171 v 1.962891 h -0.0977 q -0.70313,-0.517578 -1.70899,-0.869141 -1.00585,-0.361328 -1.97265,-0.361328 -1.00586,0 -1.69922,0.390625 -0.69336,0.38086 -0.69336,1.142578 0,0.673829 0.41992,1.015625 0.41016,0.341797 1.32813,0.556641 0.50781,0.117188 1.13281,0.234375 0.63477,0.117188 1.05469,0.214844 1.27929,0.292969 1.97265,1.005859 0.69336,0.722656 0.69336,1.914063 z"
         id="path439" />
      <path
         d="m 217.5,19.091797 -6.36719,14.93164 h -1.96289 l 2.03125,-4.550781 -4.3457,-10.380859 h 1.99219 l 3.34961,8.085937 3.3789,-8.085937 z"
         id="path441" />
      <path
         d="m 227.69531,26.855469 q 0,1.49414 -1.24023,2.451172 -1.23047,0.957031 -3.36914,0.957031 -1.21094,0 -2.22657,-0.283203 -1.00585,-0.292969 -1.68945,-0.634766 v -2.060547 h 0.0977 q 0.86914,0.654297 1.93359,1.044922 1.06445,0.380859 2.04102,0.380859 1.21093,0 1.89453,-0.390625 0.68359,-0.390625 0.68359,-1.230468 0,-0.644532 -0.37109,-0.976563 -0.3711,-0.332031 -1.42578,-0.566406 -0.39063,-0.08789 -1.02539,-0.205078 -0.625,-0.117188 -1.14258,-0.253906 -1.43555,-0.38086 -2.04102,-1.113282 -0.5957,-0.742187 -0.5957,-1.816406 0,-0.673828 0.27344,-1.269531 0.2832,-0.595703 0.84961,-1.064453 0.54687,-0.458985 1.38672,-0.722657 0.8496,-0.273437 1.89453,-0.273437 0.97656,0 1.97265,0.244141 1.00586,0.234375 1.66992,0.576171 v 1.962891 h -0.0977 q -0.70313,-0.517578 -1.70899,-0.869141 -1.00586,-0.361328 -1.97265,-0.361328 -1.00586,0 -1.69922,0.390625 -0.69336,0.38086 -0.69336,1.142578 0,0.673829 0.41992,1.015625 0.41016,0.341797 1.32813,0.556641 0.50781,0.117188 1.13281,0.234375 0.63476,0.117188 1.05469,0.214844 1.27929,0.292969 1.97265,1.005859 0.69336,0.722656 0.69336,1.914063 z"
         id="path443" />
      <path
         d="m 235.98633,29.902344 q -0.51758,0.136718 -1.13281,0.224609 -0.60547,0.08789 -1.08399,0.08789 -1.66992,0 -2.53906,-0.898438 -0.86914,-0.898437 -0.86914,-2.880859 v -5.800781 h -1.24024 v -1.542969 h 1.24024 v -3.134766 h 1.83594 v 3.134766 h 3.78906 v 1.542969 h -3.78906 v 4.970703 q 0,0.859375 0.0391,1.347656 0.0391,0.478516 0.27344,0.898437 0.21484,0.390625 0.58593,0.576172 0.38086,0.175782 1.15235,0.175782 0.44922,0 0.9375,-0.126954 0.48828,-0.136718 0.70312,-0.224609 h 0.0977 z"
         id="path445" />
      <path
         d="m 247.33398,24.736328 h -8.03711 q 0,1.005859 0.30274,1.757813 0.30273,0.742187 0.83008,1.220703 0.50781,0.46875 1.20117,0.703125 0.70312,0.234375 1.54297,0.234375 1.11328,0 2.23633,-0.439453 1.13281,-0.449219 1.61132,-0.878907 h 0.0977 v 2.001953 q -0.92773,0.390625 -1.89453,0.654297 -0.9668,0.263672 -2.03125,0.263672 -2.71484,0 -4.23828,-1.464844 -1.52344,-1.474609 -1.52344,-4.179687 0,-2.675781 1.45508,-4.248047 1.46484,-1.572266 3.84765,-1.572266 2.20704,0 3.39844,1.289063 1.20117,1.289062 1.20117,3.662109 z m -1.78711,-1.40625 q -0.01,-1.445312 -0.73242,-2.236328 -0.71289,-0.791016 -2.17773,-0.791016 -1.47461,0 -2.35352,0.869141 -0.86914,0.869141 -0.98633,2.158203 z"
         id="path447" />
      <path
         d="m 266.03516,30 h -1.83594 v -6.210938 q 0,-0.703125 -0.0684,-1.357421 -0.0586,-0.654297 -0.26367,-1.044922 -0.22461,-0.419922 -0.64453,-0.634766 -0.41993,-0.214844 -1.21094,-0.214844 -0.77149,0 -1.54297,0.390625 -0.77148,0.38086 -1.54297,0.976563 0.0293,0.224609 0.0488,0.527344 0.0195,0.292968 0.0195,0.585937 V 30 h -1.83594 v -6.210938 q 0,-0.722656 -0.0684,-1.367187 -0.0586,-0.654297 -0.26367,-1.044922 -0.22461,-0.419922 -0.64453,-0.625 -0.41992,-0.214844 -1.21094,-0.214844 -0.75195,0 -1.51367,0.371094 -0.75195,0.371094 -1.50391,0.947266 V 30 h -1.83593 V 19.091797 h 1.83593 v 1.210937 q 0.85938,-0.71289 1.70899,-1.113281 0.85937,-0.400391 1.82617,-0.400391 1.11328,0 1.88477,0.46875 0.78125,0.46875 1.16211,1.298829 1.11328,-0.9375 2.03125,-1.347657 0.91796,-0.419922 1.96289,-0.419922 1.79687,0 2.64648,1.09375 0.85938,1.083985 0.85938,3.03711 z"
         id="path449" />
      <path
         d="m 275.07812,24.414062 q 0,2.939454 -0.95703,5.283204 -0.95703,2.34375 -2.68554,4.326171 h -2.23633 v -0.09766 q 0.75195,-0.673828 1.5039,-1.65039 0.76172,-0.966797 1.3379,-2.167969 0.60546,-1.25 0.95703,-2.636719 0.36132,-1.386719 0.36132,-3.056641 0,-1.601562 -0.36132,-3.046875 -0.36133,-1.445312 -0.95703,-2.646484 -0.61524,-1.240234 -1.3379,-2.167969 -0.71289,-0.9375 -1.5039,-1.65039 v -0.09766 h 2.23633 q 1.72851,1.982421 2.68554,4.326171 0.95703,2.34375 0.95703,5.283203 z"
         id="path451" />
    </g>
  </g>
  <!-- Establish a new coordinate system, which is
       shifted (i.e., translated) from the initial coordinate
       system by 50 user units along each axis. -->
  <g
     transform="translate(50,50)"
     id="g22">
    <g
       fill="none"
       stroke="red"
       stroke-width="3"
       id="g18">
      <!-- Draw lines of length 50 user units along 
           the axes of the new coordinate system -->
      <line
         x1="0"
         y1="0"
         x2="50"
         y2="0"
         stroke="red"
         id="line14" />
      <line
         x1="0"
         y1="0"
         x2="0"
         y2="50"
         id="line16" />
    </g>
    <g
       aria-label="ABC (translated coord system)"
       id="text20"
       style="font-size:20px;font-family:Verdana">
      <path
         d="M 43.417969,30 H 41.357422 L 39.931641,25.947266 H 33.642578 L 32.216797,30 H 30.253906 L 35.546875,15.458984 H 38.125 Z m -4.082032,-5.712891 -2.548828,-7.138672 -2.558593,7.138672 z"
         id="path454" />
      <path
         d="m 56.591797,25.527344 q 0,1.083984 -0.410156,1.914062 -0.410157,0.830078 -1.103516,1.367188 -0.820313,0.644531 -1.806641,0.917968 Q 52.294922,30 50.78125,30 H 45.625 V 15.458984 h 4.306641 q 1.591796,0 2.382812,0.117188 0.791016,0.117187 1.513672,0.488281 0.800781,0.419922 1.162109,1.083984 0.361328,0.654297 0.361328,1.572266 0,1.035156 -0.527343,1.767578 -0.527344,0.722656 -1.40625,1.16211 v 0.07813 q 1.474609,0.302734 2.324218,1.298828 0.84961,0.986328 0.84961,2.5 z m -3.251953,-6.552735 q 0,-0.527343 -0.175782,-0.888672 Q 52.988281,17.724609 52.597656,17.5 q -0.458984,-0.263672 -1.113281,-0.322266 -0.654297,-0.06836 -1.621094,-0.06836 h -2.304687 v 4.199219 h 2.5 q 0.908203,0 1.445312,-0.08789 0.53711,-0.09766 0.996094,-0.390625 0.458984,-0.292969 0.644531,-0.751953 0.195313,-0.46875 0.195313,-1.103516 z m 1.240234,6.63086 q 0,-0.878907 -0.263672,-1.396485 -0.263672,-0.517578 -0.957031,-0.878906 -0.46875,-0.244141 -1.142578,-0.3125 -0.664063,-0.07813 -1.621094,-0.07813 h -3.037109 v 5.410156 h 2.558593 q 1.269532,0 2.080079,-0.126953 0.810546,-0.136719 1.328125,-0.488281 0.546875,-0.380859 0.800781,-0.869141 0.253906,-0.488281 0.253906,-1.259765 z"
         id="path456" />
      <path
         d="m 70.566406,28.945312 q -0.537109,0.234375 -0.976562,0.439454 -0.429688,0.205078 -1.132813,0.429687 -0.595703,0.185547 -1.298828,0.3125 -0.693359,0.136719 -1.533203,0.136719 -1.582031,0 -2.880859,-0.439453 Q 61.455078,29.375 60.498047,28.427734 59.560547,27.5 59.033203,26.074219 q -0.527344,-1.435547 -0.527344,-3.330078 0,-1.796875 0.507813,-3.212891 0.507812,-1.416016 1.464844,-2.392578 0.927734,-0.947266 2.236328,-1.445313 1.318359,-0.498046 2.919922,-0.498046 1.171875,0 2.333984,0.283203 1.171875,0.283203 2.597656,0.996093 v 2.294922 h -0.146484 q -1.201172,-1.005859 -2.382813,-1.464844 -1.18164,-0.458984 -2.529297,-0.458984 -1.103515,0 -1.992187,0.361328 -0.878906,0.351563 -1.572266,1.103516 -0.673828,0.732422 -1.054687,1.855469 -0.371094,1.113281 -0.371094,2.578125 0,1.533203 0.410156,2.636718 0.419922,1.103516 1.074219,1.796875 0.683594,0.722657 1.591797,1.074219 0.917969,0.341797 1.933594,0.341797 1.396484,0 2.617187,-0.478516 1.220703,-0.478515 2.285156,-1.435547 h 0.136719 z"
         id="path458" />
      <path
         d="m 86.025391,34.023437 h -2.236329 q -1.728515,-1.982421 -2.685546,-4.326171 -0.957032,-2.34375 -0.957032,-5.283204 0,-2.939453 0.957032,-5.283203 0.957031,-2.34375 2.685546,-4.326171 h 2.236329 v 0.09766 q -0.791016,0.71289 -1.513672,1.65039 -0.712891,0.927735 -1.328125,2.167969 -0.585938,1.201172 -0.957032,2.646484 -0.361328,1.445313 -0.361328,3.046875 0,1.669922 0.351563,3.056641 0.361328,1.386719 0.966797,2.636719 0.585937,1.201172 1.33789,2.167969 0.751953,0.976562 1.503907,1.65039 z"
         id="path460" />
      <path
         d="m 94.931641,29.902344 q -0.517579,0.136718 -1.132813,0.224609 -0.605469,0.08789 -1.083984,0.08789 -1.669922,0 -2.539063,-0.898438 -0.86914,-0.898437 -0.86914,-2.880859 v -5.800781 h -1.240235 v -1.542969 h 1.240235 v -3.134766 h 1.835937 v 3.134766 h 3.789063 v 1.542969 h -3.789063 v 4.970703 q 0,0.859375 0.03906,1.347656 0.03906,0.478516 0.273437,0.898437 0.214844,0.390625 0.585938,0.576172 0.380859,0.175782 1.152343,0.175782 0.449219,0 0.9375,-0.126954 0.488282,-0.136718 0.703125,-0.224609 h 0.09766 z"
         id="path462" />
      <path
         d="m 103.95508,21.09375 h -0.0977 q -0.41015,-0.09766 -0.80078,-0.136719 -0.38086,-0.04883 -0.9082,-0.04883 -0.84961,0 -1.64063,0.380859 -0.791013,0.371094 -1.523435,0.966797 V 30 H 97.148437 V 19.091797 h 1.835938 v 1.611328 q 1.093755,-0.878906 1.923825,-1.240234 0.83985,-0.371094 1.70899,-0.371094 0.47851,0 0.69336,0.0293 0.21484,0.01953 0.64453,0.08789 z"
         id="path464" />
      <path
         d="m 113.80859,30 h -1.82617 v -1.162109 q -0.24414,0.166015 -0.66406,0.46875 -0.41016,0.292968 -0.80078,0.46875 -0.45899,0.224609 -1.05469,0.371093 -0.5957,0.15625 -1.39648,0.15625 -1.47461,0 -2.5,-0.976562 -1.02539,-0.976563 -1.02539,-2.490235 0,-1.240234 0.52734,-2.001953 0.53711,-0.771484 1.52344,-1.210937 0.99609,-0.439453 2.39258,-0.595703 1.39648,-0.15625 2.99804,-0.234375 v -0.283203 q 0,-0.625 -0.22461,-1.035157 -0.21484,-0.410156 -0.625,-0.644531 -0.39062,-0.224609 -0.9375,-0.302734 -0.54687,-0.07813 -1.14258,-0.07813 -0.72265,0 -1.61132,0.195312 -0.88868,0.185547 -1.83594,0.546875 h -0.0977 v -1.865234 q 0.53711,-0.146485 1.55274,-0.322266 1.01562,-0.175781 2.00195,-0.175781 1.15234,0 2.00195,0.195312 0.85938,0.185547 1.48438,0.644532 0.61523,0.449218 0.9375,1.162109 0.32226,0.712891 0.32226,1.767578 z m -1.82617,-2.685547 v -3.037109 q -0.83984,0.04883 -1.98242,0.146484 -1.13281,0.09766 -1.79687,0.283203 -0.79102,0.22461 -1.2793,0.703125 -0.48828,0.46875 -0.48828,1.298828 0,0.9375 0.5664,1.416016 0.56641,0.46875 1.72852,0.46875 0.9668,0 1.76758,-0.371094 0.80078,-0.380859 1.48437,-0.908203 z"
         id="path466" />
      <path
         d="m 126.46484,30 h -1.83593 v -6.210938 q 0,-0.751953 -0.0879,-1.40625 -0.0879,-0.664062 -0.32227,-1.035156 -0.24414,-0.410156 -0.70312,-0.605469 -0.45899,-0.205078 -1.19141,-0.205078 -0.75195,0 -1.57227,0.371094 -0.82031,0.371094 -1.57226,0.947266 V 30 h -1.83594 V 19.091797 h 1.83594 v 1.210937 q 0.85937,-0.71289 1.77734,-1.113281 0.91797,-0.400391 1.88477,-0.400391 1.76758,0 2.69531,1.064454 0.92773,1.064453 0.92773,3.066406 z"
         id="path468" />
      <path
         d="m 137.79297,26.855469 q 0,1.49414 -1.24024,2.451172 -1.23046,0.957031 -3.36914,0.957031 -1.21093,0 -2.22656,-0.283203 -1.00586,-0.292969 -1.68945,-0.634766 v -2.060547 h 0.0976 q 0.86914,0.654297 1.9336,1.044922 1.06445,0.380859 2.04101,0.380859 1.21094,0 1.89453,-0.390625 0.6836,-0.390625 0.6836,-1.230468 0,-0.644532 -0.3711,-0.976563 -0.37109,-0.332031 -1.42578,-0.566406 -0.39062,-0.08789 -1.02539,-0.205078 -0.625,-0.117188 -1.14258,-0.253906 -1.43554,-0.38086 -2.04101,-1.113282 -0.5957,-0.742187 -0.5957,-1.816406 0,-0.673828 0.27343,-1.269531 0.28321,-0.595703 0.84961,-1.064453 0.54688,-0.458985 1.38672,-0.722657 0.84961,-0.273437 1.89453,-0.273437 0.97657,0 1.97266,0.244141 1.00586,0.234375 1.66992,0.576171 v 1.962891 h -0.0977 q -0.70312,-0.517578 -1.70898,-0.869141 -1.00586,-0.361328 -1.97266,-0.361328 -1.00586,0 -1.69921,0.390625 -0.69336,0.38086 -0.69336,1.142578 0,0.673829 0.41992,1.015625 0.41015,0.341797 1.32812,0.556641 0.50782,0.117188 1.13282,0.234375 0.63476,0.117188 1.05468,0.214844 1.2793,0.292969 1.97266,1.005859 0.69336,0.722656 0.69336,1.914063 z"
         id="path470" />
      <path
         d="m 142.27539,30 h -1.83594 V 14.804688 h 1.83594 z"
         id="path472" />
      <path
         d="m 154.38477,30 h -1.82618 v -1.162109 q -0.24414,0.166015 -0.66406,0.46875 -0.41016,0.292968 -0.80078,0.46875 -0.45898,0.224609 -1.05469,0.371093 -0.5957,0.15625 -1.39648,0.15625 -1.47461,0 -2.5,-0.976562 -1.02539,-0.976563 -1.02539,-2.490235 0,-1.240234 0.52734,-2.001953 0.53711,-0.771484 1.52344,-1.210937 0.99609,-0.439453 2.39258,-0.595703 1.39648,-0.15625 2.99804,-0.234375 v -0.283203 q 0,-0.625 -0.22461,-1.035157 -0.21484,-0.410156 -0.625,-0.644531 -0.39062,-0.224609 -0.9375,-0.302734 -0.54687,-0.07813 -1.14257,-0.07813 -0.72266,0 -1.61133,0.195312 -0.88867,0.185547 -1.83594,0.546875 h -0.0977 v -1.865234 q 0.53711,-0.146485 1.55274,-0.322266 1.01562,-0.175781 2.00195,-0.175781 1.15235,0 2.00195,0.195312 0.85938,0.185547 1.48438,0.644532 0.61523,0.449218 0.9375,1.162109 0.32227,0.712891 0.32227,1.767578 z m -1.82618,-2.685547 v -3.037109 q -0.83984,0.04883 -1.98242,0.146484 -1.13281,0.09766 -1.79687,0.283203 -0.79102,0.22461 -1.2793,0.703125 -0.48828,0.46875 -0.48828,1.298828 0,0.9375 0.5664,1.416016 0.56641,0.46875 1.72852,0.46875 0.9668,0 1.76758,-0.371094 0.80078,-0.380859 1.48437,-0.908203 z"
         id="path474" />
      <path
         d="m 163.58398,29.902344 q -0.51757,0.136718 -1.13281,0.224609 -0.60547,0.08789 -1.08398,0.08789 -1.66992,0 -2.53907,-0.898438 -0.86914,-0.898437 -0.86914,-2.880859 v -5.800781 h -1.24023 v -1.542969 h 1.24023 v -3.134766 h 1.83594 v 3.134766 h 3.78906 v 1.542969 h -3.78906 v 4.970703 q 0,0.859375 0.0391,1.347656 0.0391,0.478516 0.27344,0.898437 0.21485,0.390625 0.58594,0.576172 0.38086,0.175782 1.15234,0.175782 0.44922,0 0.9375,-0.126954 0.48828,-0.136718 0.70313,-0.224609 h 0.0976 z"
         id="path476" />
      <path
         d="m 174.93164,24.736328 h -8.03711 q 0,1.005859 0.30274,1.757813 0.30273,0.742187 0.83007,1.220703 0.50782,0.46875 1.20118,0.703125 0.70312,0.234375 1.54296,0.234375 1.11329,0 2.23633,-0.439453 1.13281,-0.449219 1.61133,-0.878907 h 0.0977 v 2.001953 q -0.92774,0.390625 -1.89453,0.654297 -0.9668,0.263672 -2.03125,0.263672 -2.71485,0 -4.23829,-1.464844 -1.52343,-1.474609 -1.52343,-4.179687 0,-2.675781 1.45507,-4.248047 1.46485,-1.572266 3.84766,-1.572266 2.20703,0 3.39844,1.289063 1.20117,1.289062 1.20117,3.662109 z m -1.78711,-1.40625 q -0.01,-1.445312 -0.73242,-2.236328 -0.71289,-0.791016 -2.17774,-0.791016 -1.4746,0 -2.35351,0.869141 -0.86914,0.869141 -0.98633,2.158203 z"
         id="path478" />
      <path
         d="m 186.5625,30 h -1.83594 v -1.142578 q -0.79101,0.683594 -1.65039,1.064453 -0.85937,0.380859 -1.86523,0.380859 -1.95313,0 -3.10547,-1.503906 -1.14258,-1.503906 -1.14258,-4.169922 0,-1.386719 0.39063,-2.470703 0.40039,-1.083984 1.07421,-1.845703 0.66407,-0.742188 1.54297,-1.132813 0.88867,-0.390625 1.83594,-0.390625 0.85938,0 1.52344,0.185547 0.66406,0.175782 1.39648,0.556641 v -4.726562 h 1.83594 z m -1.83594,-2.685547 v -6.259766 q -0.74219,-0.332031 -1.32812,-0.458984 -0.58594,-0.126953 -1.2793,-0.126953 -1.54297,0 -2.40234,1.074219 -0.85938,1.074218 -0.85938,3.046875 0,1.943359 0.66406,2.958984 0.66407,1.005859 2.12891,1.005859 0.78125,0 1.58203,-0.341796 0.80078,-0.351563 1.49414,-0.898438 z"
         id="path480" />
      <path
         d="M 205.27344,29.316406 Q 204.35547,29.755859 203.52539,30 q -0.82031,0.244141 -1.74805,0.244141 -1.18164,0 -2.16797,-0.341797 -0.98632,-0.351563 -1.68945,-1.054688 -0.71289,-0.703125 -1.10351,-1.777344 -0.39063,-1.074218 -0.39063,-2.509765 0,-2.675781 1.46484,-4.199219 1.47461,-1.523437 3.88672,-1.523437 0.9375,0 1.83594,0.263671 0.9082,0.263672 1.66016,0.644532 v 2.041015 h -0.0977 q -0.83984,-0.654297 -1.73828,-1.005859 -0.88867,-0.351563 -1.73828,-0.351563 -1.5625,0 -2.4707,1.054688 -0.89844,1.044922 -0.89844,3.076172 0,1.972656 0.8789,3.037109 0.88868,1.054688 2.49024,1.054688 0.55664,0 1.13281,-0.146485 0.57617,-0.146484 1.03516,-0.380859 0.40039,-0.205078 0.75195,-0.429688 0.35156,-0.234375 0.55664,-0.40039 h 0.0977 z"
         id="path482" />
      <path
         d="m 216.92383,24.550781 q 0,2.666016 -1.36719,4.208985 -1.36719,1.542968 -3.66211,1.542968 -2.31445,0 -3.68164,-1.542968 -1.35742,-1.542969 -1.35742,-4.208985 0,-2.666015 1.35742,-4.208984 1.36719,-1.552735 3.68164,-1.552735 2.29492,0 3.66211,1.552735 1.36719,1.542969 1.36719,4.208984 z m -1.89453,0 q 0,-2.11914 -0.83008,-3.144531 -0.83008,-1.035156 -2.30469,-1.035156 -1.49414,0 -2.32422,1.035156 -0.82031,1.025391 -0.82031,3.144531 0,2.050781 0.83008,3.115235 0.83008,1.054687 2.31445,1.054687 1.46484,0 2.29492,-1.044922 0.83985,-1.054687 0.83985,-3.125 z"
         id="path484" />
      <path
         d="m 229.0625,24.550781 q 0,2.666016 -1.36719,4.208985 -1.36719,1.542968 -3.66211,1.542968 -2.31445,0 -3.68164,-1.542968 -1.35742,-1.542969 -1.35742,-4.208985 0,-2.666015 1.35742,-4.208984 1.36719,-1.552735 3.68164,-1.552735 2.29492,0 3.66211,1.552735 1.36719,1.542969 1.36719,4.208984 z m -1.89453,0 q 0,-2.11914 -0.83008,-3.144531 -0.83008,-1.035156 -2.30469,-1.035156 -1.49414,0 -2.32422,1.035156 -0.82031,1.025391 -0.82031,3.144531 0,2.050781 0.83008,3.115235 0.83008,1.054687 2.31445,1.054687 1.46485,0 2.29492,-1.044922 0.83985,-1.054687 0.83985,-3.125 z"
         id="path486" />
      <path
         d="m 238.71094,21.09375 h -0.0977 q -0.41016,-0.09766 -0.80078,-0.136719 -0.38086,-0.04883 -0.9082,-0.04883 -0.84961,0 -1.64063,0.380859 -0.79101,0.371094 -1.52344,0.966797 V 30 H 231.9043 V 19.091797 h 1.83593 v 1.611328 q 1.09375,-0.878906 1.92383,-1.240234 0.83985,-0.371094 1.70899,-0.371094 0.47851,0 0.69336,0.0293 0.21484,0.01953 0.64453,0.08789 z"
         id="path488" />
      <path
         d="m 249.28711,30 h -1.83594 v -1.142578 q -0.79101,0.683594 -1.65039,1.064453 -0.85937,0.380859 -1.86523,0.380859 -1.95313,0 -3.10547,-1.503906 -1.14258,-1.503906 -1.14258,-4.169922 0,-1.386719 0.39062,-2.470703 0.4004,-1.083984 1.07422,-1.845703 0.66407,-0.742188 1.54297,-1.132813 0.88867,-0.390625 1.83594,-0.390625 0.85937,0 1.52344,0.185547 0.66406,0.175782 1.39648,0.556641 v -4.726562 h 1.83594 z m -1.83594,-2.685547 v -6.259766 q -0.74219,-0.332031 -1.32812,-0.458984 -0.58594,-0.126953 -1.2793,-0.126953 -1.54297,0 -2.40234,1.074219 -0.85938,1.074218 -0.85938,3.046875 0,1.943359 0.66406,2.958984 0.66407,1.005859 2.12891,1.005859 0.78125,0 1.58203,-0.341796 0.80078,-0.351563 1.49414,-0.898438 z"
         id="path490" />
      <path
         d="m 267.72461,26.855469 q 0,1.49414 -1.24024,2.451172 -1.23046,0.957031 -3.36914,0.957031 -1.21093,0 -2.22656,-0.283203 -1.00586,-0.292969 -1.68945,-0.634766 v -2.060547 h 0.0976 q 0.86915,0.654297 1.9336,1.044922 1.06445,0.380859 2.04101,0.380859 1.21094,0 1.89454,-0.390625 0.68359,-0.390625 0.68359,-1.230468 0,-0.644532 -0.37109,-0.976563 -0.3711,-0.332031 -1.42579,-0.566406 -0.39062,-0.08789 -1.02539,-0.205078 -0.625,-0.117188 -1.14257,-0.253906 -1.43555,-0.38086 -2.04102,-1.113282 -0.5957,-0.742187 -0.5957,-1.816406 0,-0.673828 0.27343,-1.269531 0.28321,-0.595703 0.84961,-1.064453 0.54688,-0.458985 1.38672,-0.722657 0.84961,-0.273437 1.89453,-0.273437 0.97657,0 1.97266,0.244141 1.00586,0.234375 1.66992,0.576171 v 1.962891 h -0.0976 q -0.70313,-0.517578 -1.70899,-0.869141 -1.00586,-0.361328 -1.97266,-0.361328 -1.00585,0 -1.69921,0.390625 -0.69336,0.38086 -0.69336,1.142578 0,0.673829 0.41992,1.015625 0.41015,0.341797 1.32812,0.556641 0.50782,0.117188 1.13282,0.234375 0.63476,0.117188 1.05468,0.214844 1.2793,0.292969 1.97266,1.005859 0.69336,0.722656 0.69336,1.914063 z"
         id="path492" />
      <path
         d="m 279.78516,19.091797 -6.36719,14.93164 h -1.96289 l 2.03125,-4.550781 -4.34571,-10.380859 h 1.99219 l 3.34961,8.085937 3.37891,-8.085937 z"
         id="path494" />
      <path
         d="m 289.98047,26.855469 q 0,1.49414 -1.24024,2.451172 -1.23046,0.957031 -3.36914,0.957031 -1.21093,0 -2.22656,-0.283203 -1.00586,-0.292969 -1.68945,-0.634766 v -2.060547 h 0.0976 q 0.86914,0.654297 1.9336,1.044922 1.06445,0.380859 2.04101,0.380859 1.21094,0 1.89453,-0.390625 0.6836,-0.390625 0.6836,-1.230468 0,-0.644532 -0.3711,-0.976563 -0.37109,-0.332031 -1.42578,-0.566406 -0.39062,-0.08789 -1.02539,-0.205078 -0.625,-0.117188 -1.14258,-0.253906 -1.43554,-0.38086 -2.04101,-1.113282 -0.5957,-0.742187 -0.5957,-1.816406 0,-0.673828 0.27343,-1.269531 0.28321,-0.595703 0.84961,-1.064453 0.54688,-0.458985 1.38672,-0.722657 0.84961,-0.273437 1.89453,-0.273437 0.97657,0 1.97266,0.244141 1.00586,0.234375 1.66992,0.576171 v 1.962891 h -0.0977 q -0.70312,-0.517578 -1.70898,-0.869141 -1.00586,-0.361328 -1.97266,-0.361328 -1.00586,0 -1.69921,0.390625 -0.69336,0.38086 -0.69336,1.142578 0,0.673829 0.41992,1.015625 0.41015,0.341797 1.32812,0.556641 0.50782,0.117188 1.13282,0.234375 0.63476,0.117188 1.05468,0.214844 1.2793,0.292969 1.97266,1.005859 0.69336,0.722656 0.69336,1.914063 z"
         id="path496" />
      <path
         d="m 298.27148,29.902344 q -0.51757,0.136718 -1.13281,0.224609 -0.60547,0.08789 -1.08398,0.08789 -1.66992,0 -2.53907,-0.898438 -0.86914,-0.898437 -0.86914,-2.880859 v -5.800781 h -1.24023 v -1.542969 h 1.24023 v -3.134766 h 1.83594 v 3.134766 h 3.78906 v 1.542969 h -3.78906 v 4.970703 q 0,0.859375 0.0391,1.347656 0.0391,0.478516 0.27344,0.898437 0.21485,0.390625 0.58594,0.576172 0.38086,0.175782 1.15234,0.175782 0.44922,0 0.9375,-0.126954 0.48828,-0.136718 0.70313,-0.224609 h 0.0976 z"
         id="path498" />
      <path
         d="m 309.61914,24.736328 h -8.03711 q 0,1.005859 0.30274,1.757813 0.30273,0.742187 0.83007,1.220703 0.50782,0.46875 1.20118,0.703125 0.70312,0.234375 1.54296,0.234375 1.11329,0 2.23633,-0.439453 1.13281,-0.449219 1.61133,-0.878907 h 0.0977 v 2.001953 q -0.92774,0.390625 -1.89453,0.654297 -0.9668,0.263672 -2.03125,0.263672 -2.71485,0 -4.23829,-1.464844 -1.52343,-1.474609 -1.52343,-4.179687 0,-2.675781 1.45507,-4.248047 1.46485,-1.572266 3.84766,-1.572266 2.20703,0 3.39844,1.289063 1.20117,1.289062 1.20117,3.662109 z m -1.78711,-1.40625 q -0.01,-1.445312 -0.73242,-2.236328 -0.71289,-0.791016 -2.17774,-0.791016 -1.4746,0 -2.35351,0.869141 -0.86914,0.869141 -0.98633,2.158203 z"
         id="path500" />
      <path
         d="m 328.32031,30 h -1.83594 v -6.210938 q 0,-0.703125 -0.0684,-1.357421 -0.0586,-0.654297 -0.26368,-1.044922 -0.22461,-0.419922 -0.64453,-0.634766 -0.41992,-0.214844 -1.21094,-0.214844 -0.77148,0 -1.54296,0.390625 -0.77149,0.38086 -1.54297,0.976563 0.0293,0.224609 0.0488,0.527344 0.0195,0.292968 0.0195,0.585937 V 30 h -1.83594 v -6.210938 q 0,-0.722656 -0.0684,-1.367187 -0.0586,-0.654297 -0.26367,-1.044922 -0.22461,-0.419922 -0.64453,-0.625 -0.41993,-0.214844 -1.21094,-0.214844 -0.75195,0 -1.51367,0.371094 -0.75196,0.371094 -1.50391,0.947266 V 30 h -1.83594 V 19.091797 h 1.83594 v 1.210937 q 0.85938,-0.71289 1.70899,-1.113281 0.85937,-0.400391 1.82617,-0.400391 1.11328,0 1.88476,0.46875 0.78125,0.46875 1.16211,1.298829 1.11328,-0.9375 2.03125,-1.347657 0.91797,-0.419922 1.96289,-0.419922 1.79688,0 2.64649,1.09375 0.85937,1.083985 0.85937,3.03711 z"
         id="path502" />
      <path
         d="m 337.36328,24.414062 q 0,2.939454 -0.95703,5.283204 -0.95703,2.34375 -2.68555,4.326171 h -2.23633 v -0.09766 q 0.75196,-0.673828 1.50391,-1.65039 0.76172,-0.966797 1.33789,-2.167969 0.60547,-1.25 0.95703,-2.636719 0.36133,-1.386719 0.36133,-3.056641 0,-1.601562 -0.36133,-3.046875 -0.36133,-1.445312 -0.95703,-2.646484 -0.61523,-1.240234 -1.33789,-2.167969 -0.71289,-0.9375 -1.50391,-1.65039 v -0.09766 h 2.23633 q 1.72852,1.982421 2.68555,4.326171 0.95703,2.34375 0.95703,5.283203 z"
         id="path504" />
    </g>
  </g>
</svg>
