<?xml version="1.0" encoding="UTF-8" standalone="no"?>
<svg
   width="450px"
   height="300px"
   version="1.1"
   id="svg1483"
   xmlns="http://www.w3.org/2000/svg"
   xmlns:svg="http://www.w3.org/2000/svg">
  <defs
     id="defs1487" />
  <desc
     id="desc1197">Example PreserveAspectRatio - illustrates preserveAspectRatio attribute</desc>
  <rect
     x="1"
     y="1"
     width="448"
     height="298"
     fill="none"
     stroke="blue"
     id="rect1199" />
  <g
     font-size="9"
     id="g1481">
    <g
       aria-label="SVG to fit"
       id="text1201">
      <path
         d="m 15.633789,28.132324 q 0,0.382324 -0.180176,0.75586 -0.175781,0.373535 -0.496582,0.632812 -0.351562,0.28125 -0.821777,0.439453 -0.46582,0.158203 -1.125,0.158203 -0.70752,0 -1.274414,-0.131836 -0.5625,-0.131836 -1.146973,-0.391113 v -1.089844 h 0.06152 q 0.496582,0.413086 1.146972,0.637207 0.650391,0.224121 1.22168,0.224121 0.808594,0 1.256836,-0.303222 0.452637,-0.303223 0.452637,-0.808594 0,-0.435059 -0.215332,-0.641601 -0.210938,-0.206543 -0.645996,-0.320801 -0.32959,-0.08789 -0.716309,-0.14502 -0.382324,-0.05713 -0.812988,-0.145019 -0.870118,-0.184571 -1.291993,-0.628418 -0.41748,-0.448242 -0.41748,-1.164551 0,-0.821777 0.694336,-1.344727 0.694336,-0.527343 1.762207,-0.527343 0.689941,0 1.265625,0.131836 0.575684,0.131835 1.019531,0.325195 v 1.02832 h -0.06152 q -0.373535,-0.316406 -0.984375,-0.522949 -0.606446,-0.210938 -1.243653,-0.210938 -0.69873,0 -1.125,0.29004 -0.421875,0.290039 -0.421875,0.74707 0,0.408691 0.210938,0.641601 0.210937,0.232911 0.742676,0.355957 0.28125,0.06152 0.799804,0.149414 0.518555,0.08789 0.878907,0.180176 0.729492,0.19336 1.098632,0.584473 0.369141,0.391113 0.369141,1.094238 z"
         id="path1660" />
      <path
         d="M 22.19043,23.456543 19.808594,30 h -1.160157 l -2.381835,-6.543457 h 0.93164 l 2.052246,5.756836 2.052246,-5.756836 z"
         id="path1662" />
      <path
         d="m 28.641602,29.516602 q -0.536133,0.246093 -1.17334,0.430664 -0.632813,0.180175 -1.226075,0.180175 -0.764648,0 -1.401855,-0.210937 -0.637207,-0.210938 -1.085449,-0.632813 -0.452637,-0.426269 -0.698731,-1.063476 -0.246093,-0.641602 -0.246093,-1.498535 0,-1.568848 0.914062,-2.474121 0.918457,-0.909668 2.518066,-0.909668 0.558106,0 1.138184,0.13623 0.584473,0.131836 1.256836,0.452637 v 1.032715 h -0.0791 q -0.13623,-0.105469 -0.395507,-0.276856 -0.259278,-0.171387 -0.509766,-0.285644 -0.303223,-0.136231 -0.689941,-0.224121 -0.382325,-0.09229 -0.870118,-0.09229 -1.098632,0 -1.740234,0.70752 -0.637207,0.703125 -0.637207,1.907226 0,1.27002 0.667969,1.97754 0.667969,0.703125 1.819336,0.703125 0.421875,0 0.839355,-0.0835 0.421875,-0.0835 0.738281,-0.215332 v -1.604003 h -1.753418 v -0.764649 h 2.614747 z"
         id="path1664" />
      <path
         d="m 35.809082,29.956055 q -0.23291,0.06152 -0.509766,0.101074 -0.272461,0.03955 -0.487793,0.03955 -0.751464,0 -1.142578,-0.404297 -0.391113,-0.404297 -0.391113,-1.296387 v -2.610351 h -0.558105 v -0.694336 h 0.558105 v -1.410645 h 0.826172 v 1.410645 h 1.705078 v 0.694336 h -1.705078 v 2.236816 q 0,0.386719 0.01758,0.606445 0.01758,0.215332 0.123047,0.404297 0.09668,0.175781 0.263672,0.259277 0.171386,0.0791 0.518554,0.0791 0.202149,0 0.421875,-0.05713 0.219727,-0.06152 0.316407,-0.101074 h 0.04394 z"
         id="path1666" />
      <path
         d="m 40.990234,27.547852 q 0,1.199707 -0.615234,1.894043 -0.615234,0.694335 -1.647949,0.694335 -1.041504,0 -1.656739,-0.694335 -0.610839,-0.694336 -0.610839,-1.894043 0,-1.199707 0.610839,-1.894043 0.615235,-0.698731 1.656739,-0.698731 1.032715,0 1.647949,0.698731 0.615234,0.694336 0.615234,1.894043 z m -0.852539,0 q 0,-0.953614 -0.373535,-1.41504 -0.373535,-0.46582 -1.037109,-0.46582 -0.672364,0 -1.045899,0.46582 -0.36914,0.461426 -0.36914,1.41504 0,0.922851 0.373535,1.401855 0.373535,0.474609 1.041504,0.474609 0.659179,0 1.032715,-0.470214 0.377929,-0.47461 0.377929,-1.40625 z"
         id="path1668" />
      <path
         d="m 48.074219,23.961914 h -0.04395 q -0.13623,-0.03955 -0.355957,-0.0791 -0.219726,-0.04395 -0.386718,-0.04395 -0.531739,0 -0.773438,0.237305 -0.237305,0.23291 -0.237305,0.848144 v 0.166993 h 1.489747 v 0.694336 H 46.303223 V 30 h -0.826172 v -4.214355 h -0.558106 v -0.694336 h 0.558106 v -0.162598 q 0,-0.874512 0.435058,-1.340332 0.435059,-0.470215 1.256836,-0.470215 0.276856,0 0.496582,0.02637 0.224121,0.02637 0.408692,0.06152 z"
         id="path1670" />
      <path
         d="m 49.484863,24.269531 h -0.93164 v -0.856933 h 0.93164 z M 49.432129,30 h -0.826172 v -4.908691 h 0.826172 z"
         id="path1672" />
      <path
         d="m 53.615723,29.956055 q -0.232911,0.06152 -0.509766,0.101074 -0.272461,0.03955 -0.487793,0.03955 -0.751465,0 -1.142578,-0.404297 -0.391113,-0.404297 -0.391113,-1.296387 v -2.610351 h -0.558106 v -0.694336 h 0.558106 v -1.410645 h 0.826172 v 1.410645 h 1.705078 v 0.694336 h -1.705078 v 2.236816 q 0,0.386719 0.01758,0.606445 0.01758,0.215332 0.123047,0.404297 0.09668,0.175781 0.263671,0.259277 0.171387,0.0791 0.518555,0.0791 0.202149,0 0.421875,-0.05713 0.219727,-0.06152 0.316406,-0.101074 h 0.04395 z"
         id="path1674" />
    </g>
    <g
       transform="translate(20,40)"
       id="g1215">
      <rect
         x=".5"
         y=".5"
         width="29"
         height="39"
         fill="black"
         stroke="red"
         id="rect1203" />
      <g
         transform="translate(0, 5)"
         id="g1213">
        <circle
           cx="15"
           cy="15"
           r="10"
           fill="yellow"
           id="circle1205" />
        <circle
           cx="12"
           cy="12"
           r="1.5"
           fill="black"
           id="circle1207" />
        <circle
           cx="17"
           cy="12"
           r="1.5"
           fill="black"
           id="circle1209" />
        <path
           d="M 10 19 A 8 8 0 0 0 20 19"
           stroke="black"
           stroke-width="2"
           id="path1211" />
      </g>
    </g>
    <g
       aria-label="Viewport 1"
       id="text1217">
      <path
         d="M 16.038086,103.45654 13.65625,110 h -1.160156 l -2.381836,-6.54346 h 0.93164 l 2.052247,5.75684 2.052246,-5.75684 z"
         id="path1677" />
      <path
         d="m 17.853027,104.26953 h -0.93164 v -0.85693 h 0.93164 z M 17.800293,110 h -0.826172 v -4.90869 h 0.826172 z"
         id="path1679" />
      <path
         d="m 23.543945,107.63135 h -3.616699 q 0,0.45263 0.136231,0.79101 0.13623,0.33399 0.373535,0.54932 0.228515,0.21094 0.540527,0.31641 0.316406,0.10546 0.694336,0.10546 0.500977,0 1.006348,-0.19775 0.509765,-0.20215 0.725097,-0.39551 h 0.04395 v 0.90088 q -0.417481,0.17578 -0.852539,0.29444 -0.435059,0.11865 -0.914063,0.11865 -1.22168,0 -1.907227,-0.65918 -0.685546,-0.66358 -0.685546,-1.88086 0,-1.2041 0.654785,-1.91162 0.659179,-0.70752 1.731445,-0.70752 0.993164,0 1.529297,0.58008 0.540527,0.58007 0.540527,1.64795 z m -0.804199,-0.63281 q -0.0044,-0.6504 -0.32959,-1.00635 -0.320801,-0.35596 -0.97998,-0.35596 -0.663574,0 -1.059082,0.39111 -0.391114,0.39112 -0.443848,0.9712 z"
         id="path1681" />
      <path
         d="M 30.970703,105.09131 29.691895,110 H 28.927246 L 27.666016,106.21631 26.413574,110 H 25.65332 l -1.291992,-4.90869 h 0.861328 l 0.900879,3.80127 1.226074,-3.80127 h 0.681153 l 1.256836,3.80127 0.852539,-3.80127 z"
         id="path1683" />
      <path
         d="m 36.481445,107.48633 q 0,0.59765 -0.171386,1.09424 -0.171387,0.49218 -0.483399,0.83496 -0.290039,0.32519 -0.685547,0.50537 -0.391113,0.17578 -0.830566,0.17578 -0.382324,0 -0.694336,-0.0835 -0.307617,-0.0835 -0.628418,-0.25927 v 2.05664 h -0.826172 v -6.71924 h 0.826172 v 0.51416 q 0.32959,-0.27686 0.738281,-0.46143 0.413086,-0.18896 0.878906,-0.18896 0.887696,0 1.379883,0.67236 0.496582,0.66797 0.496582,1.85889 z m -0.852539,0.022 q 0,-0.88769 -0.303222,-1.32715 -0.303223,-0.43945 -0.931641,-0.43945 -0.355957,0 -0.716309,0.15381 -0.360351,0.15381 -0.689941,0.40429 v 2.78174 q 0.351562,0.15821 0.602051,0.21534 0.254883,0.0571 0.575683,0.0571 0.689942,0 1.07666,-0.46582 0.386719,-0.46582 0.386719,-1.37988 z"
         id="path1685" />
      <path
         d="m 41.952637,107.54785 q 0,1.19971 -0.615235,1.89404 -0.615234,0.69434 -1.647949,0.69434 -1.041504,0 -1.656738,-0.69434 -0.61084,-0.69433 -0.61084,-1.89404 0,-1.19971 0.61084,-1.89404 0.615234,-0.69873 1.656738,-0.69873 1.032715,0 1.647949,0.69873 0.615235,0.69433 0.615235,1.89404 z m -0.852539,0 q 0,-0.95361 -0.373536,-1.41504 -0.373535,-0.46582 -1.037109,-0.46582 -0.672363,0 -1.045898,0.46582 -0.369141,0.46143 -0.369141,1.41504 0,0.92285 0.373535,1.40186 0.373535,0.47461 1.041504,0.47461 0.65918,0 1.032715,-0.47022 0.37793,-0.47461 0.37793,-1.40625 z"
         id="path1687" />
      <path
         d="m 46.294434,105.99219 h -0.04395 q -0.18457,-0.0439 -0.360351,-0.0615 -0.171387,-0.022 -0.408692,-0.022 -0.382324,0 -0.738281,0.17139 -0.355957,0.16699 -0.685547,0.43506 V 110 h -0.826172 v -4.90869 h 0.826172 v 0.7251 q 0.492188,-0.39551 0.865723,-0.55811 0.37793,-0.16699 0.769043,-0.16699 0.215332,0 0.312012,0.0132 0.09668,0.009 0.290039,0.0396 z"
         id="path1689" />
      <path
         d="m 49.621094,109.95605 q -0.23291,0.0615 -0.509766,0.10108 -0.272461,0.0396 -0.487793,0.0396 -0.751465,0 -1.142578,-0.4043 -0.391113,-0.40429 -0.391113,-1.29638 v -2.61036 h -0.558106 v -0.69433 h 0.558106 v -1.41065 h 0.826172 v 1.41065 h 1.705078 v 0.69433 h -1.705078 v 2.23682 q 0,0.38672 0.01758,0.60645 0.01758,0.21533 0.123047,0.40429 0.09668,0.17578 0.263671,0.25928 0.171387,0.0791 0.518555,0.0791 0.202149,0 0.421875,-0.0571 0.219727,-0.0615 0.316406,-0.10107 h 0.04395 z"
         id="path1691" />
      <path
         d="m 57.733398,110 h -3.541992 v -0.66797 h 1.362305 v -4.38574 h -1.362305 v -0.59766 q 0.276856,0 0.593262,-0.0439 0.316406,-0.0483 0.479004,-0.13623 0.202148,-0.10987 0.316406,-0.27686 0.118652,-0.17139 0.136231,-0.45703 h 0.681152 v 5.89746 h 1.335937 z"
         id="path1693" />
    </g>
    <g
       transform="translate(10,120)"
       id="g1221">
      <rect
         x=".5"
         y=".5"
         width="49"
         height="29"
         fill="none"
         stroke="blue"
         id="rect1219" />
    </g>
    <g
       aria-label="Viewport 2"
       id="text1223">
      <path
         d="M 16.038086,173.45654 13.65625,180 h -1.160156 l -2.381836,-6.54346 h 0.93164 l 2.052247,5.75684 2.052246,-5.75684 z"
         id="path1696" />
      <path
         d="m 17.853027,174.26953 h -0.93164 v -0.85693 h 0.93164 z M 17.800293,180 h -0.826172 v -4.90869 h 0.826172 z"
         id="path1698" />
      <path
         d="m 23.543945,177.63135 h -3.616699 q 0,0.45263 0.136231,0.79101 0.13623,0.33399 0.373535,0.54932 0.228515,0.21094 0.540527,0.31641 0.316406,0.10546 0.694336,0.10546 0.500977,0 1.006348,-0.19775 0.509765,-0.20215 0.725097,-0.39551 h 0.04395 v 0.90088 q -0.417481,0.17578 -0.852539,0.29444 -0.435059,0.11865 -0.914063,0.11865 -1.22168,0 -1.907227,-0.65918 -0.685546,-0.66358 -0.685546,-1.88086 0,-1.2041 0.654785,-1.91162 0.659179,-0.70752 1.731445,-0.70752 0.993164,0 1.529297,0.58008 0.540527,0.58007 0.540527,1.64795 z m -0.804199,-0.63281 q -0.0044,-0.6504 -0.32959,-1.00635 -0.320801,-0.35596 -0.97998,-0.35596 -0.663574,0 -1.059082,0.39111 -0.391114,0.39112 -0.443848,0.9712 z"
         id="path1700" />
      <path
         d="M 30.970703,175.09131 29.691895,180 H 28.927246 L 27.666016,176.21631 26.413574,180 H 25.65332 l -1.291992,-4.90869 h 0.861328 l 0.900879,3.80127 1.226074,-3.80127 h 0.681153 l 1.256836,3.80127 0.852539,-3.80127 z"
         id="path1702" />
      <path
         d="m 36.481445,177.48633 q 0,0.59765 -0.171386,1.09424 -0.171387,0.49218 -0.483399,0.83496 -0.290039,0.32519 -0.685547,0.50537 -0.391113,0.17578 -0.830566,0.17578 -0.382324,0 -0.694336,-0.0835 -0.307617,-0.0835 -0.628418,-0.25927 v 2.05664 h -0.826172 v -6.71924 h 0.826172 v 0.51416 q 0.32959,-0.27686 0.738281,-0.46143 0.413086,-0.18896 0.878906,-0.18896 0.887696,0 1.379883,0.67236 0.496582,0.66797 0.496582,1.85889 z m -0.852539,0.022 q 0,-0.88769 -0.303222,-1.32715 -0.303223,-0.43945 -0.931641,-0.43945 -0.355957,0 -0.716309,0.15381 -0.360351,0.15381 -0.689941,0.40429 v 2.78174 q 0.351562,0.15821 0.602051,0.21533 0.254883,0.0571 0.575683,0.0571 0.689942,0 1.07666,-0.46582 0.386719,-0.46582 0.386719,-1.37988 z"
         id="path1704" />
      <path
         d="m 41.952637,177.54785 q 0,1.19971 -0.615235,1.89404 -0.615234,0.69434 -1.647949,0.69434 -1.041504,0 -1.656738,-0.69434 -0.61084,-0.69433 -0.61084,-1.89404 0,-1.19971 0.61084,-1.89404 0.615234,-0.69873 1.656738,-0.69873 1.032715,0 1.647949,0.69873 0.615235,0.69433 0.615235,1.89404 z m -0.852539,0 q 0,-0.95361 -0.373536,-1.41504 -0.373535,-0.46582 -1.037109,-0.46582 -0.672363,0 -1.045898,0.46582 -0.369141,0.46143 -0.369141,1.41504 0,0.92285 0.373535,1.40186 0.373535,0.47461 1.041504,0.47461 0.65918,0 1.032715,-0.47022 0.37793,-0.47461 0.37793,-1.40625 z"
         id="path1706" />
      <path
         d="m 46.294434,175.99219 h -0.04395 q -0.18457,-0.0439 -0.360351,-0.0615 -0.171387,-0.022 -0.408692,-0.022 -0.382324,0 -0.738281,0.17139 -0.355957,0.16699 -0.685547,0.43506 V 180 h -0.826172 v -4.90869 h 0.826172 v 0.7251 q 0.492188,-0.39551 0.865723,-0.55811 0.37793,-0.16699 0.769043,-0.16699 0.215332,0 0.312012,0.0132 0.09668,0.009 0.290039,0.0395 z"
         id="path1708" />
      <path
         d="m 49.621094,179.95605 q -0.23291,0.0615 -0.509766,0.10108 -0.272461,0.0395 -0.487793,0.0395 -0.751465,0 -1.142578,-0.4043 -0.391113,-0.40429 -0.391113,-1.29638 v -2.61036 h -0.558106 v -0.69433 h 0.558106 v -1.41065 h 0.826172 v 1.41065 h 1.705078 v 0.69433 h -1.705078 v 2.23682 q 0,0.38672 0.01758,0.60645 0.01758,0.21533 0.123047,0.40429 0.09668,0.17578 0.263671,0.25928 0.171387,0.0791 0.518555,0.0791 0.202149,0 0.421875,-0.0571 0.219727,-0.0615 0.316406,-0.10107 h 0.04395 z"
         id="path1710" />
      <path
         d="m 58.106934,180 h -4.429688 v -0.91846 q 0.461426,-0.3955 0.922852,-0.79101 0.46582,-0.39551 0.865722,-0.78662 0.84375,-0.81739 1.155762,-1.29639 0.312012,-0.4834 0.312012,-1.0415 0,-0.50977 -0.338379,-0.79541 -0.333985,-0.29004 -0.936035,-0.29004 -0.399903,0 -0.865723,0.14062 -0.46582,0.14063 -0.909668,0.43067 h -0.04395 V 173.729 q 0.312011,-0.1538 0.830566,-0.28125 0.522949,-0.12744 1.010742,-0.12744 1.006348,0 1.577637,0.4878 0.571289,0.48339 0.571289,1.31396 0,0.37354 -0.09668,0.69873 -0.09229,0.3208 -0.276855,0.61084 -0.171387,0.27246 -0.404297,0.53613 -0.228516,0.26368 -0.558105,0.58448 -0.470215,0.46142 -0.971192,0.89648 -0.500976,0.43066 -0.936035,0.79981 h 3.52002 z"
         id="path1712" />
    </g>
    <g
       transform="translate(20,190)"
       id="g1227">
      <rect
         x=".5"
         y=".5"
         width="29"
         height="59"
         fill="none"
         stroke="blue"
         id="rect1225" />
    </g>
    <g
       id="meet-group-1"
       transform="translate(100, 60)">
      <g
         aria-label="--------------- meet ---------------"
         id="text1229">
        <path
           d="M 3.4145508,-32.465332 H 0.67236328 v -0.79541 H 3.4145508 Z"
           id="path1715" />
        <path
           d="M 7.5014648,-32.465332 H 4.7592773 v -0.79541 h 2.7421875 z"
           id="path1717" />
        <path
           d="M 11.588379,-32.465332 H 8.8461914 v -0.79541 h 2.7421876 z"
           id="path1719" />
        <path
           d="m 15.675293,-32.465332 h -2.742188 v -0.79541 h 2.742188 z"
           id="path1721" />
        <path
           d="M 19.762207,-32.465332 H 17.02002 v -0.79541 h 2.742187 z"
           id="path1723" />
        <path
           d="m 23.849121,-32.465332 h -2.742187 v -0.79541 h 2.742187 z"
           id="path1725" />
        <path
           d="m 27.936035,-32.465332 h -2.742187 v -0.79541 h 2.742187 z"
           id="path1727" />
        <path
           d="m 32.022949,-32.465332 h -2.742187 v -0.79541 h 2.742187 z"
           id="path1729" />
        <path
           d="m 36.109863,-32.465332 h -2.742187 v -0.79541 h 2.742187 z"
           id="path1731" />
        <path
           d="M 40.196777,-32.465332 H 37.45459 v -0.79541 h 2.742187 z"
           id="path1733" />
        <path
           d="m 44.283691,-32.465332 h -2.742187 v -0.79541 h 2.742187 z"
           id="path1735" />
        <path
           d="m 48.370605,-32.465332 h -2.742187 v -0.79541 h 2.742187 z"
           id="path1737" />
        <path
           d="m 52.45752,-32.465332 h -2.742188 v -0.79541 h 2.742188 z"
           id="path1739" />
        <path
           d="m 56.544434,-32.465332 h -2.742188 v -0.79541 h 2.742188 z"
           id="path1741" />
        <path
           d="M 60.631348,-32.465332 H 57.88916 v -0.79541 h 2.742188 z"
           id="path1743" />
        <path
           d="m 72.443848,-30 h -0.826172 v -2.794922 q 0,-0.316406 -0.03076,-0.61084 -0.02637,-0.294433 -0.118652,-0.470215 -0.101075,-0.188964 -0.290039,-0.285644 -0.188965,-0.09668 -0.544922,-0.09668 -0.347168,0 -0.694336,0.175781 -0.347168,0.171387 -0.694336,0.439454 0.01318,0.101074 0.02197,0.237304 0.0088,0.131836 0.0088,0.263672 V -30 h -0.826172 v -2.794922 q 0,-0.325195 -0.03076,-0.615234 -0.02637,-0.294434 -0.118652,-0.470215 -0.101075,-0.188965 -0.290039,-0.28125 -0.188965,-0.09668 -0.544922,-0.09668 -0.338379,0 -0.681153,0.166992 -0.338379,0.166993 -0.676757,0.42627 V -30 h -0.826172 v -4.908691 h 0.826172 v 0.544921 q 0.386718,-0.3208 0.769043,-0.500976 0.386718,-0.180176 0.821777,-0.180176 0.500976,0 0.848144,0.210938 0.351563,0.210937 0.52295,0.584472 0.500976,-0.421875 0.914062,-0.606445 0.413086,-0.188965 0.883301,-0.188965 0.808594,0 1.190918,0.492188 0.386719,0.487793 0.386719,1.366699 z"
           id="path1745" />
        <path
           d="m 78.143555,-32.368652 h -3.6167 q 0,0.452636 0.136231,0.791015 0.13623,0.333985 0.373535,0.549317 0.228516,0.210937 0.540527,0.316406 0.316407,0.105469 0.694336,0.105469 0.500977,0 1.006348,-0.197754 0.509766,-0.202149 0.725098,-0.395508 h 0.04394 v 0.900879 q -0.41748,0.175781 -0.852539,0.294433 -0.435059,0.118653 -0.914063,0.118653 -1.221679,0 -1.907226,-0.65918 -0.685547,-0.663574 -0.685547,-1.880859 0,-1.204102 0.654785,-1.911621 0.65918,-0.70752 1.731445,-0.70752 0.993165,0 1.529297,0.580078 0.540528,0.580078 0.540528,1.647949 z m -0.8042,-0.632813 q -0.0044,-0.65039 -0.329589,-1.006347 -0.320801,-0.355958 -0.979981,-0.355958 -0.663574,0 -1.059082,0.391114 -0.391113,0.391113 -0.443848,0.971191 z"
           id="path1747" />
        <path
           d="m 83.504883,-32.368652 h -3.616699 q 0,0.452636 0.13623,0.791015 0.136231,0.333985 0.373535,0.549317 0.228516,0.210937 0.540528,0.316406 0.316406,0.105469 0.694335,0.105469 0.500977,0 1.006348,-0.197754 0.509766,-0.202149 0.725098,-0.395508 h 0.04394 v 0.900879 q -0.41748,0.175781 -0.852539,0.294433 -0.435059,0.118653 -0.914062,0.118653 -1.22168,0 -1.907227,-0.65918 -0.685547,-0.663574 -0.685547,-1.880859 0,-1.204102 0.654785,-1.911621 0.65918,-0.70752 1.731446,-0.70752 0.993164,0 1.529296,0.580078 0.540528,0.580078 0.540528,1.647949 z m -0.804199,-0.632813 q -0.0044,-0.65039 -0.32959,-1.006347 -0.320801,-0.355958 -0.979981,-0.355958 -0.663574,0 -1.059082,0.391114 -0.391113,0.391113 -0.443847,0.971191 z"
           id="path1749" />
        <path
           d="m 87.306152,-30.043945 q -0.23291,0.06152 -0.509765,0.101074 -0.272461,0.03955 -0.487793,0.03955 -0.751465,0 -1.142578,-0.404297 -0.391114,-0.404297 -0.391114,-1.296387 v -2.610351 h -0.558105 v -0.694336 h 0.558105 v -1.410645 h 0.826172 v 1.410645 h 1.705078 v 0.694336 h -1.705078 v 2.236816 q 0,0.386719 0.01758,0.606445 0.01758,0.215332 0.123047,0.404297 0.09668,0.175781 0.263672,0.259277 0.171387,0.0791 0.518555,0.0791 0.202148,0 0.421875,-0.05713 0.219726,-0.06152 0.316406,-0.101074 h 0.04394 z"
           id="path1751" />
        <path
           d="m 94.069336,-32.465332 h -2.742188 v -0.79541 h 2.742188 z"
           id="path1753" />
        <path
           d="m 98.15625,-32.465332 h -2.742188 v -0.79541 h 2.742188 z"
           id="path1755" />
        <path
           d="m 102.24316,-32.465332 h -2.742183 v -0.79541 h 2.742183 z"
           id="path1757" />
        <path
           d="m 106.33008,-32.465332 h -2.74219 v -0.79541 h 2.74219 z"
           id="path1759" />
        <path
           d="m 110.41699,-32.465332 h -2.74219 v -0.79541 h 2.74219 z"
           id="path1761" />
        <path
           d="m 114.50391,-32.465332 h -2.74219 v -0.79541 h 2.74219 z"
           id="path1763" />
        <path
           d="m 118.59082,-32.465332 h -2.74219 v -0.79541 h 2.74219 z"
           id="path1765" />
        <path
           d="m 122.67773,-32.465332 h -2.74218 v -0.79541 h 2.74218 z"
           id="path1767" />
        <path
           d="m 126.76465,-32.465332 h -2.74219 v -0.79541 h 2.74219 z"
           id="path1769" />
        <path
           d="m 130.85156,-32.465332 h -2.74219 v -0.79541 h 2.74219 z"
           id="path1771" />
        <path
           d="m 134.93848,-32.465332 h -2.74219 v -0.79541 h 2.74219 z"
           id="path1773" />
        <path
           d="m 139.02539,-32.465332 h -2.74219 v -0.79541 h 2.74219 z"
           id="path1775" />
        <path
           d="m 143.1123,-32.465332 h -2.74218 v -0.79541 h 2.74218 z"
           id="path1777" />
        <path
           d="m 147.19922,-32.465332 h -2.74219 v -0.79541 h 2.74219 z"
           id="path1779" />
        <path
           d="m 151.28613,-32.465332 h -2.74218 v -0.79541 h 2.74218 z"
           id="path1781" />
      </g>
      <g
         id="g1249">
        <g
           aria-label="xMin*"
           id="text1231">
          <path
             d="M 5.0625,-10 H 4.0209961 L 2.6279297,-11.885254 1.2260742,-10 H 0.26367188 L 2.1796875,-12.447754 0.28125,-14.908691 h 1.0415039 l 1.3842774,1.854492 1.3886718,-1.854492 H 5.0625 l -1.9291992,2.416992 z"
             id="path1784" />
          <path
             d="m 12.032227,-10 h -0.870118 v -5.638184 l -1.8193356,3.836426 H 8.8242188 L 7.0180664,-15.638184 V -10 H 6.2050781 v -6.543457 h 1.1865235 l 1.7446289,3.643066 1.6874995,-3.643066 h 1.208497 z"
             id="path1786" />
          <path
             d="m 14.611816,-15.730469 h -0.93164 v -0.856933 h 0.93164 z M 14.559082,-10 H 13.73291 v -4.908691 h 0.826172 z"
             id="path1788" />
          <path
             d="m 20.29834,-10 h -0.826172 v -2.794922 q 0,-0.338379 -0.03955,-0.632812 -0.03955,-0.298829 -0.145019,-0.465821 -0.109864,-0.18457 -0.316407,-0.272461 -0.206543,-0.09228 -0.536132,-0.09228 -0.338379,0 -0.70752,0.166992 -0.369141,0.166993 -0.707519,0.42627 V -10 h -0.826172 v -4.908691 h 0.826172 v 0.544921 q 0.386718,-0.3208 0.799804,-0.500976 0.413086,-0.180176 0.848145,-0.180176 0.79541,0 1.21289,0.479004 0.417481,0.479004 0.417481,1.379883 z"
             id="path1790" />
          <path
             d="m 26.072754,-13.897949 -0.28125,0.483398 -1.59082,-0.936035 0.02637,1.582031 h -0.566895 l 0.02197,-1.582031 -1.586426,0.94043 -0.285644,-0.483399 1.674316,-0.909668 -1.674316,-0.909668 0.285644,-0.483398 1.59082,0.936035 -0.02637,-1.577637 h 0.566895 l -0.03076,1.577637 1.595215,-0.931641 0.28125,0.483399 -1.669922,0.900879 z"
             id="path1792" />
        </g>
        <rect
           x=".5"
           y=".5"
           width="49"
           height="29"
           fill="none"
           stroke="blue"
           id="rect1233" />
        <svg
           preserveAspectRatio="xMinYMin meet"
           viewBox="0 0 30 40"
           width="50"
           height="30"
           version="1.1"
           id="svg1247">
          <rect
             x=".5"
             y=".5"
             width="29"
             height="39"
             fill="black"
             stroke="red"
             id="rect1235" />
          <g
             transform="translate(0, 5)"
             id="g1245">
            <circle
               cx="15"
               cy="15"
               r="10"
               fill="yellow"
               id="circle1237" />
            <circle
               cx="12"
               cy="12"
               r="1.5"
               fill="black"
               id="circle1239" />
            <circle
               cx="17"
               cy="12"
               r="1.5"
               fill="black"
               id="circle1241" />
            <path
               d="M 10 19 A 8 8 0 0 0 20 19"
               stroke="black"
               stroke-width="2"
               id="path1243" />
          </g>
        </svg>
      </g>
      <g
         transform="translate(70,0)"
         id="g1269">
        <g
           aria-label="xMid*"
           id="text1251">
          <path
             d="M 5.0625,-10 H 4.0209961 L 2.6279297,-11.885254 1.2260742,-10 H 0.26367188 L 2.1796875,-12.447754 0.28125,-14.908691 h 1.0415039 l 1.3842774,1.854492 1.3886718,-1.854492 H 5.0625 l -1.9291992,2.416992 z"
             id="path1795" />
          <path
             d="m 12.032227,-10 h -0.870118 v -5.638184 l -1.8193356,3.836426 H 8.8242188 L 7.0180664,-15.638184 V -10 H 6.2050781 v -6.543457 h 1.1865235 l 1.7446289,3.643066 1.6874995,-3.643066 h 1.208497 z"
             id="path1797" />
          <path
             d="m 14.611816,-15.730469 h -0.93164 v -0.856933 h 0.93164 z M 14.559082,-10 H 13.73291 v -4.908691 h 0.826172 z"
             id="path1799" />
          <path
             d="m 20.175293,-10 h -0.826172 v -0.51416 q -0.355957,0.307617 -0.742676,0.479004 -0.386718,0.1713865 -0.839355,0.1713865 -0.878906,0 -1.397461,-0.6767575 -0.51416,-0.676758 -0.51416,-1.876465 0,-0.624024 0.175781,-1.111817 0.180176,-0.487793 0.483398,-0.830566 0.298829,-0.333984 0.694336,-0.509766 0.399903,-0.175781 0.826172,-0.175781 0.386719,0 0.685547,0.0835 0.298828,0.0791 0.628418,0.250488 v -2.126953 h 0.826172 z m -0.826172,-1.208496 v -2.816895 q -0.333984,-0.149414 -0.597656,-0.206543 -0.263672,-0.05713 -0.575684,-0.05713 -0.694336,0 -1.081054,0.483399 -0.386719,0.483398 -0.386719,1.371094 0,0.874511 0.298828,1.331543 0.298828,0.452636 0.958008,0.452636 0.351562,0 0.711914,-0.153808 0.360351,-0.158203 0.672363,-0.404297 z"
             id="path1801" />
          <path
             d="m 25.984863,-13.897949 -0.28125,0.483398 -1.59082,-0.936035 0.02637,1.582031 h -0.566894 l 0.02197,-1.582031 -1.586426,0.94043 -0.285644,-0.483399 1.674316,-0.909668 -1.674316,-0.909668 0.285644,-0.483398 1.590821,0.936035 -0.02637,-1.577637 h 0.566894 l -0.03076,1.577637 1.595215,-0.931641 0.28125,0.483399 -1.669922,0.900879 z"
             id="path1803" />
        </g>
        <rect
           x=".5"
           y=".5"
           width="49"
           height="29"
           fill="none"
           stroke="blue"
           id="rect1253" />
        <svg
           preserveAspectRatio="xMidYMid meet"
           viewBox="0 0 30 40"
           width="50"
           height="30"
           version="1.1"
           id="svg1267">
          <rect
             x=".5"
             y=".5"
             width="29"
             height="39"
             fill="black"
             stroke="red"
             id="rect1255" />
          <g
             transform="translate(0, 5)"
             id="g1265">
            <circle
               cx="15"
               cy="15"
               r="10"
               fill="yellow"
               id="circle1257" />
            <circle
               cx="12"
               cy="12"
               r="1.5"
               fill="black"
               id="circle1259" />
            <circle
               cx="17"
               cy="12"
               r="1.5"
               fill="black"
               id="circle1261" />
            <path
               d="M 10 19 A 8 8 0 0 0 20 19"
               stroke="black"
               stroke-width="2"
               id="path1263" />
          </g>
        </svg>
      </g>
      <g
         transform="translate(0,70)"
         id="g1289">
        <g
           aria-label="xMax*"
           id="text1271">
          <path
             d="M 5.0625,-10 H 4.0209961 L 2.6279297,-11.885254 1.2260742,-10 H 0.26367188 L 2.1796875,-12.447754 0.28125,-14.908691 h 1.0415039 l 1.3842774,1.854492 1.3886718,-1.854492 H 5.0625 l -1.9291992,2.416992 z"
             id="path1806" />
          <path
             d="m 12.032227,-10 h -0.870118 v -5.638184 l -1.8193356,3.836426 H 8.8242188 L 7.0180664,-15.638184 V -10 H 6.2050781 v -6.543457 h 1.1865235 l 1.7446289,3.643066 1.6874995,-3.643066 h 1.208497 z"
             id="path1808" />
          <path
             d="m 17.538574,-10 h -0.821777 v -0.522949 q -0.109863,0.07471 -0.298828,0.210937 -0.184571,0.131836 -0.360352,0.210938 -0.206543,0.101074 -0.474609,0.166992 -0.268067,0.070312 -0.628418,0.070312 -0.663574,0 -1.125,-0.4394535 -0.461426,-0.439453 -0.461426,-1.120605 0,-0.558106 0.237305,-0.900879 0.241699,-0.347168 0.685547,-0.544922 0.448242,-0.197754 1.07666,-0.268066 0.628418,-0.07031 1.349121,-0.105469 v -0.127441 q 0,-0.28125 -0.101074,-0.465821 -0.09668,-0.18457 -0.28125,-0.290039 -0.175782,-0.101074 -0.421875,-0.13623 -0.246094,-0.03516 -0.51416,-0.03516 -0.325196,0 -0.725098,0.08789 -0.399902,0.0835 -0.826172,0.246094 h -0.04395 v -0.839356 q 0.241699,-0.06592 0.69873,-0.145019 0.457031,-0.0791 0.900879,-0.0791 0.518555,0 0.900879,0.08789 0.386719,0.0835 0.667969,0.290039 0.276855,0.202148 0.421875,0.522949 0.145019,0.320801 0.145019,0.79541 z m -0.821777,-1.208496 v -1.366699 q -0.37793,0.02197 -0.89209,0.06592 -0.509766,0.04395 -0.808594,0.127441 -0.355957,0.101074 -0.575683,0.316406 -0.219727,0.210938 -0.219727,0.584473 0,0.421875 0.254883,0.637207 0.254883,0.210937 0.777832,0.210937 0.435059,0 0.79541,-0.166992 0.360352,-0.171386 0.667969,-0.408691 z"
             id="path1810" />
          <path
             d="M 23.378906,-10 H 22.337402 L 20.944336,-11.885254 19.54248,-10 h -0.962402 l 1.916016,-2.447754 -1.898438,-2.460937 h 1.041504 l 1.384277,1.854492 1.388672,-1.854492 h 0.966797 l -1.929199,2.416992 z"
             id="path1812" />
          <path
             d="m 28.63916,-13.897949 -0.28125,0.483398 -1.59082,-0.936035 0.02637,1.582031 h -0.566895 l 0.02197,-1.582031 -1.586426,0.94043 -0.285644,-0.483399 1.674316,-0.909668 -1.674316,-0.909668 0.285644,-0.483398 1.590821,0.936035 -0.02637,-1.577637 h 0.566895 l -0.03076,1.577637 1.595215,-0.931641 0.28125,0.483399 -1.669922,0.900879 z"
             id="path1814" />
        </g>
        <rect
           x=".5"
           y=".5"
           width="49"
           height="29"
           fill="none"
           stroke="blue"
           id="rect1273" />
        <svg
           preserveAspectRatio="xMaxYMax meet"
           viewBox="0 0 30 40"
           width="50"
           height="30"
           version="1.1"
           id="svg1287">
          <rect
             x=".5"
             y=".5"
             width="29"
             height="39"
             fill="black"
             stroke="red"
             id="rect1275" />
          <g
             transform="translate(0, 5)"
             id="g1285">
            <circle
               cx="15"
               cy="15"
               r="10"
               fill="yellow"
               id="circle1277" />
            <circle
               cx="12"
               cy="12"
               r="1.5"
               fill="black"
               id="circle1279" />
            <circle
               cx="17"
               cy="12"
               r="1.5"
               fill="black"
               id="circle1281" />
            <path
               d="M 10 19 A 8 8 0 0 0 20 19"
               stroke="black"
               stroke-width="2"
               id="path1283" />
          </g>
        </svg>
      </g>
    </g>
    <g
       id="meet-group-2"
       transform="translate(250, 60)">
      <g
         aria-label="---------- meet ----------"
         id="text1292">
        <path
           d="M 3.4145508,-32.465332 H 0.67236328 v -0.79541 H 3.4145508 Z"
           id="path1850" />
        <path
           d="M 7.5014648,-32.465332 H 4.7592773 v -0.79541 h 2.7421875 z"
           id="path1852" />
        <path
           d="M 11.588379,-32.465332 H 8.8461914 v -0.79541 h 2.7421876 z"
           id="path1854" />
        <path
           d="m 15.675293,-32.465332 h -2.742188 v -0.79541 h 2.742188 z"
           id="path1856" />
        <path
           d="M 19.762207,-32.465332 H 17.02002 v -0.79541 h 2.742187 z"
           id="path1858" />
        <path
           d="m 23.849121,-32.465332 h -2.742187 v -0.79541 h 2.742187 z"
           id="path1860" />
        <path
           d="m 27.936035,-32.465332 h -2.742187 v -0.79541 h 2.742187 z"
           id="path1862" />
        <path
           d="m 32.022949,-32.465332 h -2.742187 v -0.79541 h 2.742187 z"
           id="path1864" />
        <path
           d="m 36.109863,-32.465332 h -2.742187 v -0.79541 h 2.742187 z"
           id="path1866" />
        <path
           d="M 40.196777,-32.465332 H 37.45459 v -0.79541 h 2.742187 z"
           id="path1868" />
        <path
           d="m 52.009277,-30 h -0.826172 v -2.794922 q 0,-0.316406 -0.03076,-0.61084 -0.02637,-0.294433 -0.118653,-0.470215 -0.101074,-0.188964 -0.290039,-0.285644 -0.188965,-0.09668 -0.544922,-0.09668 -0.347168,0 -0.694335,0.175781 -0.347168,0.171387 -0.694336,0.439454 0.01318,0.101074 0.02197,0.237304 0.0088,0.131836 0.0088,0.263672 V -30 h -0.826172 v -2.794922 q 0,-0.325195 -0.03076,-0.615234 -0.02637,-0.294434 -0.118653,-0.470215 -0.101074,-0.188965 -0.290039,-0.28125 -0.188965,-0.09668 -0.544922,-0.09668 -0.338378,0 -0.681152,0.166992 -0.338379,0.166993 -0.676758,0.42627 V -30 h -0.826172 v -4.908691 h 0.826172 v 0.544921 q 0.386719,-0.3208 0.769043,-0.500976 0.386719,-0.180176 0.821778,-0.180176 0.500976,0 0.848144,0.210938 0.351563,0.210937 0.522949,0.584472 0.500977,-0.421875 0.914063,-0.606445 0.413086,-0.188965 0.883301,-0.188965 0.808593,0 1.190918,0.492188 0.386718,0.487793 0.386718,1.366699 z"
           id="path1870" />
        <path
           d="m 57.708984,-32.368652 h -3.616699 q 0,0.452636 0.136231,0.791015 0.13623,0.333985 0.373535,0.549317 0.228515,0.210937 0.540527,0.316406 0.316406,0.105469 0.694336,0.105469 0.500977,0 1.006348,-0.197754 0.509765,-0.202149 0.725097,-0.395508 h 0.04395 v 0.900879 q -0.417481,0.175781 -0.852539,0.294433 -0.435059,0.118653 -0.914063,0.118653 -1.22168,0 -1.907226,-0.65918 -0.685547,-0.663574 -0.685547,-1.880859 0,-1.204102 0.654785,-1.911621 0.65918,-0.70752 1.731445,-0.70752 0.993164,0 1.529297,0.580078 0.540527,0.580078 0.540527,1.647949 z m -0.804199,-0.632813 q -0.0044,-0.65039 -0.32959,-1.006347 -0.3208,-0.355958 -0.97998,-0.355958 -0.663574,0 -1.059082,0.391114 -0.391113,0.391113 -0.443848,0.971191 z"
           id="path1872" />
        <path
           d="m 63.070312,-32.368652 h -3.616699 q 0,0.452636 0.136231,0.791015 0.13623,0.333985 0.373535,0.549317 0.228516,0.210937 0.540527,0.316406 0.316406,0.105469 0.694336,0.105469 0.500977,0 1.006348,-0.197754 0.509765,-0.202149 0.725097,-0.395508 h 0.04395 v 0.900879 q -0.417481,0.175781 -0.852539,0.294433 -0.435059,0.118653 -0.914063,0.118653 -1.221679,0 -1.907226,-0.65918 -0.685547,-0.663574 -0.685547,-1.880859 0,-1.204102 0.654785,-1.911621 0.65918,-0.70752 1.731445,-0.70752 0.993164,0 1.529297,0.580078 0.540527,0.580078 0.540527,1.647949 z m -0.804199,-0.632813 q -0.0044,-0.65039 -0.32959,-1.006347 -0.3208,-0.355958 -0.97998,-0.355958 -0.663574,0 -1.059082,0.391114 -0.391113,0.391113 -0.443848,0.971191 z"
           id="path1874" />
        <path
           d="m 66.871582,-30.043945 q -0.23291,0.06152 -0.509766,0.101074 -0.272461,0.03955 -0.487793,0.03955 -0.751464,0 -1.142578,-0.404297 -0.391113,-0.404297 -0.391113,-1.296387 v -2.610351 h -0.558105 v -0.694336 h 0.558105 v -1.410645 h 0.826172 v 1.410645 h 1.705078 v 0.694336 h -1.705078 v 2.236816 q 0,0.386719 0.01758,0.606445 0.01758,0.215332 0.123047,0.404297 0.09668,0.175781 0.263672,0.259277 0.171386,0.0791 0.518554,0.0791 0.202149,0 0.421875,-0.05713 0.219727,-0.06152 0.316407,-0.101074 h 0.04395 z"
           id="path1876" />
        <path
           d="m 73.634766,-32.465332 h -2.742188 v -0.79541 h 2.742188 z"
           id="path1878" />
        <path
           d="m 77.72168,-32.465332 h -2.742188 v -0.79541 h 2.742188 z"
           id="path1880" />
        <path
           d="m 81.808594,-32.465332 h -2.742188 v -0.79541 h 2.742188 z"
           id="path1882" />
        <path
           d="M 85.895508,-32.465332 H 83.15332 v -0.79541 h 2.742188 z"
           id="path1884" />
        <path
           d="m 89.982422,-32.465332 h -2.742188 v -0.79541 h 2.742188 z"
           id="path1886" />
        <path
           d="m 94.069336,-32.465332 h -2.742188 v -0.79541 h 2.742188 z"
           id="path1888" />
        <path
           d="m 98.15625,-32.465332 h -2.742188 v -0.79541 h 2.742188 z"
           id="path1890" />
        <path
           d="m 102.24316,-32.465332 h -2.742183 v -0.79541 h 2.742183 z"
           id="path1892" />
        <path
           d="m 106.33008,-32.465332 h -2.74219 v -0.79541 h 2.74219 z"
           id="path1894" />
        <path
           d="m 110.41699,-32.465332 h -2.74219 v -0.79541 h 2.74219 z"
           id="path1896" />
      </g>
      <g
         id="g1312">
        <g
           aria-label="*YMin"
           id="text1294">
          <path
             d="m 4.996582,-13.897949 -0.28125,0.483398 -1.5908203,-0.936035 0.026367,1.582031 H 2.5839844 l 0.021973,-1.582031 -1.5864258,0.94043 -0.28564448,-0.483399 1.67431638,-0.909668 -1.67431638,-0.909668 0.28564448,-0.483398 1.5908204,0.936035 -0.026367,-1.577637 h 0.5668945 l -0.030762,1.577637 1.5952148,-0.931641 0.28125,0.483399 -1.6699218,0.900879 z"
             id="path1817" />
          <path
             d="m 11.232422,-16.543457 -2.3027345,3.673828 V -10 H 8.0595703 v -2.777344 l -2.3115234,-3.766113 h 0.9624023 l 1.7885742,2.926758 1.8061526,-2.926758 z"
             id="path1819" />
          <path
             d="m 17.964844,-10 h -0.870117 v -5.638184 l -1.819336,3.836426 h -0.518555 l -1.806152,-3.836426 V -10 h -0.812989 v -6.543457 h 1.186524 l 1.744629,3.643066 1.6875,-3.643066 h 1.208496 z"
             id="path1821" />
          <path
             d="m 20.544434,-15.730469 h -0.931641 v -0.856933 h 0.931641 z M 20.491699,-10 h -0.826172 v -4.908691 h 0.826172 z"
             id="path1823" />
          <path
             d="m 26.230957,-10 h -0.826172 v -2.794922 q 0,-0.338379 -0.03955,-0.632812 -0.03955,-0.298829 -0.145019,-0.465821 -0.109863,-0.18457 -0.316406,-0.272461 -0.206543,-0.09228 -0.536133,-0.09228 -0.338379,0 -0.70752,0.166992 -0.36914,0.166993 -0.707519,0.42627 V -10 h -0.826172 v -4.908691 h 0.826172 v 0.544921 q 0.386718,-0.3208 0.799804,-0.500976 0.413086,-0.180176 0.848145,-0.180176 0.79541,0 1.212891,0.479004 0.41748,0.479004 0.41748,1.379883 z"
             id="path1825" />
        </g>
        <rect
           x=".5"
           y=".5"
           width="29"
           height="59"
           fill="none"
           stroke="blue"
           id="rect1296" />
        <svg
           preserveAspectRatio="xMinYMin meet"
           viewBox="0 0 30 40"
           width="30"
           height="60"
           version="1.1"
           id="svg1310">
          <rect
             x=".5"
             y=".5"
             width="29"
             height="39"
             fill="black"
             stroke="red"
             id="rect1298" />
          <g
             transform="translate(0, 5)"
             id="g1308">
            <circle
               cx="15"
               cy="15"
               r="10"
               fill="yellow"
               id="circle1300" />
            <circle
               cx="12"
               cy="12"
               r="1.5"
               fill="black"
               id="circle1302" />
            <circle
               cx="17"
               cy="12"
               r="1.5"
               fill="black"
               id="circle1304" />
            <path
               d="M 10 19 A 8 8 0 0 0 20 19"
               stroke="black"
               stroke-width="2"
               id="path1306" />
          </g>
        </svg>
      </g>
      <g
         transform="translate(50, 0)"
         id="g1332">
        <g
           aria-label="*YMid"
           id="text1314">
          <path
             d="m 4.996582,-13.897949 -0.28125,0.483398 -1.5908203,-0.936035 0.026367,1.582031 H 2.5839844 l 0.021973,-1.582031 -1.5864258,0.94043 -0.28564448,-0.483399 1.67431638,-0.909668 -1.67431638,-0.909668 0.28564448,-0.483398 1.5908204,0.936035 -0.026367,-1.577637 h 0.5668945 l -0.030762,1.577637 1.5952148,-0.931641 0.28125,0.483399 -1.6699218,0.900879 z"
             id="path1828" />
          <path
             d="m 11.232422,-16.543457 -2.3027345,3.673828 V -10 H 8.0595703 v -2.777344 l -2.3115234,-3.766113 h 0.9624023 l 1.7885742,2.926758 1.8061526,-2.926758 z"
             id="path1830" />
          <path
             d="m 17.964844,-10 h -0.870117 v -5.638184 l -1.819336,3.836426 h -0.518555 l -1.806152,-3.836426 V -10 h -0.812989 v -6.543457 h 1.186524 l 1.744629,3.643066 1.6875,-3.643066 h 1.208496 z"
             id="path1832" />
          <path
             d="m 20.544434,-15.730469 h -0.931641 v -0.856933 h 0.931641 z M 20.491699,-10 h -0.826172 v -4.908691 h 0.826172 z"
             id="path1834" />
          <path
             d="m 26.10791,-10 h -0.826172 v -0.51416 q -0.355957,0.307617 -0.742676,0.479004 -0.386718,0.1713865 -0.839355,0.1713865 -0.878906,0 -1.397461,-0.6767575 -0.51416,-0.676758 -0.51416,-1.876465 0,-0.624024 0.175781,-1.111817 0.180176,-0.487793 0.483399,-0.830566 0.298828,-0.333984 0.694336,-0.509766 0.399902,-0.175781 0.826171,-0.175781 0.386719,0 0.685547,0.0835 0.298828,0.0791 0.628418,0.250488 v -2.126953 h 0.826172 z m -0.826172,-1.208496 v -2.816895 q -0.333984,-0.149414 -0.597656,-0.206543 -0.263672,-0.05713 -0.575684,-0.05713 -0.694336,0 -1.081054,0.483399 -0.386719,0.483398 -0.386719,1.371094 0,0.874511 0.298828,1.331543 0.298828,0.452636 0.958008,0.452636 0.351562,0 0.711914,-0.153808 0.360352,-0.158203 0.672363,-0.404297 z"
             id="path1836" />
        </g>
        <rect
           x=".5"
           y=".5"
           width="29"
           height="59"
           fill="none"
           stroke="blue"
           id="rect1316" />
        <svg
           preserveAspectRatio="xMidYMid meet"
           viewBox="0 0 30 40"
           width="30"
           height="60"
           version="1.1"
           id="svg1330">
          <rect
             x=".5"
             y=".5"
             width="29"
             height="39"
             fill="black"
             stroke="red"
             id="rect1318" />
          <g
             transform="translate(0, 5)"
             id="g1328">
            <circle
               cx="15"
               cy="15"
               r="10"
               fill="yellow"
               id="circle1320" />
            <circle
               cx="12"
               cy="12"
               r="1.5"
               fill="black"
               id="circle1322" />
            <circle
               cx="17"
               cy="12"
               r="1.5"
               fill="black"
               id="circle1324" />
            <path
               d="M 10 19 A 8 8 0 0 0 20 19"
               stroke="black"
               stroke-width="2"
               id="path1326" />
          </g>
        </svg>
      </g>
      <g
         transform="translate(100, 0)"
         id="g1352">
        <g
           aria-label="*YMax"
           id="text1334">
          <path
             d="m 4.996582,-13.897949 -0.28125,0.483398 -1.5908203,-0.936035 0.026367,1.582031 H 2.5839844 l 0.021973,-1.582031 -1.5864258,0.94043 -0.28564448,-0.483399 1.67431638,-0.909668 -1.67431638,-0.909668 0.28564448,-0.483398 1.5908204,0.936035 -0.026367,-1.577637 h 0.5668945 l -0.030762,1.577637 1.5952148,-0.931641 0.28125,0.483399 -1.6699218,0.900879 z"
             id="path1839" />
          <path
             d="m 11.232422,-16.543457 -2.3027345,3.673828 V -10 H 8.0595703 v -2.777344 l -2.3115234,-3.766113 h 0.9624023 l 1.7885742,2.926758 1.8061526,-2.926758 z"
             id="path1841" />
          <path
             d="m 17.964844,-10 h -0.870117 v -5.638184 l -1.819336,3.836426 h -0.518555 l -1.806152,-3.836426 V -10 h -0.812989 v -6.543457 h 1.186524 l 1.744629,3.643066 1.6875,-3.643066 h 1.208496 z"
             id="path1843" />
          <path
             d="m 23.471191,-10 h -0.821777 v -0.522949 q -0.109863,0.07471 -0.298828,0.210937 -0.18457,0.131836 -0.360352,0.210938 -0.206543,0.101074 -0.474609,0.166992 -0.268066,0.070312 -0.628418,0.070312 -0.663574,0 -1.125,-0.4394535 -0.461426,-0.439453 -0.461426,-1.120605 0,-0.558106 0.237305,-0.900879 0.241699,-0.347168 0.685547,-0.544922 0.448242,-0.197754 1.07666,-0.268066 0.628418,-0.07031 1.349121,-0.105469 v -0.127441 q 0,-0.28125 -0.101074,-0.465821 -0.09668,-0.18457 -0.28125,-0.290039 -0.175781,-0.101074 -0.421875,-0.13623 -0.246094,-0.03516 -0.51416,-0.03516 -0.325196,0 -0.725098,0.08789 -0.399902,0.0835 -0.826172,0.246094 h -0.04395 v -0.839356 q 0.241699,-0.06592 0.69873,-0.145019 0.457032,-0.0791 0.900879,-0.0791 0.518555,0 0.900879,0.08789 0.386719,0.0835 0.667969,0.290039 0.276855,0.202148 0.421875,0.522949 0.145019,0.320801 0.145019,0.79541 z m -0.821777,-1.208496 v -1.366699 q -0.37793,0.02197 -0.89209,0.06592 -0.509765,0.04395 -0.808594,0.127441 -0.355957,0.101074 -0.575683,0.316406 -0.219727,0.210938 -0.219727,0.584473 0,0.421875 0.254883,0.637207 0.254883,0.210937 0.777832,0.210937 0.435059,0 0.79541,-0.166992 0.360352,-0.171386 0.667969,-0.408691 z"
             id="path1845" />
          <path
             d="M 29.311523,-10 H 28.27002 L 26.876953,-11.885254 25.475098,-10 h -0.962403 l 1.916016,-2.447754 -1.898438,-2.460937 h 1.041504 l 1.384278,1.854492 1.388672,-1.854492 h 0.966796 l -1.929199,2.416992 z"
             id="path1847" />
        </g>
        <rect
           x=".5"
           y=".5"
           width="29"
           height="59"
           fill="none"
           stroke="blue"
           id="rect1336" />
        <svg
           preserveAspectRatio="xMaxYMax meet"
           viewBox="0 0 30 40"
           width="30"
           height="60"
           version="1.1"
           id="svg1350">
          <rect
             x=".5"
             y=".5"
             width="29"
             height="39"
             fill="black"
             stroke="red"
             id="rect1338" />
          <g
             transform="translate(0, 5)"
             id="g1348">
            <circle
               cx="15"
               cy="15"
               r="10"
               fill="yellow"
               id="circle1340" />
            <circle
               cx="12"
               cy="12"
               r="1.5"
               fill="black"
               id="circle1342" />
            <circle
               cx="17"
               cy="12"
               r="1.5"
               fill="black"
               id="circle1344" />
            <path
               d="M 10 19 A 8 8 0 0 0 20 19"
               stroke="black"
               stroke-width="2"
               id="path1346" />
          </g>
        </svg>
      </g>
    </g>
    <g
       id="slice-group-1"
       transform="translate(100, 220)">
      <g
         aria-label="---------- slice ----------"
         id="text1355">
        <path
           d="M 3.4145508,-32.465332 H 0.67236328 v -0.79541 H 3.4145508 Z"
           id="path1899" />
        <path
           d="M 7.5014648,-32.465332 H 4.7592773 v -0.79541 h 2.7421875 z"
           id="path1901" />
        <path
           d="M 11.588379,-32.465332 H 8.8461914 v -0.79541 h 2.7421876 z"
           id="path1903" />
        <path
           d="m 15.675293,-32.465332 h -2.742188 v -0.79541 h 2.742188 z"
           id="path1905" />
        <path
           d="M 19.762207,-32.465332 H 17.02002 v -0.79541 h 2.742187 z"
           id="path1907" />
        <path
           d="m 23.849121,-32.465332 h -2.742187 v -0.79541 h 2.742187 z"
           id="path1909" />
        <path
           d="m 27.936035,-32.465332 h -2.742187 v -0.79541 h 2.742187 z"
           id="path1911" />
        <path
           d="m 32.022949,-32.465332 h -2.742187 v -0.79541 h 2.742187 z"
           id="path1913" />
        <path
           d="m 36.109863,-32.465332 h -2.742187 v -0.79541 h 2.742187 z"
           id="path1915" />
        <path
           d="M 40.196777,-32.465332 H 37.45459 v -0.79541 h 2.742187 z"
           id="path1917" />
        <path
           d="m 48.353027,-31.415039 q 0,0.672363 -0.558105,1.103027 -0.553711,0.430664 -1.516113,0.430664 -0.544922,0 -1.001954,-0.127441 -0.452636,-0.131836 -0.760253,-0.285645 v -0.927246 h 0.04395 q 0.391113,0.294434 0.870117,0.470215 0.479004,0.171387 0.918457,0.171387 0.544922,0 0.852539,-0.175781 0.307617,-0.175782 0.307617,-0.553711 0,-0.290039 -0.166992,-0.439453 -0.166992,-0.149414 -0.641601,-0.254883 -0.175782,-0.03955 -0.461426,-0.09228 -0.28125,-0.05274 -0.51416,-0.114258 -0.645996,-0.171387 -0.918457,-0.500977 -0.268067,-0.333984 -0.268067,-0.817383 0,-0.303222 0.123047,-0.571289 0.127441,-0.268066 0.382324,-0.479004 0.246094,-0.206543 0.624024,-0.325195 0.382324,-0.123047 0.852539,-0.123047 0.439453,0 0.887695,0.109864 0.452637,0.105468 0.751465,0.259277 v 0.883301 h -0.04395 q -0.316407,-0.23291 -0.769043,-0.391114 -0.452637,-0.162597 -0.887696,-0.162597 -0.452636,0 -0.764648,0.175781 -0.312012,0.171387 -0.312012,0.51416 0,0.303223 0.188965,0.457031 0.18457,0.153809 0.597656,0.250489 0.228516,0.05273 0.509766,0.105468 0.285644,0.05274 0.474609,0.09668 0.575684,0.131836 0.887696,0.452637 0.312011,0.325195 0.312011,0.861328 z"
           id="path1919" />
        <path
           d="m 50.370117,-30 h -0.826172 v -6.837891 h 0.826172 z"
           id="path1921" />
        <path
           d="m 52.892578,-35.730469 h -0.931641 v -0.856933 h 0.931641 z M 52.839844,-30 h -0.826172 v -4.908691 h 0.826172 z"
           id="path1923" />
        <path
           d="M 58.104492,-30.307617 Q 57.691406,-30.109863 57.317871,-30 q -0.369141,0.109863 -0.786621,0.109863 -0.531738,0 -0.975586,-0.153808 -0.443848,-0.158203 -0.760254,-0.47461 -0.320801,-0.316406 -0.496582,-0.799804 -0.175781,-0.483399 -0.175781,-1.129395 0,-1.204101 0.65918,-1.889648 0.663574,-0.685547 1.749023,-0.685547 0.421875,0 0.826172,0.118652 0.408691,0.118652 0.74707,0.290039 v 0.918457 h -0.04395 q -0.37793,-0.294433 -0.782227,-0.452636 -0.399902,-0.158204 -0.782226,-0.158204 -0.703125,0 -1.111817,0.47461 -0.404297,0.470215 -0.404297,1.384277 0,0.887695 0.395508,1.366699 0.399903,0.47461 1.120606,0.47461 0.250488,0 0.509765,-0.06592 0.259278,-0.06592 0.465821,-0.171387 0.180175,-0.09229 0.338379,-0.193359 0.158203,-0.105469 0.250488,-0.180176 h 0.04395 z"
           id="path1925" />
        <path
           d="m 63.272461,-32.368652 h -3.616699 q 0,0.452636 0.13623,0.791015 0.136231,0.333985 0.373535,0.549317 0.228516,0.210937 0.540528,0.316406 0.316406,0.105469 0.694336,0.105469 0.500976,0 1.006347,-0.197754 0.509766,-0.202149 0.725098,-0.395508 h 0.04395 v 0.900879 q -0.41748,0.175781 -0.852539,0.294433 -0.435058,0.118653 -0.914062,0.118653 -1.22168,0 -1.907227,-0.65918 -0.685547,-0.663574 -0.685547,-1.880859 0,-1.204102 0.654785,-1.911621 0.65918,-0.70752 1.731446,-0.70752 0.993164,0 1.529297,0.580078 0.540527,0.580078 0.540527,1.647949 z m -0.804199,-0.632813 q -0.0044,-0.65039 -0.32959,-1.006347 -0.320801,-0.355958 -0.979981,-0.355958 -0.663574,0 -1.059082,0.391114 -0.391113,0.391113 -0.443847,0.971191 z"
           id="path1927" />
        <path
           d="M 70.290527,-32.465332 H 67.54834 v -0.79541 h 2.742187 z"
           id="path1929" />
        <path
           d="m 74.377441,-32.465332 h -2.742187 v -0.79541 h 2.742187 z"
           id="path1931" />
        <path
           d="m 78.464355,-32.465332 h -2.742187 v -0.79541 h 2.742187 z"
           id="path1933" />
        <path
           d="m 82.55127,-32.465332 h -2.742188 v -0.79541 h 2.742188 z"
           id="path1935" />
        <path
           d="m 86.638184,-32.465332 h -2.742188 v -0.79541 h 2.742188 z"
           id="path1937" />
        <path
           d="M 90.725098,-32.465332 H 87.98291 v -0.79541 h 2.742188 z"
           id="path1939" />
        <path
           d="m 94.812012,-32.465332 h -2.742188 v -0.79541 h 2.742188 z"
           id="path1941" />
        <path
           d="m 98.898926,-32.465332 h -2.742188 v -0.79541 h 2.742188 z"
           id="path1943" />
        <path
           d="m 102.98584,-32.465332 h -2.74219 v -0.79541 h 2.74219 z"
           id="path1945" />
        <path
           d="m 107.07275,-32.465332 h -2.74218 v -0.79541 h 2.74218 z"
           id="path1947" />
      </g>
      <g
         id="g1375">
        <g
           aria-label="xMin*"
           id="text1357">
          <path
             d="M 5.0625,-10 H 4.0209961 L 2.6279297,-11.885254 1.2260742,-10 H 0.26367188 L 2.1796875,-12.447754 0.28125,-14.908691 h 1.0415039 l 1.3842774,1.854492 1.3886718,-1.854492 H 5.0625 l -1.9291992,2.416992 z"
             id="path1950" />
          <path
             d="m 12.032227,-10 h -0.870118 v -5.638184 l -1.8193356,3.836426 H 8.8242188 L 7.0180664,-15.638184 V -10 H 6.2050781 v -6.543457 h 1.1865235 l 1.7446289,3.643066 1.6874995,-3.643066 h 1.208497 z"
             id="path1952" />
          <path
             d="m 14.611816,-15.730469 h -0.93164 v -0.856933 h 0.93164 z M 14.559082,-10 H 13.73291 v -4.908691 h 0.826172 z"
             id="path1954" />
          <path
             d="m 20.29834,-10 h -0.826172 v -2.794922 q 0,-0.338379 -0.03955,-0.632812 -0.03955,-0.298829 -0.145019,-0.465821 -0.109864,-0.18457 -0.316407,-0.272461 -0.206543,-0.09228 -0.536132,-0.09228 -0.338379,0 -0.70752,0.166992 -0.369141,0.166993 -0.707519,0.42627 V -10 h -0.826172 v -4.908691 h 0.826172 v 0.544921 q 0.386718,-0.3208 0.799804,-0.500976 0.413086,-0.180176 0.848145,-0.180176 0.79541,0 1.21289,0.479004 0.417481,0.479004 0.417481,1.379883 z"
             id="path1956" />
          <path
             d="m 26.072754,-13.897949 -0.28125,0.483398 -1.59082,-0.936035 0.02637,1.582031 h -0.566895 l 0.02197,-1.582031 -1.586426,0.94043 -0.285644,-0.483399 1.674316,-0.909668 -1.674316,-0.909668 0.285644,-0.483398 1.59082,0.936035 -0.02637,-1.577637 h 0.566895 l -0.03076,1.577637 1.595215,-0.931641 0.28125,0.483399 -1.669922,0.900879 z"
             id="path1958" />
        </g>
        <rect
           x=".5"
           y=".5"
           width="29"
           height="59"
           fill="none"
           stroke="blue"
           id="rect1359" />
        <svg
           preserveAspectRatio="xMinYMin slice"
           viewBox="0 0 30 40"
           width="30"
           height="60"
           version="1.1"
           id="svg1373">
          <rect
             x=".5"
             y=".5"
             width="29"
             height="39"
             fill="black"
             stroke="red"
             id="rect1361" />
          <g
             transform="translate(0, 5)"
             id="g1371">
            <circle
               cx="15"
               cy="15"
               r="10"
               fill="yellow"
               id="circle1363" />
            <circle
               cx="12"
               cy="12"
               r="1.5"
               fill="black"
               id="circle1365" />
            <circle
               cx="17"
               cy="12"
               r="1.5"
               fill="black"
               id="circle1367" />
            <path
               d="M 10 19 A 8 8 0 0 0 20 19"
               stroke="black"
               stroke-width="2"
               id="path1369" />
          </g>
        </svg>
      </g>
      <g
         transform="translate(50,0)"
         id="g1395">
        <g
           aria-label="xMid*"
           id="text1377">
          <path
             d="M 5.0625,-10 H 4.0209961 L 2.6279297,-11.885254 1.2260742,-10 H 0.26367188 L 2.1796875,-12.447754 0.28125,-14.908691 h 1.0415039 l 1.3842774,1.854492 1.3886718,-1.854492 H 5.0625 l -1.9291992,2.416992 z"
             id="path1961" />
          <path
             d="m 12.032227,-10 h -0.870118 v -5.638184 l -1.8193356,3.836426 H 8.8242188 L 7.0180664,-15.638184 V -10 H 6.2050781 v -6.543457 h 1.1865235 l 1.7446289,3.643066 1.6874995,-3.643066 h 1.208497 z"
             id="path1963" />
          <path
             d="m 14.611816,-15.730469 h -0.93164 v -0.856933 h 0.93164 z M 14.559082,-10 H 13.73291 v -4.908691 h 0.826172 z"
             id="path1965" />
          <path
             d="m 20.175293,-10 h -0.826172 v -0.51416 q -0.355957,0.307617 -0.742676,0.479004 -0.386718,0.1713865 -0.839355,0.1713865 -0.878906,0 -1.397461,-0.6767575 -0.51416,-0.676758 -0.51416,-1.876465 0,-0.624024 0.175781,-1.111817 0.180176,-0.487793 0.483398,-0.830566 0.298829,-0.333984 0.694336,-0.509766 0.399903,-0.175781 0.826172,-0.175781 0.386719,0 0.685547,0.0835 0.298828,0.0791 0.628418,0.250488 v -2.126953 h 0.826172 z m -0.826172,-1.208496 v -2.816895 q -0.333984,-0.149414 -0.597656,-0.206543 -0.263672,-0.05713 -0.575684,-0.05713 -0.694336,0 -1.081054,0.483399 -0.386719,0.483398 -0.386719,1.371094 0,0.874511 0.298828,1.331543 0.298828,0.452636 0.958008,0.452636 0.351562,0 0.711914,-0.153808 0.360351,-0.158203 0.672363,-0.404297 z"
             id="path1967" />
          <path
             d="m 25.984863,-13.897949 -0.28125,0.483398 -1.59082,-0.936035 0.02637,1.582031 h -0.566894 l 0.02197,-1.582031 -1.586426,0.94043 -0.285644,-0.483399 1.674316,-0.909668 -1.674316,-0.909668 0.285644,-0.483398 1.590821,0.936035 -0.02637,-1.577637 h 0.566894 l -0.03076,1.577637 1.595215,-0.931641 0.28125,0.483399 -1.669922,0.900879 z"
             id="path1969" />
        </g>
        <rect
           x=".5"
           y=".5"
           width="29"
           height="59"
           fill="none"
           stroke="blue"
           id="rect1379" />
        <svg
           preserveAspectRatio="xMidYMid slice"
           viewBox="0 0 30 40"
           width="30"
           height="60"
           version="1.1"
           id="svg1393">
          <rect
             x=".5"
             y=".5"
             width="29"
             height="39"
             fill="black"
             stroke="red"
             id="rect1381" />
          <g
             transform="translate(0, 5)"
             id="g1391">
            <circle
               cx="15"
               cy="15"
               r="10"
               fill="yellow"
               id="circle1383" />
            <circle
               cx="12"
               cy="12"
               r="1.5"
               fill="black"
               id="circle1385" />
            <circle
               cx="17"
               cy="12"
               r="1.5"
               fill="black"
               id="circle1387" />
            <path
               d="M 10 19 A 8 8 0 0 0 20 19"
               stroke="black"
               stroke-width="2"
               id="path1389" />
          </g>
        </svg>
      </g>
      <g
         transform="translate(100,0)"
         id="g1415">
        <g
           aria-label="xMax*"
           id="text1397">
          <path
             d="M 5.0625,-10 H 4.0209961 L 2.6279297,-11.885254 1.2260742,-10 H 0.26367188 L 2.1796875,-12.447754 0.28125,-14.908691 h 1.0415039 l 1.3842774,1.854492 1.3886718,-1.854492 H 5.0625 l -1.9291992,2.416992 z"
             id="path1972" />
          <path
             d="m 12.032227,-10 h -0.870118 v -5.638184 l -1.8193356,3.836426 H 8.8242188 L 7.0180664,-15.638184 V -10 H 6.2050781 v -6.543457 h 1.1865235 l 1.7446289,3.643066 1.6874995,-3.643066 h 1.208497 z"
             id="path1974" />
          <path
             d="m 17.538574,-10 h -0.821777 v -0.522949 q -0.109863,0.07471 -0.298828,0.210937 -0.184571,0.131836 -0.360352,0.210938 -0.206543,0.101074 -0.474609,0.166992 -0.268067,0.070312 -0.628418,0.070312 -0.663574,0 -1.125,-0.4394535 -0.461426,-0.439453 -0.461426,-1.120605 0,-0.558106 0.237305,-0.900879 0.241699,-0.347168 0.685547,-0.544922 0.448242,-0.197754 1.07666,-0.268066 0.628418,-0.07031 1.349121,-0.105469 v -0.127441 q 0,-0.28125 -0.101074,-0.465821 -0.09668,-0.18457 -0.28125,-0.290039 -0.175782,-0.101074 -0.421875,-0.13623 -0.246094,-0.03516 -0.51416,-0.03516 -0.325196,0 -0.725098,0.08789 -0.399902,0.0835 -0.826172,0.246094 h -0.04395 v -0.839356 q 0.241699,-0.06592 0.69873,-0.145019 0.457031,-0.0791 0.900879,-0.0791 0.518555,0 0.900879,0.08789 0.386719,0.0835 0.667969,0.290039 0.276855,0.202148 0.421875,0.522949 0.145019,0.320801 0.145019,0.79541 z m -0.821777,-1.208496 v -1.366699 q -0.37793,0.02197 -0.89209,0.06592 -0.509766,0.04395 -0.808594,0.127441 -0.355957,0.101074 -0.575683,0.316406 -0.219727,0.210938 -0.219727,0.584473 0,0.421875 0.254883,0.637207 0.254883,0.210937 0.777832,0.210937 0.435059,0 0.79541,-0.166992 0.360352,-0.171386 0.667969,-0.408691 z"
             id="path1976" />
          <path
             d="M 23.378906,-10 H 22.337402 L 20.944336,-11.885254 19.54248,-10 h -0.962402 l 1.916016,-2.447754 -1.898438,-2.460937 h 1.041504 l 1.384277,1.854492 1.388672,-1.854492 h 0.966797 l -1.929199,2.416992 z"
             id="path1978" />
          <path
             d="m 28.63916,-13.897949 -0.28125,0.483398 -1.59082,-0.936035 0.02637,1.582031 h -0.566895 l 0.02197,-1.582031 -1.586426,0.94043 -0.285644,-0.483399 1.674316,-0.909668 -1.674316,-0.909668 0.285644,-0.483398 1.590821,0.936035 -0.02637,-1.577637 h 0.566895 l -0.03076,1.577637 1.595215,-0.931641 0.28125,0.483399 -1.669922,0.900879 z"
             id="path1980" />
        </g>
        <rect
           x=".5"
           y=".5"
           width="29"
           height="59"
           fill="none"
           stroke="blue"
           id="rect1399" />
        <svg
           preserveAspectRatio="xMaxYMax slice"
           viewBox="0 0 30 40"
           width="30"
           height="60"
           version="1.1"
           id="svg1413">
          <rect
             x=".5"
             y=".5"
             width="29"
             height="39"
             fill="black"
             stroke="red"
             id="rect1401" />
          <g
             transform="translate(0, 5)"
             id="g1411">
            <circle
               cx="15"
               cy="15"
               r="10"
               fill="yellow"
               id="circle1403" />
            <circle
               cx="12"
               cy="12"
               r="1.5"
               fill="black"
               id="circle1405" />
            <circle
               cx="17"
               cy="12"
               r="1.5"
               fill="black"
               id="circle1407" />
            <path
               d="M 10 19 A 8 8 0 0 0 20 19"
               stroke="black"
               stroke-width="2"
               id="path1409" />
          </g>
        </svg>
      </g>
    </g>
    <g
       id="slice-group-2"
       transform="translate(250, 220)">
      <g
         aria-label="--------------- slice ---------------"
         id="text1418">
        <path
           d="M 3.4145508,-32.465332 H 0.67236328 v -0.79541 H 3.4145508 Z"
           id="path1983" />
        <path
           d="M 7.5014648,-32.465332 H 4.7592773 v -0.79541 h 2.7421875 z"
           id="path1985" />
        <path
           d="M 11.588379,-32.465332 H 8.8461914 v -0.79541 h 2.7421876 z"
           id="path1987" />
        <path
           d="m 15.675293,-32.465332 h -2.742188 v -0.79541 h 2.742188 z"
           id="path1989" />
        <path
           d="M 19.762207,-32.465332 H 17.02002 v -0.79541 h 2.742187 z"
           id="path1991" />
        <path
           d="m 23.849121,-32.465332 h -2.742187 v -0.79541 h 2.742187 z"
           id="path1993" />
        <path
           d="m 27.936035,-32.465332 h -2.742187 v -0.79541 h 2.742187 z"
           id="path1995" />
        <path
           d="m 32.022949,-32.465332 h -2.742187 v -0.79541 h 2.742187 z"
           id="path1997" />
        <path
           d="m 36.109863,-32.465332 h -2.742187 v -0.79541 h 2.742187 z"
           id="path1999" />
        <path
           d="M 40.196777,-32.465332 H 37.45459 v -0.79541 h 2.742187 z"
           id="path2001" />
        <path
           d="m 44.283691,-32.465332 h -2.742187 v -0.79541 h 2.742187 z"
           id="path2003" />
        <path
           d="m 48.370605,-32.465332 h -2.742187 v -0.79541 h 2.742187 z"
           id="path2005" />
        <path
           d="m 52.45752,-32.465332 h -2.742188 v -0.79541 h 2.742188 z"
           id="path2007" />
        <path
           d="m 56.544434,-32.465332 h -2.742188 v -0.79541 h 2.742188 z"
           id="path2009" />
        <path
           d="M 60.631348,-32.465332 H 57.88916 v -0.79541 h 2.742188 z"
           id="path2011" />
        <path
           d="m 68.787598,-31.415039 q 0,0.672363 -0.558106,1.103027 -0.553711,0.430664 -1.516113,0.430664 -0.544922,0 -1.001953,-0.127441 -0.452637,-0.131836 -0.760254,-0.285645 v -0.927246 h 0.04394 q 0.391113,0.294434 0.870117,0.470215 0.479004,0.171387 0.918457,0.171387 0.544922,0 0.852539,-0.175781 0.307618,-0.175782 0.307618,-0.553711 0,-0.290039 -0.166993,-0.439453 -0.166992,-0.149414 -0.641601,-0.254883 -0.175781,-0.03955 -0.461426,-0.09228 -0.28125,-0.05274 -0.51416,-0.114258 -0.645996,-0.171387 -0.918457,-0.500977 -0.268066,-0.333984 -0.268066,-0.817383 0,-0.303222 0.123046,-0.571289 0.127442,-0.268066 0.382325,-0.479004 0.246093,-0.206543 0.624023,-0.325195 0.382324,-0.123047 0.852539,-0.123047 0.439453,0 0.887695,0.109864 0.452637,0.105468 0.751465,0.259277 v 0.883301 h -0.04395 q -0.316406,-0.23291 -0.769043,-0.391114 -0.452637,-0.162597 -0.887695,-0.162597 -0.452637,0 -0.764649,0.175781 -0.312011,0.171387 -0.312011,0.51416 0,0.303223 0.188964,0.457031 0.184571,0.153809 0.597657,0.250489 0.228515,0.05273 0.509765,0.105468 0.285645,0.05274 0.47461,0.09668 0.575683,0.131836 0.887695,0.452637 0.312012,0.325195 0.312012,0.861328 z"
           id="path2013" />
        <path
           d="m 70.804687,-30 h -0.826171 v -6.837891 h 0.826171 z"
           id="path2015" />
        <path
           d="m 73.327148,-35.730469 h -0.93164 v -0.856933 h 0.93164 z M 73.274414,-30 h -0.826172 v -4.908691 h 0.826172 z"
           id="path2017" />
        <path
           d="M 78.539062,-30.307617 Q 78.125977,-30.109863 77.752441,-30 q -0.36914,0.109863 -0.786621,0.109863 -0.531738,0 -0.975586,-0.153808 -0.443847,-0.158203 -0.760254,-0.47461 -0.3208,-0.316406 -0.496582,-0.799804 -0.175781,-0.483399 -0.175781,-1.129395 0,-1.204101 0.65918,-1.889648 0.663574,-0.685547 1.749023,-0.685547 0.421875,0 0.826172,0.118652 0.408692,0.118652 0.74707,0.290039 v 0.918457 h -0.04395 q -0.37793,-0.294433 -0.782226,-0.452636 -0.399903,-0.158204 -0.782227,-0.158204 -0.703125,0 -1.111816,0.47461 -0.404297,0.470215 -0.404297,1.384277 0,0.887695 0.395508,1.366699 0.399902,0.47461 1.120605,0.47461 0.250488,0 0.509766,-0.06592 0.259277,-0.06592 0.46582,-0.171387 0.180176,-0.09229 0.338379,-0.193359 0.158203,-0.105469 0.250488,-0.180176 h 0.04395 z"
           id="path2019" />
        <path
           d="m 83.707031,-32.368652 h -3.616699 q 0,0.452636 0.13623,0.791015 0.136231,0.333985 0.373536,0.549317 0.228515,0.210937 0.540527,0.316406 0.316406,0.105469 0.694336,0.105469 0.500976,0 1.006348,-0.197754 0.509765,-0.202149 0.725097,-0.395508 h 0.04395 v 0.900879 q -0.417481,0.175781 -0.85254,0.294433 -0.435058,0.118653 -0.914062,0.118653 -1.22168,0 -1.907227,-0.65918 -0.685546,-0.663574 -0.685546,-1.880859 0,-1.204102 0.654785,-1.911621 0.659179,-0.70752 1.731445,-0.70752 0.993164,0 1.529297,0.580078 0.540527,0.580078 0.540527,1.647949 z m -0.804199,-0.632813 q -0.0044,-0.65039 -0.32959,-1.006347 -0.320801,-0.355958 -0.97998,-0.355958 -0.663575,0 -1.059082,0.391114 -0.391114,0.391113 -0.443848,0.971191 z"
           id="path2021" />
        <path
           d="M 90.725098,-32.465332 H 87.98291 v -0.79541 h 2.742188 z"
           id="path2023" />
        <path
           d="m 94.812012,-32.465332 h -2.742188 v -0.79541 h 2.742188 z"
           id="path2025" />
        <path
           d="m 98.898926,-32.465332 h -2.742188 v -0.79541 h 2.742188 z"
           id="path2027" />
        <path
           d="m 102.98584,-32.465332 h -2.74219 v -0.79541 h 2.74219 z"
           id="path2029" />
        <path
           d="m 107.07275,-32.465332 h -2.74218 v -0.79541 h 2.74218 z"
           id="path2031" />
        <path
           d="m 111.15967,-32.465332 h -2.74219 v -0.79541 h 2.74219 z"
           id="path2033" />
        <path
           d="m 115.24658,-32.465332 h -2.74219 v -0.79541 h 2.74219 z"
           id="path2035" />
        <path
           d="m 119.3335,-32.465332 h -2.74219 v -0.79541 h 2.74219 z"
           id="path2037" />
        <path
           d="m 123.42041,-32.465332 h -2.74219 v -0.79541 h 2.74219 z"
           id="path2039" />
        <path
           d="m 127.50732,-32.465332 h -2.74218 v -0.79541 h 2.74218 z"
           id="path2041" />
        <path
           d="m 131.59424,-32.465332 h -2.74219 v -0.79541 h 2.74219 z"
           id="path2043" />
        <path
           d="m 135.68115,-32.465332 h -2.74219 v -0.79541 h 2.74219 z"
           id="path2045" />
        <path
           d="m 139.76807,-32.465332 h -2.74219 v -0.79541 h 2.74219 z"
           id="path2047" />
        <path
           d="m 143.85498,-32.465332 h -2.74219 v -0.79541 h 2.74219 z"
           id="path2049" />
        <path
           d="m 147.94189,-32.465332 h -2.74218 v -0.79541 h 2.74218 z"
           id="path2051" />
      </g>
      <g
         id="g1438">
        <g
           aria-label="*YMin"
           id="text1420">
          <path
             d="m 4.996582,-13.897949 -0.28125,0.483398 -1.5908203,-0.936035 0.026367,1.582031 H 2.5839844 l 0.021973,-1.582031 -1.5864258,0.94043 -0.28564448,-0.483399 1.67431638,-0.909668 -1.67431638,-0.909668 0.28564448,-0.483398 1.5908204,0.936035 -0.026367,-1.577637 h 0.5668945 l -0.030762,1.577637 1.5952148,-0.931641 0.28125,0.483399 -1.6699218,0.900879 z"
             id="path2054" />
          <path
             d="m 11.232422,-16.543457 -2.3027345,3.673828 V -10 H 8.0595703 v -2.777344 l -2.3115234,-3.766113 h 0.9624023 l 1.7885742,2.926758 1.8061526,-2.926758 z"
             id="path2056" />
          <path
             d="m 17.964844,-10 h -0.870117 v -5.638184 l -1.819336,3.836426 h -0.518555 l -1.806152,-3.836426 V -10 h -0.812989 v -6.543457 h 1.186524 l 1.744629,3.643066 1.6875,-3.643066 h 1.208496 z"
             id="path2058" />
          <path
             d="m 20.544434,-15.730469 h -0.931641 v -0.856933 h 0.931641 z M 20.491699,-10 h -0.826172 v -4.908691 h 0.826172 z"
             id="path2060" />
          <path
             d="m 26.230957,-10 h -0.826172 v -2.794922 q 0,-0.338379 -0.03955,-0.632812 -0.03955,-0.298829 -0.145019,-0.465821 -0.109863,-0.18457 -0.316406,-0.272461 -0.206543,-0.09228 -0.536133,-0.09228 -0.338379,0 -0.70752,0.166992 -0.36914,0.166993 -0.707519,0.42627 V -10 h -0.826172 v -4.908691 h 0.826172 v 0.544921 q 0.386718,-0.3208 0.799804,-0.500976 0.413086,-0.180176 0.848145,-0.180176 0.79541,0 1.212891,0.479004 0.41748,0.479004 0.41748,1.379883 z"
             id="path2062" />
        </g>
        <rect
           x=".5"
           y=".5"
           width="49"
           height="29"
           fill="none"
           stroke="blue"
           id="rect1422" />
        <svg
           preserveAspectRatio="xMinYMin slice"
           viewBox="0 0 30 40"
           width="50"
           height="30"
           version="1.1"
           id="svg1436">
          <rect
             x=".5"
             y=".5"
             width="29"
             height="39"
             fill="black"
             stroke="red"
             id="rect1424" />
          <g
             transform="translate(0, 5)"
             id="g1434">
            <circle
               cx="15"
               cy="15"
               r="10"
               fill="yellow"
               id="circle1426" />
            <circle
               cx="12"
               cy="12"
               r="1.5"
               fill="black"
               id="circle1428" />
            <circle
               cx="17"
               cy="12"
               r="1.5"
               fill="black"
               id="circle1430" />
            <path
               d="M 10 19 A 8 8 0 0 0 20 19"
               stroke="black"
               stroke-width="2"
               id="path1432" />
          </g>
        </svg>
      </g>
      <g
         transform="translate(70,0)"
         id="g1458">
        <g
           aria-label="*YMid"
           id="text1440">
          <path
             d="m 4.996582,-13.897949 -0.28125,0.483398 -1.5908203,-0.936035 0.026367,1.582031 H 2.5839844 l 0.021973,-1.582031 -1.5864258,0.94043 -0.28564448,-0.483399 1.67431638,-0.909668 -1.67431638,-0.909668 0.28564448,-0.483398 1.5908204,0.936035 -0.026367,-1.577637 h 0.5668945 l -0.030762,1.577637 1.5952148,-0.931641 0.28125,0.483399 -1.6699218,0.900879 z"
             id="path2065" />
          <path
             d="m 11.232422,-16.543457 -2.3027345,3.673828 V -10 H 8.0595703 v -2.777344 l -2.3115234,-3.766113 h 0.9624023 l 1.7885742,2.926758 1.8061526,-2.926758 z"
             id="path2067" />
          <path
             d="m 17.964844,-10 h -0.870117 v -5.638184 l -1.819336,3.836426 h -0.518555 l -1.806152,-3.836426 V -10 h -0.812989 v -6.543457 h 1.186524 l 1.744629,3.643066 1.6875,-3.643066 h 1.208496 z"
             id="path2069" />
          <path
             d="m 20.544434,-15.730469 h -0.931641 v -0.856933 h 0.931641 z M 20.491699,-10 h -0.826172 v -4.908691 h 0.826172 z"
             id="path2071" />
          <path
             d="m 26.10791,-10 h -0.826172 v -0.51416 q -0.355957,0.307617 -0.742676,0.479004 -0.386718,0.1713865 -0.839355,0.1713865 -0.878906,0 -1.397461,-0.6767575 -0.51416,-0.676758 -0.51416,-1.876465 0,-0.624024 0.175781,-1.111817 0.180176,-0.487793 0.483399,-0.830566 0.298828,-0.333984 0.694336,-0.509766 0.399902,-0.175781 0.826171,-0.175781 0.386719,0 0.685547,0.0835 0.298828,0.0791 0.628418,0.250488 v -2.126953 h 0.826172 z m -0.826172,-1.208496 v -2.816895 q -0.333984,-0.149414 -0.597656,-0.206543 -0.263672,-0.05713 -0.575684,-0.05713 -0.694336,0 -1.081054,0.483399 -0.386719,0.483398 -0.386719,1.371094 0,0.874511 0.298828,1.331543 0.298828,0.452636 0.958008,0.452636 0.351562,0 0.711914,-0.153808 0.360352,-0.158203 0.672363,-0.404297 z"
             id="path2073" />
        </g>
        <rect
           x=".5"
           y=".5"
           width="49"
           height="29"
           fill="none"
           stroke="blue"
           id="rect1442" />
        <svg
           preserveAspectRatio="xMidYMid slice"
           viewBox="0 0 30 40"
           width="50"
           height="30"
           version="1.1"
           id="svg1456">
          <rect
             x=".5"
             y=".5"
             width="29"
             height="39"
             fill="black"
             stroke="red"
             id="rect1444" />
          <g
             transform="translate(0, 5)"
             id="g1454">
            <circle
               cx="15"
               cy="15"
               r="10"
               fill="yellow"
               id="circle1446" />
            <circle
               cx="12"
               cy="12"
               r="1.5"
               fill="black"
               id="circle1448" />
            <circle
               cx="17"
               cy="12"
               r="1.5"
               fill="black"
               id="circle1450" />
            <path
               d="M 10 19 A 8 8 0 0 0 20 19"
               stroke="black"
               stroke-width="2"
               id="path1452" />
          </g>
        </svg>
      </g>
      <g
         transform="translate(140,0)"
         id="g1478">
        <g
           aria-label="*YMax"
           id="text1460">
          <path
             d="m 4.996582,-13.897949 -0.28125,0.483398 -1.5908203,-0.936035 0.026367,1.582031 H 2.5839844 l 0.021973,-1.582031 -1.5864258,0.94043 -0.28564448,-0.483399 1.67431638,-0.909668 -1.67431638,-0.909668 0.28564448,-0.483398 1.5908204,0.936035 -0.026367,-1.577637 h 0.5668945 l -0.030762,1.577637 1.5952148,-0.931641 0.28125,0.483399 -1.6699218,0.900879 z"
             id="path2076" />
          <path
             d="m 11.232422,-16.543457 -2.3027345,3.673828 V -10 H 8.0595703 v -2.777344 l -2.3115234,-3.766113 h 0.9624023 l 1.7885742,2.926758 1.8061526,-2.926758 z"
             id="path2078" />
          <path
             d="m 17.964844,-10 h -0.870117 v -5.638184 l -1.819336,3.836426 h -0.518555 l -1.806152,-3.836426 V -10 h -0.812989 v -6.543457 h 1.186524 l 1.744629,3.643066 1.6875,-3.643066 h 1.208496 z"
             id="path2080" />
          <path
             d="m 23.471191,-10 h -0.821777 v -0.522949 q -0.109863,0.07471 -0.298828,0.210937 -0.18457,0.131836 -0.360352,0.210938 -0.206543,0.101074 -0.474609,0.166992 -0.268066,0.070312 -0.628418,0.070312 -0.663574,0 -1.125,-0.4394535 -0.461426,-0.439453 -0.461426,-1.120605 0,-0.558106 0.237305,-0.900879 0.241699,-0.347168 0.685547,-0.544922 0.448242,-0.197754 1.07666,-0.268066 0.628418,-0.07031 1.349121,-0.105469 v -0.127441 q 0,-0.28125 -0.101074,-0.465821 -0.09668,-0.18457 -0.28125,-0.290039 -0.175781,-0.101074 -0.421875,-0.13623 -0.246094,-0.03516 -0.51416,-0.03516 -0.325196,0 -0.725098,0.08789 -0.399902,0.0835 -0.826172,0.246094 h -0.04395 v -0.839356 q 0.241699,-0.06592 0.69873,-0.145019 0.457032,-0.0791 0.900879,-0.0791 0.518555,0 0.900879,0.08789 0.386719,0.0835 0.667969,0.290039 0.276855,0.202148 0.421875,0.522949 0.145019,0.320801 0.145019,0.79541 z m -0.821777,-1.208496 v -1.366699 q -0.37793,0.02197 -0.89209,0.06592 -0.509765,0.04395 -0.808594,0.127441 -0.355957,0.101074 -0.575683,0.316406 -0.219727,0.210938 -0.219727,0.584473 0,0.421875 0.254883,0.637207 0.254883,0.210937 0.777832,0.210937 0.435059,0 0.79541,-0.166992 0.360352,-0.171386 0.667969,-0.408691 z"
             id="path2082" />
          <path
             d="M 29.311523,-10 H 28.27002 L 26.876953,-11.885254 25.475098,-10 h -0.962403 l 1.916016,-2.447754 -1.898438,-2.460937 h 1.041504 l 1.384278,1.854492 1.388672,-1.854492 h 0.966796 l -1.929199,2.416992 z"
             id="path2084" />
        </g>
        <rect
           x=".5"
           y=".5"
           width="49"
           height="29"
           fill="none"
           stroke="blue"
           id="rect1462" />
        <svg
           preserveAspectRatio="xMaxYMax slice"
           viewBox="0 0 30 40"
           width="50"
           height="30"
           version="1.1"
           id="svg1476">
          <rect
             x=".5"
             y=".5"
             width="29"
             height="39"
             fill="black"
             stroke="red"
             id="rect1464" />
          <g
             transform="translate(0, 5)"
             id="g1474">
            <circle
               cx="15"
               cy="15"
               r="10"
               fill="yellow"
               id="circle1466" />
            <circle
               cx="12"
               cy="12"
               r="1.5"
               fill="black"
               id="circle1468" />
            <circle
               cx="17"
               cy="12"
               r="1.5"
               fill="black"
               id="circle1470" />
            <path
               d="M 10 19 A 8 8 0 0 0 20 19"
               stroke="black"
               stroke-width="2"
               id="path1472" />
          </g>
        </svg>
      </g>
    </g>
  </g>
</svg>
