<?xml version="1.0" encoding="UTF-8" standalone="no"?>
<svg
   width="400px"
   height="120px"
   version="1.1"
   id="svg1072"
   xmlns="http://www.w3.org/2000/svg"
   xmlns:svg="http://www.w3.org/2000/svg">
  <defs
     id="defs1076" />
  <desc
     id="desc1040">Example RotateScale - Rotate and scale transforms</desc>
  <g
     fill="none"
     stroke="black"
     stroke-width="3"
     id="g1046">
    <!-- Draw the axes of the original coordinate system -->
    <line
       x1="0"
       y1="1.5"
       x2="400"
       y2="1.5"
       id="line1042" />
    <line
       x1="1.5"
       y1="0"
       x2="1.5"
       y2="120"
       id="line1044" />
  </g>
  <!-- Establish a new coordinate system whose origin is at (50,30)
       in the initial coord. system and which is rotated by 30 degrees. -->
  <g
     transform="translate(50,30)"
     id="g1058">
    <g
       transform="rotate(30)"
       id="g1056">
      <g
         fill="none"
         stroke="red"
         stroke-width="3"
         id="g1052">
        <line
           x1="0"
           y1="0"
           x2="50"
           y2="0"
           id="line1048" />
        <line
           x1="0"
           y1="0"
           x2="0"
           y2="50"
           id="line1050" />
      </g>
      <g
         aria-label="ABC (rotate)"
         id="text1054"
         style="font-size:20px;font-family:Verdana;fill:#0000ff">
        <path
           d="M 13.417969,0 H 11.357422 L 9.9316406,-4.0527344 H 3.6425781 L 2.2167969,0 H 0.25390625 L 5.546875,-14.541016 H 8.125 Z M 9.3359375,-5.7128906 6.7871094,-12.851563 4.2285156,-5.7128906 Z"
           id="path1195" />
        <path
           d="m 26.591797,-4.4726562 q 0,1.0839843 -0.410156,1.9140624 -0.410157,0.8300782 -1.103516,1.3671876 -0.820313,0.6445312 -1.806641,0.9179687 Q 22.294922,0 20.78125,0 H 15.625 v -14.541016 h 4.306641 q 1.591796,0 2.382812,0.117188 0.791016,0.117187 1.513672,0.488281 0.800781,0.419922 1.162109,1.083984 0.361328,0.654297 0.361328,1.572266 0,1.035156 -0.527343,1.7675782 -0.527344,0.7226563 -1.40625,1.1621094 v 0.078125 q 1.474609,0.3027344 2.324218,1.2988282 0.84961,0.9863281 0.84961,2.5 z m -3.251953,-6.5527348 q 0,-0.527343 -0.175782,-0.888672 -0.175781,-0.361328 -0.566406,-0.585937 -0.458984,-0.263672 -1.113281,-0.322266 -0.654297,-0.06836 -1.621094,-0.06836 h -2.304687 v 4.1992187 h 2.5 q 0.908203,0 1.445312,-0.087891 0.53711,-0.097656 0.996094,-0.390625 0.458984,-0.2929687 0.644531,-0.7519531 0.195313,-0.46875 0.195313,-1.103516 z m 1.240234,6.6308598 q 0,-0.8789063 -0.263672,-1.3964844 -0.263672,-0.5175781 -0.957031,-0.8789063 -0.46875,-0.2441406 -1.142578,-0.3125 -0.664063,-0.078125 -1.621094,-0.078125 h -3.037109 v 5.4101563 h 2.558593 q 1.269532,0 2.080079,-0.1269531 0.810546,-0.1367188 1.328125,-0.4882813 0.546875,-0.3808594 0.800781,-0.8691406 0.253906,-0.4882813 0.253906,-1.2597656 z"
           id="path1197" />
        <path
           d="m 40.566406,-1.0546875 q -0.537109,0.234375 -0.976562,0.43945313 -0.429688,0.20507812 -1.132813,0.4296875 Q 37.861328,0 37.158203,0.12695312 36.464844,0.26367188 35.625,0.26367188 q -1.582031,0 -2.880859,-0.43945313 Q 31.455078,-0.625 30.498047,-1.5722656 29.560547,-2.5 29.033203,-3.9257813 q -0.527344,-1.4355468 -0.527344,-3.3300781 0,-1.796875 0.507813,-3.2128906 0.507812,-1.416016 1.464844,-2.392578 0.927734,-0.947266 2.236328,-1.445313 1.318359,-0.498047 2.919922,-0.498047 1.171875,0 2.333984,0.283204 1.171875,0.283203 2.597656,0.996093 v 2.294922 h -0.146484 q -1.201172,-1.005859 -2.382813,-1.464844 -1.18164,-0.458984 -2.529297,-0.458984 -1.103515,0 -1.992187,0.361328 -0.878906,0.351563 -1.572266,1.103516 -0.673828,0.732422 -1.054687,1.8554686 -0.371094,1.1132813 -0.371094,2.578125 0,1.5332032 0.410156,2.6367188 0.419922,1.1035156 1.074219,1.796875 0.683594,0.7226562 1.591797,1.0742187 0.917969,0.3417969 1.933594,0.3417969 1.396484,0 2.617187,-0.4785156 1.220703,-0.4785157 2.285156,-1.4355469 h 0.136719 z"
           id="path1199" />
        <path
           d="M 56.025391,4.0234375 H 53.789062 Q 52.060547,2.0410156 51.103516,-0.30273438 50.146484,-2.6464844 50.146484,-5.5859375 q 0,-2.9394531 0.957032,-5.2832035 0.957031,-2.34375 2.685546,-4.326172 h 2.236329 v 0.09766 q -0.791016,0.71289 -1.513672,1.65039 -0.712891,0.927735 -1.328125,2.167969 -0.585938,1.201172 -0.957032,2.6464845 -0.361328,1.4453125 -0.361328,3.046875 0,1.6699219 0.351563,3.0566406 0.361328,1.3867188 0.966797,2.63671877 0.585937,1.20117183 1.33789,2.16796873 0.751953,0.9765625 1.503907,1.6503907 z"
           id="path1201" />
        <path
           d="m 66.074219,-8.90625 h -0.09766 q -0.410156,-0.097656 -0.800781,-0.1367188 -0.380859,-0.048828 -0.908203,-0.048828 -0.849609,0 -1.640625,0.3808594 -0.791016,0.3710937 -1.523437,0.9667969 V 0 h -1.835938 v -10.908203 h 1.835938 v 1.611328 q 1.09375,-0.878906 1.923828,-1.240234 0.839843,-0.371094 1.708984,-0.371094 0.478516,0 0.693359,0.0293 0.214844,0.01953 0.644532,0.08789 z"
           id="path1203" />
        <path
           d="m 77.099609,-5.4492187 q 0,2.6660156 -1.367187,4.2089843 -1.367188,1.54296878 -3.66211,1.54296878 -2.314453,0 -3.68164,-1.54296878 -1.357422,-1.5429687 -1.357422,-4.2089843 0,-2.6660157 1.357422,-4.2089844 1.367187,-1.5527349 3.68164,-1.5527349 2.294922,0 3.66211,1.5527349 1.367187,1.5429687 1.367187,4.2089844 z m -1.894531,0 q 0,-2.1191407 -0.830078,-3.1445313 -0.830078,-1.0351563 -2.304688,-1.0351563 -1.49414,0 -2.324218,1.0351563 -0.820313,1.0253906 -0.820313,3.1445313 0,2.0507812 0.830078,3.1152343 0.830078,1.0546875 2.314453,1.0546875 1.464844,0 2.294922,-1.0449219 0.839844,-1.0546875 0.839844,-3.1249999 z"
           id="path1205" />
        <path
           d="m 85.605469,-0.09765625 q -0.517578,0.13671875 -1.132813,0.22460937 -0.605469,0.0878906 -1.083984,0.0878906 -1.669922,0 -2.539063,-0.8984375 -0.86914,-0.89843745 -0.86914,-2.88085935 v -5.8007813 h -1.240235 v -1.5429686 h 1.240235 v -3.134766 h 1.835937 v 3.134766 h 3.789063 v 1.5429686 h -3.789063 v 4.9707032 q 0,0.8593749 0.03906,1.3476562 0.03906,0.4785156 0.273437,0.8984375 0.214844,0.390625 0.585938,0.5761719 0.380859,0.1757812 1.152343,0.1757812 0.449219,0 0.9375,-0.1269531 0.488282,-0.1367187 0.703125,-0.2246094 h 0.09766 z"
           id="path1207" />
        <path
           d="m 96.298828,0 h -1.826172 v -1.1621094 q -0.24414,0.16601565 -0.664062,0.46875003 -0.410157,0.29296874 -0.800782,0.46874999 Q 92.548828,0 91.953125,0.14648437 q -0.595703,0.15625001 -1.396484,0.15625001 -1.47461,0 -2.5,-0.9765625 -1.025391,-0.97656248 -1.025391,-2.49023438 0,-1.2402344 0.527344,-2.0019531 0.537109,-0.7714844 1.523437,-1.2109375 0.996094,-0.4394531 2.392578,-0.5957031 1.396485,-0.15625 2.998047,-0.234375 v -0.2832032 q 0,-0.625 -0.224609,-1.0351562 -0.214844,-0.4101563 -0.625,-0.6445313 -0.390625,-0.2246094 -0.9375,-0.3027344 -0.546875,-0.078125 -1.142578,-0.078125 -0.722657,0 -1.611328,0.1953125 -0.888672,0.1855469 -1.835938,0.546875 h -0.09766 v -1.8652342 q 0.537109,-0.146485 1.552734,-0.322266 1.015625,-0.175781 2.001953,-0.175781 1.152344,0 2.001953,0.195312 0.859375,0.185547 1.484375,0.644532 0.615235,0.4492185 0.9375,1.1621091 0.322266,0.7128906 0.322266,1.7675782 z m -1.826172,-2.6855469 v -3.0371093 q -0.839844,0.048828 -1.982422,0.1464843 -1.132812,0.097656 -1.796875,0.2832032 -0.791015,0.2246093 -1.279297,0.703125 -0.488281,0.46875 -0.488281,1.2988281 0,0.9375 0.566406,1.4160156 0.566407,0.46875 1.728516,0.46875 0.966797,0 1.767578,-0.3710937 0.800781,-0.3808594 1.484375,-0.9082032 z"
           id="path1209" />
        <path
           d="m 105.49805,-0.09765625 q -0.51758,0.13671875 -1.13282,0.22460937 -0.60546,0.0878906 -1.08398,0.0878906 -1.66992,0 -2.53906,-0.8984375 -0.869143,-0.89843745 -0.869143,-2.88085935 v -5.8007813 h -1.240235 v -1.5429686 h 1.240235 v -3.134766 h 1.835933 v 3.134766 h 3.78907 v 1.5429686 h -3.78907 v 4.9707032 q 0,0.8593749 0.0391,1.3476562 0.0391,0.4785156 0.27343,0.8984375 0.21485,0.390625 0.58594,0.5761719 0.38086,0.1757812 1.15235,0.1757812 0.44921,0 0.9375,-0.1269531 0.48828,-0.1367187 0.70312,-0.2246094 h 0.0977 z"
           id="path1211" />
        <path
           d="m 116.8457,-5.2636719 h -8.03711 q 0,1.0058594 0.30274,1.7578125 0.30273,0.7421875 0.83008,1.2207031 0.50781,0.4687501 1.20117,0.7031251 0.70312,0.234375 1.54297,0.234375 1.11328,0 2.23633,-0.4394532 1.13281,-0.4492187 1.61132,-0.8789062 h 0.0977 v 2.0019531 q -0.92773,0.390625 -1.89453,0.65429687 -0.9668,0.26367188 -2.03125,0.26367188 -2.71485,0 -4.23828,-1.46484375 -1.52344,-1.4746094 -1.52344,-4.1796875 0,-2.6757813 1.45508,-4.2480469 1.46484,-1.5722661 3.84765,-1.5722661 2.20704,0 3.39844,1.289063 1.20117,1.2890625 1.20117,3.6621094 z m -1.78711,-1.40625 q -0.01,-1.4453125 -0.73242,-2.2363281 -0.71289,-0.7910156 -2.17773,-0.7910156 -1.47461,0 -2.35352,0.8691406 -0.86914,0.8691406 -0.98633,2.1582031 z"
           id="path1213" />
        <path
           d="m 125.13672,-5.5859375 q 0,2.9394531 -0.95703,5.28320312 -0.95703,2.34374998 -2.68555,4.32617188 h -2.23633 v -0.097656 q 0.75196,-0.6738282 1.50391,-1.6503907 0.76172,-0.9667969 1.33789,-2.16796873 0.60547,-1.24999997 0.95703,-2.63671877 0.36133,-1.3867187 0.36133,-3.0566406 0,-1.6015625 -0.36133,-3.046875 -0.36133,-1.4453125 -0.95703,-2.6464845 -0.61523,-1.240234 -1.33789,-2.167969 -0.71289,-0.9375 -1.50391,-1.65039 v -0.09766 h 2.23633 q 1.72852,1.982422 2.68555,4.326172 0.95703,2.3437504 0.95703,5.2832035 z"
           id="path1215" />
      </g>
    </g>
  </g>
  <!-- Establish a new coordinate system whose origin is at (200,40)
       in the initial coord. system and which is scaled by 1.5. -->
  <g
     transform="translate(200,40)"
     id="g1070">
    <g
       transform="scale(1.5)"
       id="g1068">
      <g
         fill="none"
         stroke="red"
         stroke-width="3"
         id="g1064">
        <line
           x1="0"
           y1="0"
           x2="50"
           y2="0"
           id="line1060" />
        <line
           x1="0"
           y1="0"
           x2="0"
           y2="50"
           id="line1062" />
      </g>
      <g
         aria-label="ABC (scale)"
         id="text1066"
         style="font-size:20px;font-family:Verdana;fill:#0000ff">
        <path
           d="M 13.417969,0 H 11.357422 L 9.9316406,-4.0527344 H 3.6425781 L 2.2167969,0 H 0.25390625 L 5.546875,-14.541016 H 8.125 Z M 9.3359375,-5.7128906 6.7871094,-12.851563 4.2285156,-5.7128906 Z"
           id="path1218" />
        <path
           d="m 26.591797,-4.4726562 q 0,1.0839843 -0.410156,1.9140624 -0.410157,0.8300782 -1.103516,1.3671876 -0.820313,0.6445312 -1.806641,0.9179687 Q 22.294922,0 20.78125,0 H 15.625 v -14.541016 h 4.306641 q 1.591796,0 2.382812,0.117188 0.791016,0.117187 1.513672,0.488281 0.800781,0.419922 1.162109,1.083984 0.361328,0.654297 0.361328,1.572266 0,1.035156 -0.527343,1.7675782 -0.527344,0.7226563 -1.40625,1.1621094 v 0.078125 q 1.474609,0.3027344 2.324218,1.2988282 0.84961,0.9863281 0.84961,2.5 z m -3.251953,-6.5527348 q 0,-0.527343 -0.175782,-0.888672 -0.175781,-0.361328 -0.566406,-0.585937 -0.458984,-0.263672 -1.113281,-0.322266 -0.654297,-0.06836 -1.621094,-0.06836 h -2.304687 v 4.1992187 h 2.5 q 0.908203,0 1.445312,-0.087891 0.53711,-0.097656 0.996094,-0.390625 0.458984,-0.2929687 0.644531,-0.7519531 0.195313,-0.46875 0.195313,-1.103516 z m 1.240234,6.6308598 q 0,-0.8789063 -0.263672,-1.3964844 -0.263672,-0.5175781 -0.957031,-0.8789063 -0.46875,-0.2441406 -1.142578,-0.3125 -0.664063,-0.078125 -1.621094,-0.078125 h -3.037109 v 5.4101563 h 2.558593 q 1.269532,0 2.080079,-0.1269531 0.810546,-0.1367188 1.328125,-0.4882813 0.546875,-0.3808594 0.800781,-0.8691406 0.253906,-0.4882813 0.253906,-1.2597656 z"
           id="path1220" />
        <path
           d="m 40.566406,-1.0546875 q -0.537109,0.234375 -0.976562,0.43945313 -0.429688,0.20507812 -1.132813,0.4296875 Q 37.861328,0 37.158203,0.12695312 36.464844,0.26367188 35.625,0.26367188 q -1.582031,0 -2.880859,-0.43945313 Q 31.455078,-0.625 30.498047,-1.5722656 29.560547,-2.5 29.033203,-3.9257813 q -0.527344,-1.4355468 -0.527344,-3.3300781 0,-1.796875 0.507813,-3.2128906 0.507812,-1.416016 1.464844,-2.392578 0.927734,-0.947266 2.236328,-1.445313 1.318359,-0.498047 2.919922,-0.498047 1.171875,0 2.333984,0.283204 1.171875,0.283203 2.597656,0.996093 v 2.294922 h -0.146484 q -1.201172,-1.005859 -2.382813,-1.464844 -1.18164,-0.458984 -2.529297,-0.458984 -1.103515,0 -1.992187,0.361328 -0.878906,0.351563 -1.572266,1.103516 -0.673828,0.732422 -1.054687,1.8554686 -0.371094,1.1132813 -0.371094,2.578125 0,1.5332032 0.410156,2.6367188 0.419922,1.1035156 1.074219,1.796875 0.683594,0.7226562 1.591797,1.0742187 0.917969,0.3417969 1.933594,0.3417969 1.396484,0 2.617187,-0.4785156 1.220703,-0.4785157 2.285156,-1.4355469 h 0.136719 z"
           id="path1222" />
        <path
           d="M 56.025391,4.0234375 H 53.789062 Q 52.060547,2.0410156 51.103516,-0.30273438 50.146484,-2.6464844 50.146484,-5.5859375 q 0,-2.9394531 0.957032,-5.2832035 0.957031,-2.34375 2.685546,-4.326172 h 2.236329 v 0.09766 q -0.791016,0.71289 -1.513672,1.65039 -0.712891,0.927735 -1.328125,2.167969 -0.585938,1.201172 -0.957032,2.6464845 -0.361328,1.4453125 -0.361328,3.046875 0,1.6699219 0.351563,3.0566406 0.361328,1.3867188 0.966797,2.63671877 0.585937,1.20117183 1.33789,2.16796873 0.751953,0.9765625 1.503907,1.6503907 z"
           id="path1224" />
        <path
           d="m 67.060547,-3.1445313 q 0,1.4941407 -1.240235,2.45117193 -1.230468,0.95703125 -3.36914,0.95703125 -1.210938,0 -2.226563,-0.28320313 Q 59.21875,-0.3125 58.535156,-0.65429687 V -2.7148438 h 0.09766 q 0.869141,0.6542969 1.933594,1.0449219 1.064453,0.3808594 2.041016,0.3808594 1.210937,0 1.894531,-0.390625 0.683594,-0.390625 0.683594,-1.2304688 0,-0.6445312 -0.371094,-0.9765625 -0.371094,-0.3320312 -1.425781,-0.5664062 -0.390625,-0.087891 -1.025391,-0.2050781 -0.625,-0.1171875 -1.142578,-0.2539063 -1.435547,-0.3808593 -2.041016,-1.1132812 -0.595703,-0.7421875 -0.595703,-1.8164063 0,-0.6738281 0.273438,-1.2695312 0.283203,-0.5957032 0.849609,-1.0644529 0.546875,-0.458985 1.386719,-0.722657 0.849609,-0.273437 1.894531,-0.273437 0.976563,0 1.972656,0.244141 1.00586,0.234375 1.669922,0.576171 v 1.9628911 h -0.09766 q -0.703125,-0.5175781 -1.708984,-0.8691406 -1.00586,-0.3613281 -1.972657,-0.3613281 -1.005859,0 -1.699218,0.390625 -0.69336,0.3808593 -0.69336,1.1425781 0,0.6738281 0.419922,1.015625 0.410156,0.3417969 1.328125,0.5566406 0.507813,0.1171875 1.132813,0.234375 0.634765,0.1171875 1.054687,0.2148438 1.279297,0.2929687 1.972656,1.0058594 0.69336,0.7226562 0.69336,1.9140624 z"
           id="path1226" />
        <path
           d="M 77.753906,-0.68359375 Q 76.835937,-0.24414063 76.005859,0 q -0.820312,0.24414063 -1.748047,0.24414063 -1.18164,0 -2.167968,-0.34179688 -0.986328,-0.3515625 -1.689453,-1.05468745 -0.712891,-0.703125 -1.103516,-1.7773438 -0.390625,-1.0742187 -0.390625,-2.5097656 0,-2.6757813 1.464844,-4.1992188 1.474609,-1.5234371 3.886718,-1.5234371 0.9375,0 1.835938,0.263671 0.908203,0.263672 1.660156,0.644532 v 2.0410154 h -0.09766 q -0.839844,-0.6542969 -1.738281,-1.0058594 -0.888672,-0.3515625 -1.738282,-0.3515625 -1.5625,0 -2.470703,1.0546875 -0.898437,1.0449219 -0.898437,3.0761719 0,1.9726562 0.878906,3.0371093 0.888672,1.0546876 2.490234,1.0546876 0.556641,0 1.132813,-0.1464844 0.576172,-0.1464844 1.035156,-0.3808594 0.400391,-0.2050781 0.751953,-0.4296875 0.351563,-0.234375 0.556641,-0.4003906 h 0.09766 z"
           id="path1228" />
        <path
           d="m 88.583984,0 h -1.826172 v -1.1621094 q -0.24414,0.16601565 -0.664062,0.46875003 -0.410156,0.29296874 -0.800781,0.46874999 Q 84.833984,0 84.238281,0.14648437 q -0.595703,0.15625001 -1.396484,0.15625001 -1.47461,0 -2.5,-0.9765625 -1.025391,-0.97656248 -1.025391,-2.49023438 0,-1.2402344 0.527344,-2.0019531 0.537109,-0.7714844 1.523437,-1.2109375 0.996094,-0.4394531 2.392579,-0.5957031 1.396484,-0.15625 2.998046,-0.234375 v -0.2832032 q 0,-0.625 -0.224609,-1.0351562 -0.214844,-0.4101563 -0.625,-0.6445313 -0.390625,-0.2246094 -0.9375,-0.3027344 -0.546875,-0.078125 -1.142578,-0.078125 -0.722656,0 -1.611328,0.1953125 -0.888672,0.1855469 -1.835938,0.546875 h -0.09766 v -1.8652342 q 0.537109,-0.146485 1.552734,-0.322266 1.015625,-0.175781 2.001954,-0.175781 1.152343,0 2.001953,0.195312 0.859375,0.185547 1.484375,0.644532 0.615234,0.4492185 0.9375,1.1621091 0.322265,0.7128906 0.322265,1.7675782 z m -1.826172,-2.6855469 v -3.0371093 q -0.839843,0.048828 -1.982421,0.1464843 -1.132813,0.097656 -1.796875,0.2832032 -0.791016,0.2246093 -1.279297,0.703125 -0.488282,0.46875 -0.488282,1.2988281 0,0.9375 0.566407,1.4160156 0.566406,0.46875 1.728515,0.46875 0.966797,0 1.767578,-0.3710937 0.800782,-0.3808594 1.484375,-0.9082032 z"
           id="path1230" />
        <path
           d="m 93.974609,0 h -1.835937 v -15.195313 h 1.835937 z"
           id="path1232" />
        <path
           d="m 106.73828,-5.2636719 h -8.037108 q 0,1.0058594 0.302734,1.7578125 0.302735,0.7421875 0.830078,1.2207031 0.507816,0.4687501 1.201176,0.7031251 0.70312,0.234375 1.54297,0.234375 1.11328,0 2.23632,-0.4394532 1.13282,-0.4492187 1.61133,-0.8789062 h 0.0977 v 2.0019531 q -0.92774,0.390625 -1.89453,0.65429687 -0.9668,0.26367188 -2.03125,0.26367188 -2.714848,0 -4.238285,-1.46484375 -1.523438,-1.4746094 -1.523438,-4.1796875 0,-2.6757813 1.455079,-4.2480469 1.464843,-1.5722661 3.847654,-1.5722661 2.20703,0 3.39844,1.289063 1.20117,1.2890625 1.20117,3.6621094 z m -1.78711,-1.40625 q -0.01,-1.4453125 -0.73242,-2.2363281 -0.71289,-0.7910156 -2.17773,-0.7910156 -1.47461,0 -2.35352,0.8691406 -0.869141,0.8691406 -0.986328,2.1582031 z"
           id="path1234" />
        <path
           d="m 115.0293,-5.5859375 q 0,2.9394531 -0.95703,5.28320312 -0.95704,2.34374998 -2.68555,4.32617188 h -2.23633 v -0.097656 q 0.75195,-0.6738282 1.50391,-1.6503907 0.76172,-0.9667969 1.33789,-2.16796873 0.60547,-1.24999997 0.95703,-2.63671877 0.36133,-1.3867187 0.36133,-3.0566406 0,-1.6015625 -0.36133,-3.046875 -0.36133,-1.4453125 -0.95703,-2.6464845 -0.61524,-1.240234 -1.33789,-2.167969 -0.71289,-0.9375 -1.50391,-1.65039 v -0.09766 h 2.23633 q 1.72851,1.982422 2.68555,4.326172 0.95703,2.3437504 0.95703,5.2832035 z"
           id="path1236" />
      </g>
    </g>
  </g>
</svg>
