<?xml version="1.0" encoding="UTF-8" standalone="no"?>
<svg
   width="400px"
   height="120px"
   version="1.1"
   id="svg1327"
   xmlns="http://www.w3.org/2000/svg"
   xmlns:svg="http://www.w3.org/2000/svg">
  <defs
     id="defs1331" />
  <desc
     id="desc1295">Example Skew - Show effects of skewX and skewY</desc>
  <g
     fill="none"
     stroke="black"
     stroke-width="3"
     id="g1301">
    <!-- Draw the axes of the original coordinate system -->
    <line
       x1="0"
       y1="1.5"
       x2="400"
       y2="1.5"
       id="line1297" />
    <line
       x1="1.5"
       y1="0"
       x2="1.5"
       y2="120"
       id="line1299" />
  </g>
  <!-- Establish a new coordinate system whose origin is at (30,30)
       in the initial coord. system and which is skewed in X by 30 degrees. -->
  <g
     transform="translate(30,30)"
     id="g1313">
    <g
       transform="skewX(30)"
       id="g1311">
      <g
         fill="none"
         stroke="red"
         stroke-width="3"
         id="g1307">
        <line
           x1="0"
           y1="0"
           x2="50"
           y2="0"
           id="line1303" />
        <line
           x1="0"
           y1="0"
           x2="0"
           y2="50"
           id="line1305" />
      </g>
      <g
         aria-label="ABC (skewX)"
         id="text1309"
         style="font-size:20px;font-family:Verdana;fill:#0000ff">
        <path
           d="M 13.417969,0 H 11.357422 L 9.9316406,-4.0527344 H 3.6425781 L 2.2167969,0 H 0.25390625 L 5.546875,-14.541016 H 8.125 Z M 9.3359375,-5.7128906 6.7871094,-12.851563 4.2285156,-5.7128906 Z"
           id="path1450" />
        <path
           d="m 26.591797,-4.4726562 q 0,1.0839843 -0.410156,1.9140624 -0.410157,0.8300782 -1.103516,1.3671876 -0.820313,0.6445312 -1.806641,0.9179687 Q 22.294922,0 20.78125,0 H 15.625 v -14.541016 h 4.306641 q 1.591796,0 2.382812,0.117188 0.791016,0.117187 1.513672,0.488281 0.800781,0.419922 1.162109,1.083984 0.361328,0.654297 0.361328,1.572266 0,1.035156 -0.527343,1.7675782 -0.527344,0.7226563 -1.40625,1.1621094 v 0.078125 q 1.474609,0.3027344 2.324218,1.2988282 0.84961,0.9863281 0.84961,2.5 z m -3.251953,-6.5527348 q 0,-0.527343 -0.175782,-0.888672 -0.175781,-0.361328 -0.566406,-0.585937 -0.458984,-0.263672 -1.113281,-0.322266 -0.654297,-0.06836 -1.621094,-0.06836 h -2.304687 v 4.1992187 h 2.5 q 0.908203,0 1.445312,-0.087891 0.53711,-0.097656 0.996094,-0.390625 0.458984,-0.2929687 0.644531,-0.7519531 0.195313,-0.46875 0.195313,-1.103516 z m 1.240234,6.6308598 q 0,-0.8789063 -0.263672,-1.3964844 -0.263672,-0.5175781 -0.957031,-0.8789063 -0.46875,-0.2441406 -1.142578,-0.3125 -0.664063,-0.078125 -1.621094,-0.078125 h -3.037109 v 5.4101563 h 2.558593 q 1.269532,0 2.080079,-0.1269531 0.810546,-0.1367188 1.328125,-0.4882813 0.546875,-0.3808594 0.800781,-0.8691406 0.253906,-0.4882813 0.253906,-1.2597656 z"
           id="path1452" />
        <path
           d="m 40.566406,-1.0546875 q -0.537109,0.234375 -0.976562,0.43945313 -0.429688,0.20507812 -1.132813,0.4296875 Q 37.861328,0 37.158203,0.12695312 36.464844,0.26367188 35.625,0.26367188 q -1.582031,0 -2.880859,-0.43945313 Q 31.455078,-0.625 30.498047,-1.5722656 29.560547,-2.5 29.033203,-3.9257813 q -0.527344,-1.4355468 -0.527344,-3.3300781 0,-1.796875 0.507813,-3.2128906 0.507812,-1.416016 1.464844,-2.392578 0.927734,-0.947266 2.236328,-1.445313 1.318359,-0.498047 2.919922,-0.498047 1.171875,0 2.333984,0.283204 1.171875,0.283203 2.597656,0.996093 v 2.294922 h -0.146484 q -1.201172,-1.005859 -2.382813,-1.464844 -1.18164,-0.458984 -2.529297,-0.458984 -1.103515,0 -1.992187,0.361328 -0.878906,0.351563 -1.572266,1.103516 -0.673828,0.732422 -1.054687,1.8554686 -0.371094,1.1132813 -0.371094,2.578125 0,1.5332032 0.410156,2.6367188 0.419922,1.1035156 1.074219,1.796875 0.683594,0.7226562 1.591797,1.0742187 0.917969,0.3417969 1.933594,0.3417969 1.396484,0 2.617187,-0.4785156 1.220703,-0.4785157 2.285156,-1.4355469 h 0.136719 z"
           id="path1454" />
        <path
           d="M 56.025391,4.0234375 H 53.789062 Q 52.060547,2.0410156 51.103516,-0.30273438 50.146484,-2.6464844 50.146484,-5.5859375 q 0,-2.9394531 0.957032,-5.2832035 0.957031,-2.34375 2.685546,-4.326172 h 2.236329 v 0.09766 q -0.791016,0.71289 -1.513672,1.65039 -0.712891,0.927735 -1.328125,2.167969 -0.585938,1.201172 -0.957032,2.6464845 -0.361328,1.4453125 -0.361328,3.046875 0,1.6699219 0.351563,3.0566406 0.361328,1.3867188 0.966797,2.63671877 0.585937,1.20117183 1.33789,2.16796873 0.751953,0.9765625 1.503907,1.6503907 z"
           id="path1456" />
        <path
           d="m 67.060547,-3.1445313 q 0,1.4941407 -1.240235,2.45117193 -1.230468,0.95703125 -3.36914,0.95703125 -1.210938,0 -2.226563,-0.28320313 Q 59.21875,-0.3125 58.535156,-0.65429687 V -2.7148438 h 0.09766 q 0.869141,0.6542969 1.933594,1.0449219 1.064453,0.3808594 2.041016,0.3808594 1.210937,0 1.894531,-0.390625 0.683594,-0.390625 0.683594,-1.2304688 0,-0.6445312 -0.371094,-0.9765625 -0.371094,-0.3320312 -1.425781,-0.5664062 -0.390625,-0.087891 -1.025391,-0.2050781 -0.625,-0.1171875 -1.142578,-0.2539063 -1.435547,-0.3808593 -2.041016,-1.1132812 -0.595703,-0.7421875 -0.595703,-1.8164063 0,-0.6738281 0.273438,-1.2695312 0.283203,-0.5957032 0.849609,-1.0644529 0.546875,-0.458985 1.386719,-0.722657 0.849609,-0.273437 1.894531,-0.273437 0.976563,0 1.972656,0.244141 1.00586,0.234375 1.669922,0.576171 v 1.9628911 h -0.09766 q -0.703125,-0.5175781 -1.708984,-0.8691406 -1.00586,-0.3613281 -1.972657,-0.3613281 -1.005859,0 -1.699218,0.390625 -0.69336,0.3808593 -0.69336,1.1425781 0,0.6738281 0.419922,1.015625 0.410156,0.3417969 1.328125,0.5566406 0.507813,0.1171875 1.132813,0.234375 0.634765,0.1171875 1.054687,0.2148438 1.279297,0.2929687 1.972656,1.0058594 0.69336,0.7226562 0.69336,1.9140624 z"
           id="path1458" />
        <path
           d="m 79.589844,0 h -2.421875 l -4.375,-4.7753906 -1.191407,1.1328125 V 0 h -1.835937 v -15.195313 h 1.835937 v 9.7460943 l 5.302735,-5.4589843 h 2.314453 l -5.068359,5.0390624 z"
           id="path1460" />
        <path
           d="m 90.458984,-5.2636719 h -8.037109 q 0,1.0058594 0.302734,1.7578125 0.302735,0.7421875 0.830078,1.2207031 0.507813,0.4687501 1.201172,0.7031251 0.703125,0.234375 1.542969,0.234375 1.113281,0 2.236328,-0.4394532 1.132813,-0.4492187 1.611328,-0.8789062 h 0.09766 v 2.0019531 q -0.927735,0.390625 -1.894532,0.65429687 -0.966797,0.26367188 -2.03125,0.26367188 -2.714843,0 -4.238281,-1.46484375 -1.523437,-1.4746094 -1.523437,-4.1796875 0,-2.6757813 1.455078,-4.2480469 1.464843,-1.5722661 3.847656,-1.5722661 2.207031,0 3.398437,1.289063 1.201172,1.2890625 1.201172,3.6621094 z m -1.787109,-1.40625 q -0.0098,-1.4453125 -0.732422,-2.2363281 -0.712891,-0.7910156 -2.177734,-0.7910156 -1.47461,0 -2.353516,0.8691406 -0.869141,0.8691406 -0.986328,2.1582031 z"
           id="path1462" />
        <path
           d="M 106.96289,-10.908203 104.12109,0 h -1.69921 L 99.619141,-8.4082031 96.835937,0 h -1.689453 l -2.871093,-10.908203 h 1.914062 l 2.001953,8.4472655 2.72461,-8.4472655 h 1.513674 l 2.79297,8.4472655 1.89453,-8.4472655 z"
           id="path1464" />
        <path
           d="M 120.84961,-14.541016 115.83008,-7.3535156 120.83984,0 h -2.23632 L 114.63867,-5.9863281 110.57617,0 h -2.10937 l 5.06836,-7.265625 -4.95118,-7.275391 h 2.22657 l 3.91601,5.9082035 4.00391,-5.9082035 z"
           id="path1466" />
        <path
           d="m 128.81836,-5.5859375 q 0,2.9394531 -0.95703,5.28320312 -0.95703,2.34374998 -2.68555,4.32617188 h -2.23633 v -0.097656 q 0.75196,-0.6738282 1.50391,-1.6503907 0.76172,-0.9667969 1.33789,-2.16796873 0.60547,-1.24999997 0.95703,-2.63671877 0.36133,-1.3867187 0.36133,-3.0566406 0,-1.6015625 -0.36133,-3.046875 -0.36133,-1.4453125 -0.95703,-2.6464845 -0.61523,-1.240234 -1.33789,-2.167969 -0.71289,-0.9375 -1.50391,-1.65039 v -0.09766 h 2.23633 q 1.72852,1.982422 2.68555,4.326172 0.95703,2.3437504 0.95703,5.2832035 z"
           id="path1468" />
      </g>
    </g>
  </g>
  <!-- Establish a new coordinate system whose origin is at (200,30)
       in the initial coord. system and which is skewed in Y by 30 degrees. -->
  <g
     transform="translate(200,30)"
     id="g1325">
    <g
       transform="skewY(30)"
       id="g1323">
      <g
         fill="none"
         stroke="red"
         stroke-width="3"
         id="g1319">
        <line
           x1="0"
           y1="0"
           x2="50"
           y2="0"
           id="line1315" />
        <line
           x1="0"
           y1="0"
           x2="0"
           y2="50"
           id="line1317" />
      </g>
      <g
         aria-label="ABC (skewY)"
         id="text1321"
         style="font-size:20px;font-family:Verdana;fill:#0000ff">
        <path
           d="M 13.417969,0 H 11.357422 L 9.9316406,-4.0527344 H 3.6425781 L 2.2167969,0 H 0.25390625 L 5.546875,-14.541016 H 8.125 Z M 9.3359375,-5.7128906 6.7871094,-12.851563 4.2285156,-5.7128906 Z"
           id="path1471" />
        <path
           d="m 26.591797,-4.4726562 q 0,1.0839843 -0.410156,1.9140624 -0.410157,0.8300782 -1.103516,1.3671876 -0.820313,0.6445312 -1.806641,0.9179687 Q 22.294922,0 20.78125,0 H 15.625 v -14.541016 h 4.306641 q 1.591796,0 2.382812,0.117188 0.791016,0.117187 1.513672,0.488281 0.800781,0.419922 1.162109,1.083984 0.361328,0.654297 0.361328,1.572266 0,1.035156 -0.527343,1.7675782 -0.527344,0.7226563 -1.40625,1.1621094 v 0.078125 q 1.474609,0.3027344 2.324218,1.2988282 0.84961,0.9863281 0.84961,2.5 z m -3.251953,-6.5527348 q 0,-0.527343 -0.175782,-0.888672 -0.175781,-0.361328 -0.566406,-0.585937 -0.458984,-0.263672 -1.113281,-0.322266 -0.654297,-0.06836 -1.621094,-0.06836 h -2.304687 v 4.1992187 h 2.5 q 0.908203,0 1.445312,-0.087891 0.53711,-0.097656 0.996094,-0.390625 0.458984,-0.2929687 0.644531,-0.7519531 0.195313,-0.46875 0.195313,-1.103516 z m 1.240234,6.6308598 q 0,-0.8789063 -0.263672,-1.3964844 -0.263672,-0.5175781 -0.957031,-0.8789063 -0.46875,-0.2441406 -1.142578,-0.3125 -0.664063,-0.078125 -1.621094,-0.078125 h -3.037109 v 5.4101563 h 2.558593 q 1.269532,0 2.080079,-0.1269531 0.810546,-0.1367188 1.328125,-0.4882813 0.546875,-0.3808594 0.800781,-0.8691406 0.253906,-0.4882813 0.253906,-1.2597656 z"
           id="path1473" />
        <path
           d="m 40.566406,-1.0546875 q -0.537109,0.234375 -0.976562,0.43945313 -0.429688,0.20507812 -1.132813,0.4296875 Q 37.861328,0 37.158203,0.12695312 36.464844,0.26367188 35.625,0.26367188 q -1.582031,0 -2.880859,-0.43945313 Q 31.455078,-0.625 30.498047,-1.5722656 29.560547,-2.5 29.033203,-3.9257813 q -0.527344,-1.4355468 -0.527344,-3.3300781 0,-1.796875 0.507813,-3.2128906 0.507812,-1.416016 1.464844,-2.392578 0.927734,-0.947266 2.236328,-1.445313 1.318359,-0.498047 2.919922,-0.498047 1.171875,0 2.333984,0.283204 1.171875,0.283203 2.597656,0.996093 v 2.294922 h -0.146484 q -1.201172,-1.005859 -2.382813,-1.464844 -1.18164,-0.458984 -2.529297,-0.458984 -1.103515,0 -1.992187,0.361328 -0.878906,0.351563 -1.572266,1.103516 -0.673828,0.732422 -1.054687,1.8554686 -0.371094,1.1132813 -0.371094,2.578125 0,1.5332032 0.410156,2.6367188 0.419922,1.1035156 1.074219,1.796875 0.683594,0.7226562 1.591797,1.0742187 0.917969,0.3417969 1.933594,0.3417969 1.396484,0 2.617187,-0.4785156 1.220703,-0.4785157 2.285156,-1.4355469 h 0.136719 z"
           id="path1475" />
        <path
           d="M 56.025391,4.0234375 H 53.789062 Q 52.060547,2.0410156 51.103516,-0.30273438 50.146484,-2.6464844 50.146484,-5.5859375 q 0,-2.9394531 0.957032,-5.2832035 0.957031,-2.34375 2.685546,-4.326172 h 2.236329 v 0.09766 q -0.791016,0.71289 -1.513672,1.65039 -0.712891,0.927735 -1.328125,2.167969 -0.585938,1.201172 -0.957032,2.6464845 -0.361328,1.4453125 -0.361328,3.046875 0,1.6699219 0.351563,3.0566406 0.361328,1.3867188 0.966797,2.63671877 0.585937,1.20117183 1.33789,2.16796873 0.751953,0.9765625 1.503907,1.6503907 z"
           id="path1477" />
        <path
           d="m 67.060547,-3.1445313 q 0,1.4941407 -1.240235,2.45117193 -1.230468,0.95703125 -3.36914,0.95703125 -1.210938,0 -2.226563,-0.28320313 Q 59.21875,-0.3125 58.535156,-0.65429687 V -2.7148438 h 0.09766 q 0.869141,0.6542969 1.933594,1.0449219 1.064453,0.3808594 2.041016,0.3808594 1.210937,0 1.894531,-0.390625 0.683594,-0.390625 0.683594,-1.2304688 0,-0.6445312 -0.371094,-0.9765625 -0.371094,-0.3320312 -1.425781,-0.5664062 -0.390625,-0.087891 -1.025391,-0.2050781 -0.625,-0.1171875 -1.142578,-0.2539063 -1.435547,-0.3808593 -2.041016,-1.1132812 -0.595703,-0.7421875 -0.595703,-1.8164063 0,-0.6738281 0.273438,-1.2695312 0.283203,-0.5957032 0.849609,-1.0644529 0.546875,-0.458985 1.386719,-0.722657 0.849609,-0.273437 1.894531,-0.273437 0.976563,0 1.972656,0.244141 1.00586,0.234375 1.669922,0.576171 v 1.9628911 h -0.09766 q -0.703125,-0.5175781 -1.708984,-0.8691406 -1.00586,-0.3613281 -1.972657,-0.3613281 -1.005859,0 -1.699218,0.390625 -0.69336,0.3808593 -0.69336,1.1425781 0,0.6738281 0.419922,1.015625 0.410156,0.3417969 1.328125,0.5566406 0.507813,0.1171875 1.132813,0.234375 0.634765,0.1171875 1.054687,0.2148438 1.279297,0.2929687 1.972656,1.0058594 0.69336,0.7226562 0.69336,1.9140624 z"
           id="path1479" />
        <path
           d="m 79.589844,0 h -2.421875 l -4.375,-4.7753906 -1.191407,1.1328125 V 0 h -1.835937 v -15.195313 h 1.835937 v 9.7460943 l 5.302735,-5.4589843 h 2.314453 l -5.068359,5.0390624 z"
           id="path1481" />
        <path
           d="m 90.458984,-5.2636719 h -8.037109 q 0,1.0058594 0.302734,1.7578125 0.302735,0.7421875 0.830078,1.2207031 0.507813,0.4687501 1.201172,0.7031251 0.703125,0.234375 1.542969,0.234375 1.113281,0 2.236328,-0.4394532 1.132813,-0.4492187 1.611328,-0.8789062 h 0.09766 v 2.0019531 q -0.927735,0.390625 -1.894532,0.65429687 -0.966797,0.26367188 -2.03125,0.26367188 -2.714843,0 -4.238281,-1.46484375 -1.523437,-1.4746094 -1.523437,-4.1796875 0,-2.6757813 1.455078,-4.2480469 1.464843,-1.5722661 3.847656,-1.5722661 2.207031,0 3.398437,1.289063 1.201172,1.2890625 1.201172,3.6621094 z m -1.787109,-1.40625 q -0.0098,-1.4453125 -0.732422,-2.2363281 -0.712891,-0.7910156 -2.177734,-0.7910156 -1.47461,0 -2.353516,0.8691406 -0.869141,0.8691406 -0.986328,2.1582031 z"
           id="path1483" />
        <path
           d="M 106.96289,-10.908203 104.12109,0 h -1.69921 L 99.619141,-8.4082031 96.835937,0 h -1.689453 l -2.871093,-10.908203 h 1.914062 l 2.001953,8.4472655 2.72461,-8.4472655 h 1.513674 l 2.79297,8.4472655 1.89453,-8.4472655 z"
           id="path1485" />
        <path
           d="m 120.04883,-14.541016 -5.11719,8.1640629 V 0 h -1.93359 v -6.171875 l -5.13672,-8.369141 H 110 l 3.97461,6.5039066 4.01367,-6.5039066 z"
           id="path1487" />
        <path
           d="m 127.42188,-5.5859375 q 0,2.9394531 -0.95704,5.28320312 -0.95703,2.34374998 -2.68554,4.32617188 h -2.23633 v -0.097656 q 0.75195,-0.6738282 1.50391,-1.6503907 0.76171,-0.9667969 1.33789,-2.16796873 0.60546,-1.24999997 0.95703,-2.63671877 0.36133,-1.3867187 0.36133,-3.0566406 0,-1.6015625 -0.36133,-3.046875 -0.36133,-1.4453125 -0.95703,-2.6464845 -0.61524,-1.240234 -1.33789,-2.167969 -0.7129,-0.9375 -1.50391,-1.65039 v -0.09766 h 2.23633 q 1.72851,1.982422 2.68554,4.326172 0.95704,2.3437504 0.95704,5.2832035 z"
           id="path1489" />
      </g>
    </g>
  </g>
</svg>
