<?xml version="1.0" encoding="UTF-8" standalone="no"?>
<svg
   width="400px"
   height="200px"
   viewBox="0 0 4000 2000"
   version="1.1"
   id="svg46"
   xmlns="http://www.w3.org/2000/svg"
   xmlns:svg="http://www.w3.org/2000/svg"
   xmlns:rdf="http://www.w3.org/1999/02/22-rdf-syntax-ns#"
   xmlns:cc="http://creativecommons.org/ns#"
   xmlns:dc="http://purl.org/dc/elements/1.1/">
  <defs
     id="defs50" />
  <title
     id="title2">Example Units</title>
  <desc
     id="desc4">Illustrates various units options</desc>
  <!-- Frame the picture -->
  <rect
     x="5"
     y="5"
     width="3990"
     height="1990"
     fill="none"
     stroke="blue"
     stroke-width="10"
     id="rect6" />
  <g
     fill="blue"
     stroke="red"
     font-family="Verdana"
     font-size="150"
     id="g44">
    <!-- Absolute unit specifiers -->
    <g
       transform="translate(400,0)"
       id="g18">
      <g
         aria-label="Abs. units:"
         id="text8"
         style="fill:#000000;stroke:none">
        <path
           d="M 50.634766,300 H 35.180664 L 24.487305,269.60449 H -22.680664 L -33.374023,300 h -14.72168 L -8.3984375,190.94238 H 10.9375 Z M 20.019531,257.15332 0.90332031,203.61328 -18.286133,257.15332 Z"
           id="path335" />
        <path
           d="m 138.08594,258.47168 q 0,10.25391 -2.92969,18.45703 -2.85645,8.20313 -7.76367,13.76953 -5.2002,5.78613 -11.42578,8.71582 -6.22559,2.85645 -13.69629,2.85645 -6.95801,0 -12.158205,-1.68457 -5.200196,-1.61133 -10.253907,-4.39453 L 78.979492,300 H 66.088867 V 186.03516 h 13.769531 v 40.72265 q 5.786133,-4.76074 12.304688,-7.76367 6.518555,-3.07617 14.648434,-3.07617 14.50196,0 22.85157,11.13281 8.42285,11.13281 8.42285,31.4209 z m -14.20899,0.36621 q 0,-14.64844 -4.83398,-22.19238 -4.83399,-7.61719 -15.60059,-7.61719 -6.005857,0 -12.1582,2.63672 -6.152344,2.56348 -11.425782,6.66504 v 46.875 q 5.859375,2.63672 10.03418,3.66211 4.248047,1.02539 9.594727,1.02539 11.425785,0 17.871095,-7.47071 6.51855,-7.54394 6.51855,-23.58398 z"
           id="path337" />
        <path
           d="m 217.99316,276.41602 q 0,11.20605 -9.30175,18.38378 -9.22852,7.17774 -25.26856,7.17774 -9.08203,0 -16.69922,-2.12402 -7.54394,-2.19727 -12.6709,-4.76075 v -15.4541 h 0.73243 q 6.51855,4.90723 14.50195,7.83692 7.9834,2.85644 15.30762,2.85644 9.08203,0 14.20898,-2.92969 5.12695,-2.92968 5.12695,-9.22851 0,-4.83399 -2.7832,-7.32422 -2.7832,-2.49024 -10.69336,-4.24805 -2.92969,-0.65918 -7.69043,-1.53808 -4.6875,-0.87891 -8.56933,-1.9043 -10.76661,-2.85645 -15.30762,-8.34961 -4.46777,-5.56641 -4.46777,-13.62305 0,-5.05371 2.05078,-9.52148 2.12402,-4.46777 6.37207,-7.9834 4.10156,-3.44238 10.40039,-5.41992 6.37207,-2.05078 14.20898,-2.05078 7.32422,0 14.79492,1.83105 7.54395,1.75781 12.52442,4.32129 v 14.72168 h -0.73242 q -5.27344,-3.88184 -12.81739,-6.51855 -7.54394,-2.70996 -14.79492,-2.70996 -7.54394,0 -12.74414,2.92968 -5.20019,2.85645 -5.20019,8.56934 0,5.05371 3.14941,7.61719 3.07617,2.56347 9.96094,4.1748 3.80859,0.87891 8.49609,1.75781 4.76074,0.87891 7.91016,1.61133 9.59472,2.19727 14.79492,7.54395 5.20019,5.41992 5.20019,14.35547 z"
           id="path339" />
        <path
           d="m 260.18066,300 h -17.50488 v -20.87402 h 17.50488 z"
           id="path341" />
        <path
           d="m 412.81738,300 h -13.76953 v -9.08203 q -6.95801,5.49316 -13.33008,8.42285 -6.37207,2.92969 -14.0625,2.92969 -12.89062,0 -20.06836,-7.83692 -7.17773,-7.91015 -7.17773,-23.14453 v -53.10058 h 13.76953 v 46.58203 q 0,6.22558 0.58594,10.69336 0.58594,4.39453 2.49023,7.54394 1.97754,3.22266 5.12696,4.6875 3.14941,1.46485 9.15527,1.46485 5.34668,0 11.64551,-2.78321 6.37207,-2.7832 11.86523,-7.10449 v -61.08398 h 13.76953 z"
           id="path343" />
        <path
           d="m 508.3252,300 h -13.76954 v -46.58203 q 0,-5.63965 -0.65918,-10.54688 -0.65918,-4.98047 -2.41699,-7.76367 -1.83105,-3.07617 -5.27344,-4.54101 -3.44238,-1.53809 -8.93554,-1.53809 -5.63965,0 -11.79199,2.7832 -6.15235,2.78321 -11.792,7.1045 V 300 h -13.76953 v -81.81152 h 13.76953 v 9.08203 q 6.44532,-5.34668 13.33008,-8.34961 6.88477,-3.00293 14.13574,-3.00293 13.25684,0 20.21485,7.9834 6.95801,7.9834 6.95801,22.99804 z"
           id="path345" />
        <path
           d="m 549.63379,204.49219 h -15.52734 v -14.28223 h 15.52734 z M 548.75488,300 h -13.76953 v -81.81152 h 13.76953 z"
           id="path347" />
        <path
           d="m 618.48145,299.26758 q -3.88184,1.02539 -8.4961,1.68457 -4.54101,0.65918 -8.12988,0.65918 -12.52442,0 -19.04297,-6.73828 -6.51855,-6.73828 -6.51855,-21.60645 v -43.50586 h -9.30176 v -11.57226 h 9.30176 v -23.51075 h 13.76953 v 23.51075 h 28.41797 v 11.57226 h -28.41797 v 37.28028 q 0,6.44531 0.29297,10.10742 0.29296,3.58886 2.05078,6.73828 1.61132,2.92969 4.39453,4.32129 2.85644,1.31836 8.64258,1.31836 3.36914,0 7.03125,-0.95215 3.66211,-1.02539 5.27343,-1.68457 h 0.73243 z"
           id="path349" />
        <path
           d="m 693.55469,276.41602 q 0,11.20605 -9.30176,18.38378 -9.22852,7.17774 -25.26856,7.17774 -9.08203,0 -16.69921,-2.12402 -7.54395,-2.19727 -12.6709,-4.76075 v -15.4541 h 0.73242 q 6.51855,4.90723 14.50195,7.83692 7.9834,2.85644 15.30762,2.85644 9.08203,0 14.20898,-2.92969 5.12696,-2.92968 5.12696,-9.22851 0,-4.83399 -2.78321,-7.32422 -2.7832,-2.49024 -10.69336,-4.24805 -2.92968,-0.65918 -7.69042,-1.53808 -4.6875,-0.87891 -8.56934,-1.9043 -10.7666,-2.85645 -15.30762,-8.34961 -4.46777,-5.56641 -4.46777,-13.62305 0,-5.05371 2.05078,-9.52148 2.12402,-4.46777 6.37207,-7.9834 4.10156,-3.44238 10.40039,-5.41992 6.37207,-2.05078 14.20899,-2.05078 7.32421,0 14.79492,1.83105 7.54394,1.75781 12.52441,4.32129 v 14.72168 h -0.73242 q -5.27344,-3.88184 -12.81738,-6.51855 -7.54395,-2.70996 -14.79493,-2.70996 -7.54394,0 -12.74414,2.92968 -5.20019,2.85645 -5.20019,8.56934 0,5.05371 3.14941,7.61719 3.07617,2.56347 9.96094,4.1748 3.80859,0.87891 8.49609,1.75781 4.76075,0.87891 7.91016,1.61133 9.59473,2.19727 14.79492,7.54395 5.2002,5.41992 5.2002,14.35547 z"
           id="path351" />
        <path
           d="m 742.55371,239.0625 h -17.50488 v -20.87402 h 17.50488 z m 0,60.9375 h -17.50488 v -20.87402 h 17.50488 z"
           id="path353" />
      </g>
      <rect
         x="0"
         y="400"
         width="4in"
         height="2in"
         stroke-width=".4in"
         id="rect10" />
      <rect
         x="0"
         y="750"
         width="384"
         height="192"
         stroke-width="38.4"
         id="rect12" />
      <g
         transform="scale(2)"
         id="g16">
        <rect
           x="0"
           y="600"
           width="4in"
           height="2in"
           stroke-width=".4in"
           id="rect14" />
      </g>
    </g>
    <!-- Relative unit specifiers -->
    <g
       transform="translate(1600,0)"
       id="g30">
      <g
         aria-label="Rel. units:"
         id="text20"
         style="fill:#000000;stroke:none">
        <path
           d="M 54.882812,300 H 36.05957 L -0.41503906,256.64062 H -20.849609 V 300 H -35.351562 V 190.94238 h 30.5419917 q 9.8876953,0 16.4794923,1.31836 6.591797,1.24512 11.865234,4.54102 5.932617,3.73535 9.228516,9.44824 3.36914,5.63965 3.36914,14.35547 0,11.79199 -5.932617,19.77539 -5.932617,7.91016 -16.333007,11.93848 z M 20.97168,221.63086 q 0,-4.6875 -1.684571,-8.27637 -1.611328,-3.66211 -5.419921,-6.15234 -3.149415,-2.12403 -7.4707036,-2.92969 -4.3212891,-0.87891 -10.1806641,-0.87891 H -20.849609 v 41.16211 h 14.6484371 q 6.88476565,0 12.0117188,-1.17187 5.1269531,-1.24512 8.7158201,-4.54102 3.295899,-3.07617 4.833985,-7.03125 1.611328,-4.02832 1.611328,-10.18066 z"
           id="path356" />
        <path
           d="M 132.66602,260.52246 H 72.387695 q 0,7.54395 2.270508,13.18359 2.270508,5.56641 6.225586,9.15528 3.808594,3.51562 9.008789,5.27344 5.273438,1.75781 11.572262,1.75781 8.34961,0 16.77246,-3.2959 8.4961,-3.36914 12.08497,-6.5918 h 0.73242 v 15.01465 q -6.95801,2.92969 -14.20899,4.90723 -7.25097,1.97754 -15.23437,1.97754 -20.36133,0 -31.787111,-10.98633 -11.425782,-11.05957 -11.425782,-31.34766 0,-20.06836 10.913086,-31.86035 10.986329,-11.79199 28.857422,-11.79199 16.552735,0 25.488285,9.66797 9.00879,9.66797 9.00879,27.46582 z M 119.2627,249.97559 q -0.0733,-10.83985 -5.49317,-16.77247 -5.34668,-5.93261 -16.333007,-5.93261 -11.05957,0 -17.651367,6.51855 -6.518554,6.51856 -7.397461,16.18653 z"
           id="path358" />
        <path
           d="M 167.45605,300 H 153.68652 V 186.03516 h 13.76953 z"
           id="path360" />
        <path
           d="M 217.1875,300 H 199.68262 V 279.12598 H 217.1875 Z"
           id="path362" />
        <path
           d="m 369.82422,300 h -13.76953 v -9.08203 q -6.95801,5.49316 -13.33008,8.42285 -6.37207,2.92969 -14.0625,2.92969 -12.89063,0 -20.06836,-7.83692 -7.17773,-7.91015 -7.17773,-23.14453 v -53.10058 h 13.76953 v 46.58203 q 0,6.22558 0.58593,10.69336 0.58594,4.39453 2.49024,7.54394 1.97754,3.22266 5.12695,4.6875 3.14942,1.46485 9.15528,1.46485 5.34667,0 11.6455,-2.78321 6.37207,-2.7832 11.86524,-7.10449 v -61.08398 h 13.76953 z"
           id="path364" />
        <path
           d="M 465.33203,300 H 451.5625 v -46.58203 q 0,-5.63965 -0.65918,-10.54688 -0.65918,-4.98047 -2.41699,-7.76367 -1.83106,-3.07617 -5.27344,-4.54101 -3.44238,-1.53809 -8.93555,-1.53809 -5.63964,0 -11.79199,2.7832 -6.15234,2.78321 -11.79199,7.1045 V 300 h -13.76953 v -81.81152 h 13.76953 v 9.08203 q 6.44531,-5.34668 13.33008,-8.34961 6.88476,-3.00293 14.13574,-3.00293 13.25684,0 20.21484,7.9834 6.95801,7.9834 6.95801,22.99804 z"
           id="path366" />
        <path
           d="m 506.64062,204.49219 h -15.52734 v -14.28223 h 15.52734 z M 505.76172,300 h -13.76953 v -81.81152 h 13.76953 z"
           id="path368" />
        <path
           d="m 575.48828,299.26758 q -3.88183,1.02539 -8.49609,1.68457 -4.54102,0.65918 -8.12989,0.65918 -12.52441,0 -19.04296,-6.73828 -6.51856,-6.73828 -6.51856,-21.60645 v -43.50586 h -9.30176 v -11.57226 h 9.30176 v -23.51075 h 13.76953 v 23.51075 h 28.41797 v 11.57226 h -28.41797 v 37.28028 q 0,6.44531 0.29297,10.10742 0.29297,3.58886 2.05078,6.73828 1.61133,2.92969 4.39453,4.32129 2.85645,1.31836 8.64258,1.31836 3.36914,0 7.03125,-0.95215 3.66211,-1.02539 5.27344,-1.68457 h 0.73242 z"
           id="path370" />
        <path
           d="m 650.56152,276.41602 q 0,11.20605 -9.30175,18.38378 -9.22852,7.17774 -25.26856,7.17774 -9.08203,0 -16.69922,-2.12402 -7.54394,-2.19727 -12.6709,-4.76075 v -15.4541 h 0.73243 q 6.51855,4.90723 14.50195,7.83692 7.9834,2.85644 15.30762,2.85644 9.08203,0 14.20898,-2.92969 5.12695,-2.92968 5.12695,-9.22851 0,-4.83399 -2.7832,-7.32422 -2.7832,-2.49024 -10.69336,-4.24805 -2.92969,-0.65918 -7.69043,-1.53808 -4.6875,-0.87891 -8.56933,-1.9043 -10.76661,-2.85645 -15.30762,-8.34961 -4.46778,-5.56641 -4.46778,-13.62305 0,-5.05371 2.05079,-9.52148 2.12402,-4.46777 6.37207,-7.9834 4.10156,-3.44238 10.40039,-5.41992 6.37207,-2.05078 14.20898,-2.05078 7.32422,0 14.79492,1.83105 7.54395,1.75781 12.52442,4.32129 v 14.72168 h -0.73242 q -5.27344,-3.88184 -12.81739,-6.51855 -7.54394,-2.70996 -14.79492,-2.70996 -7.54394,0 -12.74414,2.92968 -5.2002,2.85645 -5.2002,8.56934 0,5.05371 3.14942,7.61719 3.07617,2.56347 9.96094,4.1748 3.80859,0.87891 8.49609,1.75781 4.76074,0.87891 7.91016,1.61133 9.59472,2.19727 14.79492,7.54395 5.20019,5.41992 5.20019,14.35547 z"
           id="path372" />
        <path
           d="m 699.56055,239.0625 h -17.50489 v -20.87402 h 17.50489 z m 0,60.9375 h -17.50489 v -20.87402 h 17.50489 z"
           id="path374" />
      </g>
      <rect
         x="0"
         y="400"
         width="2.5em"
         height="1.25em"
         stroke-width=".25em"
         id="rect22" />
      <rect
         x="0"
         y="750"
         width="375"
         height="187.5"
         stroke-width="37.5"
         id="rect24" />
      <g
         transform="scale(2)"
         id="g28">
        <rect
           x="0"
           y="600"
           width="2.5em"
           height="1.25em"
           stroke-width=".25em"
           id="rect26" />
      </g>
    </g>
    <!-- Percentages -->
    <g
       transform="translate(2800,0)"
       id="g42">
      <g
         aria-label="Percentages:"
         id="text32"
         style="fill:#000000;stroke:none">
        <path
           d="m 35.986328,223.90137 q 0,7.25097 -2.563476,13.47656 -2.490235,6.15234 -7.03125,10.69336 -5.639649,5.63965 -13.330079,8.49609 -7.6904293,2.78321 -19.4091792,2.78321 H -20.849609 V 300 H -35.351562 V 190.94238 h 29.5898433 q 9.8144531,0 16.6259767,1.68457 6.811523,1.61133 12.084961,5.12696 6.225586,4.1748 9.594726,10.40039 3.442383,6.22558 3.442383,15.74707 z m -15.087891,0.36621 q 0,-5.63965 -1.977539,-9.81446 -1.977539,-4.1748 -6.005859,-6.81152 -3.5156249,-2.27051 -8.0566406,-3.22265 -4.4677734,-1.0254 -11.352539,-1.0254 H -20.849609 v 43.57911 h 12.2314449 q 8.78906254,0 14.2822266,-1.53809 5.4931645,-1.61133 8.9355465,-5.05371 3.442383,-3.51563 4.833985,-7.39746 1.464843,-3.88184 1.464843,-8.71582 z"
           id="path377" />
        <path
           d="M 118.82324,260.52246 H 58.544922 q 0,7.54395 2.270508,13.18359 2.270507,5.56641 6.225586,9.15528 3.808593,3.51562 9.008789,5.27344 5.273437,1.75781 11.572265,1.75781 8.34961,0 16.77246,-3.2959 8.4961,-3.36914 12.08496,-6.5918 h 0.73242 v 15.01465 q -6.958,2.92969 -14.20898,4.90723 -7.250977,1.97754 -15.234375,1.97754 -20.361328,0 -31.78711,-10.98633 -11.425781,-11.05957 -11.425781,-31.34766 0,-20.06836 10.913086,-31.86035 10.986328,-11.79199 28.857422,-11.79199 16.552738,0 25.488278,9.66797 9.00879,9.66797 9.00879,27.46582 z m -13.40332,-10.54687 q -0.0732,-10.83985 -5.493162,-16.77247 -5.34668,-5.93261 -16.333008,-5.93261 -11.05957,0 -17.651367,6.51855 -6.518555,6.51856 -7.397461,16.18653 z"
           id="path379" />
        <path
           d="m 190.74707,233.20312 h -0.73242 q -3.07617,-0.73242 -6.00586,-1.02539 -2.85645,-0.36621 -6.81152,-0.36621 -6.37207,0 -12.30469,2.85645 -5.93262,2.7832 -11.42578,7.25098 V 300 h -13.76953 v -81.81152 h 13.76953 v 12.08496 q 8.20312,-6.5918 14.42871,-9.30176 6.29883,-2.7832 12.81738,-2.7832 3.58887,0 5.2002,0.21972 1.61132,0.14649 4.83398,0.65918 z"
           id="path381" />
        <path
           d="m 264.20898,294.87305 q -6.88476,3.2959 -13.11035,5.12695 -6.15234,1.83105 -13.11035,1.83105 -8.8623,0 -16.25976,-2.56347 -7.39747,-2.63672 -12.6709,-7.91016 -5.34668,-5.27344 -8.27637,-13.33008 -2.92969,-8.05664 -2.92969,-18.82324 0,-20.06836 10.98633,-31.49414 11.05957,-11.42578 29.15039,-11.42578 7.03125,0 13.76953,1.97754 6.81153,1.97754 12.45117,4.83398 v 15.30762 h -0.73242 q -6.29883,-4.90723 -13.03711,-7.54395 -6.66504,-2.63671 -13.03711,-2.63671 -11.71875,0 -18.53027,7.91015 -6.73828,7.83692 -6.73828,23.07129 0,14.79492 6.5918,22.77832 6.66503,7.91016 18.67675,7.91016 4.17481,0 8.4961,-1.09863 4.32129,-1.09864 7.76367,-2.85645 3.00293,-1.53809 5.63965,-3.22266 2.63672,-1.75781 4.1748,-3.00293 h 0.73242 z"
           id="path383" />
        <path
           d="m 350.3418,260.52246 h -60.27832 q 0,7.54395 2.2705,13.18359 2.27051,5.56641 6.22559,9.15528 3.80859,3.51562 9.00879,5.27344 5.27344,1.75781 11.57226,1.75781 8.34961,0 16.77247,-3.2959 8.49609,-3.36914 12.08496,-6.5918 h 0.73242 v 15.01465 q -6.95801,2.92969 -14.20899,4.90723 -7.25097,1.97754 -15.23437,1.97754 -20.36133,0 -31.78711,-10.98633 -11.42578,-11.05957 -11.42578,-31.34766 0,-20.06836 10.91308,-31.86035 10.98633,-11.79199 28.85743,-11.79199 16.55273,0 25.48828,9.66797 9.00879,9.66797 9.00879,27.46582 z m -13.40332,-10.54687 q -0.0733,-10.83985 -5.49317,-16.77247 -5.34668,-5.93261 -16.33301,-5.93261 -11.05957,0 -17.65136,6.51855 -6.51856,6.51856 -7.39746,16.18653 z"
           id="path385" />
        <path
           d="m 439.62402,300 h -13.76953 v -46.58203 q 0,-5.63965 -0.65918,-10.54688 -0.65918,-4.98047 -2.41699,-7.76367 -1.83105,-3.07617 -5.27344,-4.54101 -3.44238,-1.53809 -8.93554,-1.53809 -5.63965,0 -11.792,2.7832 -6.15234,2.78321 -11.79199,7.1045 V 300 h -13.76953 v -81.81152 h 13.76953 v 9.08203 q 6.44531,-5.34668 13.33008,-8.34961 6.88477,-3.00293 14.13574,-3.00293 13.25684,0 20.21485,7.9834 6.958,7.9834 6.958,22.99804 z"
           id="path387" />
        <path
           d="m 508.61816,299.26758 q -3.88183,1.02539 -8.49609,1.68457 -4.54102,0.65918 -8.12988,0.65918 -12.52442,0 -19.04297,-6.73828 -6.51856,-6.73828 -6.51856,-21.60645 v -43.50586 h -9.30175 v -11.57226 h 9.30175 v -23.51075 h 13.76954 v 23.51075 h 28.41796 v 11.57226 H 480.2002 v 37.28028 q 0,6.44531 0.29296,10.10742 0.29297,3.58886 2.05079,6.73828 1.61132,2.92969 4.39453,4.32129 2.85644,1.31836 8.64257,1.31836 3.36915,0 7.03125,-0.95215 3.66211,-1.02539 5.27344,-1.68457 h 0.73242 z"
           id="path389" />
        <path
           d="m 588.81836,300 h -13.69629 v -8.71582 q -1.83105,1.24512 -4.98047,3.51562 -3.07617,2.19727 -6.00586,3.51563 -3.44238,1.68457 -7.91015,2.7832 -4.46778,1.17188 -10.47364,1.17188 -11.05957,0 -18.75,-7.32422 -7.69043,-7.32422 -7.69043,-18.67676 0,-9.30176 3.95508,-15.01465 4.02832,-5.78613 11.42578,-9.08203 7.47071,-3.2959 17.94434,-4.46777 10.47363,-1.17188 22.48535,-1.75781 v -2.12403 q 0,-4.6875 -1.68457,-7.76367 -1.61133,-3.07617 -4.6875,-4.83398 -2.92969,-1.68457 -7.03125,-2.27051 -4.10156,-0.58594 -8.56934,-0.58594 -5.41992,0 -12.08496,1.46484 -6.66504,1.39161 -13.76953,4.10157 h -0.73242 v -13.98926 q 4.02832,-1.09863 11.64551,-2.41699 7.61719,-1.31836 15.01465,-1.31836 8.64257,0 15.01464,1.46484 6.44532,1.3916 11.13282,4.83399 4.61425,3.36914 7.03125,8.71582 2.41699,5.34668 2.41699,13.25683 z m -13.69629,-20.1416 v -22.77832 q -6.29883,0.36621 -14.86816,1.09863 -8.4961,0.73242 -13.47657,2.12402 -5.93261,1.68457 -9.59472,5.27344 -3.66211,3.51563 -3.66211,9.74121 0,7.03125 4.24804,10.62012 4.24805,3.51562 12.96387,3.51562 7.25098,0 13.25684,-2.7832 6.00586,-2.85644 11.13281,-6.81152 z"
           id="path391" />
        <path
           d="m 681.68945,290.69824 q 0,20.80078 -9.44824,30.54199 -9.44824,9.74122 -29.07715,9.74122 -6.51855,0 -12.74414,-0.95215 -6.15234,-0.87891 -12.1582,-2.56348 v -14.0625 h 0.73242 q 3.36914,1.31836 10.69336,3.22266 7.32422,1.97754 14.64844,1.97754 7.03125,0 11.64551,-1.68457 4.61425,-1.68458 7.17773,-4.6875 2.56348,-2.85645 3.66211,-6.88477 1.09863,-4.02832 1.09863,-9.00879 v -7.4707 q -6.22558,4.98047 -11.93847,7.4707 -5.63965,2.41699 -14.42872,2.41699 -14.64843,0 -23.29101,-10.54687 -8.56934,-10.62012 -8.56934,-29.88281 0,-10.54688 2.92969,-18.16407 3.00293,-7.69043 8.12988,-13.25683 4.76075,-5.2002 11.57227,-8.05664 6.81152,-2.92969 13.5498,-2.92969 7.1045,0 11.86524,1.46484 4.83398,1.3916 10.18066,4.32129 l 0.87891,-3.51562 h 12.89062 z m -13.76953,-13.18359 v -44.60449 q -5.49316,-2.49024 -10.2539,-3.51563 -4.6875,-1.09863 -9.375,-1.09863 -11.35254,0 -17.8711,7.61719 -6.51855,7.61718 -6.51855,22.11914 0,13.76953 4.83398,20.87402 4.83399,7.10449 16.04004,7.10449 6.00586,0 12.01172,-2.27051 6.0791,-2.34375 11.13281,-6.22558 z"
           id="path393" />
        <path
           d="m 777.27051,260.52246 h -60.27832 q 0,7.54395 2.27051,13.18359 2.2705,5.56641 6.22558,9.15528 3.80859,3.51562 9.00879,5.27344 5.27344,1.75781 11.57227,1.75781 8.34961,0 16.77246,-3.2959 8.49609,-3.36914 12.08496,-6.5918 h 0.73242 v 15.01465 q -6.95801,2.92969 -14.20898,4.90723 -7.25098,1.97754 -15.23438,1.97754 -20.36133,0 -31.78711,-10.98633 -11.42578,-11.05957 -11.42578,-31.34766 0,-20.06836 10.91309,-31.86035 10.98632,-11.79199 28.85742,-11.79199 16.55273,0 25.48828,9.66797 9.00879,9.66797 9.00879,27.46582 z m -13.40332,-10.54687 q -0.0732,-10.83985 -5.49317,-16.77247 -5.34668,-5.93261 -16.333,-5.93261 -11.05957,0 -17.65137,6.51855 -6.51856,6.51856 -7.39746,16.18653 z"
           id="path395" />
        <path
           d="m 856.5918,276.41602 q 0,11.20605 -9.30176,18.38378 -9.22852,7.17774 -25.26856,7.17774 -9.08203,0 -16.69921,-2.12402 -7.54395,-2.19727 -12.6709,-4.76075 v -15.4541 h 0.73242 q 6.51855,4.90723 14.50195,7.83692 7.9834,2.85644 15.30762,2.85644 9.08203,0 14.20898,-2.92969 5.12696,-2.92968 5.12696,-9.22851 0,-4.83399 -2.78321,-7.32422 -2.7832,-2.49024 -10.69336,-4.24805 -2.92968,-0.65918 -7.69043,-1.53808 -4.6875,-0.87891 -8.56933,-1.9043 -10.7666,-2.85645 -15.30762,-8.34961 -4.46777,-5.56641 -4.46777,-13.62305 0,-5.05371 2.05078,-9.52148 2.12402,-4.46777 6.37207,-7.9834 4.10156,-3.44238 10.40039,-5.41992 6.37207,-2.05078 14.20898,-2.05078 7.32422,0 14.79493,1.83105 7.54394,1.75781 12.52441,4.32129 v 14.72168 h -0.73242 q -5.27344,-3.88184 -12.81738,-6.51855 -7.54395,-2.70996 -14.79493,-2.70996 -7.54394,0 -12.74414,2.92968 -5.20019,2.85645 -5.20019,8.56934 0,5.05371 3.14941,7.61719 3.07617,2.56347 9.96094,4.1748 3.80859,0.87891 8.49609,1.75781 4.76075,0.87891 7.91016,1.61133 9.59473,2.19727 14.79492,7.54395 5.2002,5.41992 5.2002,14.35547 z"
           id="path397" />
        <path
           d="m 905.59082,239.0625 h -17.50488 v -20.87402 h 17.50488 z m 0,60.9375 h -17.50488 v -20.87402 h 17.50488 z"
           id="path399" />
      </g>
      <rect
         x="0"
         y="400"
         width="10%"
         height="10%"
         stroke-width="1%"
         id="rect34" />
      <rect
         x="0"
         y="750"
         width="400"
         height="200"
         stroke-width="31.62"
         id="rect36" />
      <g
         transform="scale(2)"
         id="g40">
        <rect
           x="0"
           y="600"
           width="10%"
           height="10%"
           stroke-width="1%"
           id="rect38" />
      </g>
    </g>
  </g>
  <metadata
     id="metadata52">
    <rdf:RDF>
      <cc:Work
         rdf:about="">
        <dc:title>Example Units</dc:title>
      </cc:Work>
    </rdf:RDF>
  </metadata>
</svg>
