<?xml version="1.0" encoding="UTF-8" standalone="no"?>
<svg
   width="300px"
   height="200px"
   version="1.1"
   viewBox="0 0 1500 1000"
   preserveAspectRatio="none"
   id="svg484"
   xmlns="http://www.w3.org/2000/svg"
   xmlns:svg="http://www.w3.org/2000/svg">
  <defs
     id="defs488" />
  <desc
     id="desc476">Example ViewBox - uses the viewBox 
   attribute to automatically create an initial user coordinate
   system which causes the graphic to scale to fit into the
   viewport no matter what size the viewport is.</desc>
  <!-- This rectangle goes from (0,0) to (1500,1000) in user space.
       Because of the viewBox attribute above,
       the rectangle will end up filling the entire area
       reserved for the SVG content. -->
  <rect
     x="0"
     y="0"
     width="1500"
     height="1000"
     fill="yellow"
     stroke="blue"
     stroke-width="12"
     id="rect478" />
  <!-- A large, red triangle -->
  <path
     fill="red"
     d="M 750,100 L 250,900 L 1250,900 z"
     id="path480" />
  <!-- A text string that spans most of the viewport -->
  <g
     aria-label="Stretch to fit"
     id="text482"
     style="font-size:200px;font-family:Verdana">
    <path
       d="m 225.19531,558.49609 q 0,8.4961 -4.0039,16.79688 -3.90625,8.30078 -11.03516,14.0625 -7.8125,6.25 -18.26172,9.76562 -10.35156,3.51563 -25,3.51563 -15.72266,0 -28.32031,-2.92969 -12.5,-2.92969 -25.48828,-8.69141 v -24.21875 h 1.36719 q 11.03515,9.17969 25.48828,14.16016 14.45312,4.98047 27.14843,4.98047 17.96875,0 27.92969,-6.73828 10.05859,-6.73828 10.05859,-17.96875 0,-9.66797 -4.78515,-14.25781 -4.6875,-4.58985 -14.35547,-7.12891 -7.32422,-1.95313 -15.91797,-3.22266 -8.49609,-1.26953 -18.06641,-3.22265 -19.33593,-4.10157 -28.71093,-13.96485 -9.27735,-9.96093 -9.27735,-25.8789 0,-18.26172 15.42969,-29.88282 15.42969,-11.71875 39.16016,-11.71875 15.33203,0 28.125,2.92969 12.79297,2.92969 22.65625,7.22656 v 22.85157 h -1.36719 q -8.30078,-7.03125 -21.875,-11.6211 -13.47656,-4.6875 -27.63672,-4.6875 -15.52734,0 -25,6.44532 -9.375,6.44531 -9.375,16.60156 0,9.08203 4.6875,14.25781 4.6875,5.17578 16.50391,7.91016 6.25,1.36718 17.77343,3.32031 11.52344,1.95312 19.53125,4.00391 16.21094,4.29687 24.41407,12.98828 8.20312,8.6914 8.20312,24.3164 z"
       id="path607" />
    <path
       d="m 311.42578,599.02344 q -5.17578,1.36718 -11.32812,2.24609 -6.05469,0.87891 -10.83985,0.87891 -16.69922,0 -25.39062,-8.98438 -8.69141,-8.98437 -8.69141,-28.80859 v -58.00781 h -12.40234 v -15.42969 h 12.40234 v -31.34766 h 18.35938 v 31.34766 h 37.89062 v 15.42969 h -37.89062 v 49.70703 q 0,8.59375 0.39062,13.47656 0.39063,4.78516 2.73438,8.98437 2.14843,3.90625 5.85937,5.76172 3.80859,1.75782 11.52344,1.75782 4.49219,0 9.375,-1.26954 4.88281,-1.36718 7.03125,-2.24609 h 0.97656 z"
       id="path609" />
    <path
       d="m 401.66016,510.9375 h -0.97657 q -4.10156,-0.97656 -8.00781,-1.36719 -3.80859,-0.48828 -9.08203,-0.48828 -8.49609,0 -16.40625,3.80859 -7.91016,3.71094 -15.23438,9.66797 V 600 H 333.59375 V 490.91797 h 18.35937 v 16.11328 q 10.9375,-8.78906 19.23829,-12.40234 8.39843,-3.71094 17.08984,-3.71094 4.78516,0 6.93359,0.29297 2.14844,0.19531 6.44532,0.8789 z"
       id="path611" />
    <path
       d="m 510.25391,547.36328 h -80.3711 q 0,10.05859 3.02735,17.57813 3.02734,7.42187 8.30078,12.20703 5.07812,4.6875 12.01172,7.03125 7.03125,2.34375 15.42968,2.34375 11.13282,0 22.36328,-4.39453 11.32813,-4.49219 16.11329,-8.78907 h 0.97656 v 20.01953 q -9.27735,3.90625 -18.94531,6.54297 -9.66797,2.63672 -20.3125,2.63672 -27.14844,0 -42.38282,-14.64844 -15.23437,-14.74609 -15.23437,-41.79687 0,-26.75781 14.55078,-42.48047 14.64844,-15.72266 38.47656,-15.72266 22.07031,0 33.98438,12.89063 12.01172,12.89062 12.01172,36.62109 z m -17.8711,-14.0625 q -0.0976,-14.45312 -7.32422,-22.36328 -7.1289,-7.91016 -21.77734,-7.91016 -14.74609,0 -23.53516,8.69141 -8.6914,8.69141 -9.86328,21.58203 z"
       id="path613" />
    <path
       d="m 594.72656,599.02344 q -5.17578,1.36718 -11.32812,2.24609 -6.05469,0.87891 -10.83985,0.87891 -16.69922,0 -25.39062,-8.98438 -8.69141,-8.98437 -8.69141,-28.80859 v -58.00781 h -12.40234 v -15.42969 h 12.40234 v -31.34766 h 18.35938 v 31.34766 h 37.89062 v 15.42969 h -37.89062 v 49.70703 q 0,8.59375 0.39062,13.47656 0.39063,4.78516 2.73438,8.98437 2.14843,3.90625 5.85937,5.76172 3.8086,1.75782 11.52344,1.75782 4.49219,0 9.375,-1.26954 4.88281,-1.36718 7.03125,-2.24609 h 0.97656 z"
       id="path615" />
    <path
       d="m 697.55859,593.16406 q -9.17968,4.39453 -17.48047,6.83594 -8.20312,2.44141 -17.48046,2.44141 -11.81641,0 -21.67969,-3.41797 -9.86328,-3.51563 -16.89453,-10.54688 -7.12891,-7.03125 -11.03516,-17.77344 -3.90625,-10.74218 -3.90625,-25.09765 0,-26.75781 14.64844,-41.99219 14.74609,-15.23437 38.86719,-15.23437 9.375,0 18.35937,2.63671 9.08203,2.63672 16.60156,6.44532 v 20.41015 h -0.97656 q -8.39844,-6.54297 -17.38281,-10.05859 -8.88672,-3.51563 -17.38281,-3.51563 -15.625,0 -24.70704,10.54688 -8.98437,10.44922 -8.98437,30.76172 0,19.72656 8.78906,30.37109 8.88672,10.54688 24.90235,10.54688 5.5664,0 11.32812,-1.46485 5.76172,-1.46484 10.35156,-3.80859 4.00391,-2.05078 7.51953,-4.29688 3.51563,-2.34375 5.56641,-4.0039 h 0.97656 z"
       id="path617" />
    <path
       d="m 812.30469,600 h -18.35938 v -62.10938 q 0,-7.51953 -0.8789,-14.0625 -0.87891,-6.64062 -3.22266,-10.35156 -2.44141,-4.10156 -7.03125,-6.05469 -4.58984,-2.05078 -11.91406,-2.05078 -7.51953,0 -15.72266,3.71094 -8.20312,3.71094 -15.72266,9.47266 V 600 H 721.09375 V 448.04687 h 18.35937 v 54.98047 q 8.59375,-7.1289 17.77344,-11.13281 9.17969,-4.00391 18.84766,-4.00391 17.67578,0 26.95312,10.64454 9.27735,10.64453 9.27735,30.66406 z"
       id="path619" />
    <path
       d="m 974.60937,599.02344 q -5.17578,1.36718 -11.32812,2.24609 -6.05469,0.87891 -10.83984,0.87891 -16.69922,0 -25.39063,-8.98438 -8.69141,-8.98437 -8.69141,-28.80859 v -58.00781 h -12.40234 v -15.42969 h 12.40234 v -31.34766 h 18.35938 v 31.34766 h 37.89062 v 15.42969 h -37.89062 v 49.70703 q 0,8.59375 0.39062,13.47656 0.39063,4.78516 2.73438,8.98437 2.14844,3.90625 5.85937,5.76172 3.8086,1.75782 11.52344,1.75782 4.49219,0 9.375,-1.26954 4.88281,-1.36718 7.03125,-2.24609 h 0.97656 z"
       id="path621" />
    <path
       d="m 1089.7461,545.50781 q 0,26.66016 -13.6719,42.08985 -13.6719,15.42968 -36.6211,15.42968 -23.1445,0 -36.8164,-15.42968 -13.5742,-15.42969 -13.5742,-42.08985 0,-26.66015 13.5742,-42.08984 13.6719,-15.52735 36.8164,-15.52735 22.9492,0 36.6211,15.52735 13.6719,15.42969 13.6719,42.08984 z m -18.9453,0 q 0,-21.1914 -8.3008,-31.44531 -8.3008,-10.35156 -23.0469,-10.35156 -14.9414,0 -23.2422,10.35156 -8.2031,10.25391 -8.2031,31.44531 0,20.50781 8.3008,31.15235 8.3008,10.54687 23.1445,10.54687 14.6485,0 22.9492,-10.44922 8.3985,-10.54687 8.3985,-31.25 z"
       id="path623" />
    <path
       d="m 1247.168,465.82031 h -0.9766 q -3.0273,-0.8789 -7.9101,-1.75781 -4.8829,-0.97656 -8.5938,-0.97656 -11.8164,0 -17.1875,5.27343 -5.2734,5.17579 -5.2734,18.84766 v 3.71094 h 33.1054 v 15.42969 h -32.5195 V 600 h -18.3594 v -93.65234 h -12.4023 v -15.42969 h 12.4023 v -3.61328 q 0,-19.4336 9.668,-29.78516 9.668,-10.44922 27.9297,-10.44922 6.1523,0 11.0351,0.58594 4.9805,0.58594 9.0821,1.36719 z"
       id="path625" />
    <path
       d="m 1278.5156,472.65625 h -20.7031 v -19.04297 h 20.7031 z M 1277.3438,600 h -18.3594 V 490.91797 h 18.3594 z"
       id="path627" />
    <path
       d="m 1370.3125,599.02344 q -5.1758,1.36718 -11.3281,2.24609 -6.0547,0.87891 -10.8399,0.87891 -16.6992,0 -25.3906,-8.98438 -8.6914,-8.98437 -8.6914,-28.80859 v -58.00781 h -12.4023 v -15.42969 h 12.4023 v -31.34766 h 18.3594 v 31.34766 h 37.8906 v 15.42969 h -37.8906 v 49.70703 q 0,8.59375 0.3906,13.47656 0.3906,4.78516 2.7344,8.98437 2.1484,3.90625 5.8594,5.76172 3.8085,1.75782 11.5234,1.75782 4.4922,0 9.375,-1.26954 4.8828,-1.36718 7.0312,-2.24609 h 0.9766 z"
       id="path629" />
  </g>
</svg>
