<?xml version="1.0" encoding="UTF-8" standalone="no"?>
<svg
   viewBox="0 0 90.535709 90.53571"
   id="svg2"
   version="1.1"
   xmlns="http://www.w3.org/2000/svg"
   xmlns:svg="http://www.w3.org/2000/svg">
  <defs
     id="defs1" />
  <g
     id="layer1"
     transform="translate(-4.0331761,-4.2334123)">
    <path
       id="path1"
       style="fill:#2e85d9"
       d="M 88.82,18.26 C 105.6,38.18 77.76,94.19 49.24,94.54 20.72,94.89 -6.052,36.23 9.654,18.26 25.36,0.2848 73.94,0.5677 88.82,18.26 Z" />
    <path
       id="path2"
       style="fill:white"
       d="M 26.59,41 H 37.81 L 53.67,78 H 42.45 L 26.59,41" />
    <path
       id="path3"
       style="fill:rgb(255,255,255)"
       d="M 79.91,29.81 76.66,37.38 C 75.04,34.85 70.1,32.73 67.19,33.31 L 70.44,25.75 C 73.08,23.67 79.59,26.47 79.91,29.81 V 29.81" />
    <path
       id="path8600-9"
       style="fill:rgb(255,255,255)"
       d="M 63.21,68.74 C 62.2,66.25 56.04,63.59 53.74,64.68 L 66.57,34.72 C 69.48,34.13 74.42,36.25 76.1,38.72 L 63.21,68.74" />
    <path
       id="path5"
       style="fill:rgb(255,255,255)"
       d="M 58.49,73.34 C 58.03,71.67 55.32,70.53 53.72,71.27 L 53.64,78.05 58.49,73.34" />
    <path
       id="path6"
       style="fill:rgb(255,255,255)"
       d="M 36.08,27.89 C 36.08,29.92 35.28,31.86 33.84,33.3 32.41,34.73 30.46,35.54 28.43,35.54 24.21,35.54 20.79,32.11 20.79,27.89 20.79,23.66 24.21,20.24 28.43,20.24 30.46,20.24 32.41,21.05 33.84,22.48 35.28,23.91 36.08,25.86 36.08,27.89 V 27.89" />
  </g>
</svg>
